SplineFontDB: 3.0
FontName: H1957Sans-BoldItalic
FullName: H-1957 Sans Bold Italic
FamilyName: H-1957 Sans
Weight: Bold
Copyright: Copyright 2014 by (URW)++ Design & Development.\nCopyright 2016 by Lapis Lazuli Texts.
Version: 1.00
ItalicAngle: -12
UnderlinePosition: -111
UnderlineWidth: 69
Ascent: 729
Descent: 271
LayerCount: 2
Layer: 0 0 "Back"  1
Layer: 1 0 "Fore"  0
FSType: 8
OS2Version: 0
OS2_WeightWidthSlopeOnly: 0
OS2_UseTypoMetrics: 0
CreationTime: 1464335511
ModificationTime: 1464666080
PfmFamily: 17
TTFWeight: 700
TTFWidth: 5
LineGap: 90
VLineGap: 0
OS2TypoAscent: 0
OS2TypoAOffset: 1
OS2TypoDescent: 0
OS2TypoDOffset: 1
OS2TypoLinegap: 90
OS2WinAscent: 0
OS2WinAOffset: 1
OS2WinDescent: 0
OS2WinDOffset: 1
HheadAscent: 0
HheadAOffset: 1
HheadDescent: 0
HheadDOffset: 1
OS2Vendor: 'PfEd'
MarkAttachClasses: 1
DEI: 91125
LangName: 1033 "" "" "Bold Italic" "LLT: H-1957: Bold Italic" "" "" "" "" "" "" "" "https://github.com/yaoguai/H-1957-sans" "" "GNU AGPL, with font embedding exception" "" "" "H-1957 Sans" "Bold Italic" 
Encoding: UnicodeBmp
UnicodeInterp: none
NameList: Adobe Glyph List
DisplaySize: -96
AntiAlias: 1
FitToEm: 1
WinInfo: 7760 10 4
BeginPrivate: 5
ForceBold 4 true
BlueValues 31 [-23 0 540 549 729 741 701 724]
StdHW 5 [113]
StdVW 5 [143]
StemSnapH 34 [52 61 68 71 80 95 99 109 113 122]
EndPrivate
BeginChars: 65537 798

StartChar: exclam
Encoding: 33 33 1
Width: 333
Flags: MW
HStem: 0 146<143 262 112 293>
LayerCount: 2
Fore
SplineSet
417 726 m 1
 372 516 l 1
 265 207 l 1
 198 207 l 1
 222 516 l 1
 267 726 l 1
 417 726 l 1
293 146 m 1
 262 0 l 1
 112 0 l 1
 143 146 l 1
 293 146 l 1
EndSplineSet
EndChar

StartChar: quotedbl
Encoding: 34 34 2
Width: 474
Flags: MW
HStem: 470 259<205 246 190 343 205 426 441 482>
LayerCount: 2
Fore
SplineSet
343 729 m 1
 315 599 l 1
 246 470 l 1
 190 470 l 1
 177 599 l 1
 205 729 l 1
 343 729 l 1
579 729 m 1
 551 599 l 1
 482 470 l 1
 426 470 l 1
 413 599 l 1
 441 729 l 1
 579 729 l 1
EndSplineSet
EndChar

StartChar: numbersign
Encoding: 35 35 3
Width: 556
Flags: MW
HStem: 172 100<60 116 39 157 60 222 262 324 471 549> 424 100<142 219 120 260 142 325 365 427 573 639>
LayerCount: 2
Fore
SplineSet
138 -32 m 1
 33 -32 l 1
 116 172 l 1
 39 172 l 1
 60 272 l 1
 157 272 l 1
 219 424 l 1
 120 424 l 1
 142 524 l 1
 260 524 l 1
 331 697 l 1
 437 697 l 1
 365 524 l 1
 468 524 l 1
 539 697 l 1
 645 697 l 1
 573 524 l 1
 660 524 l 1
 639 424 l 1
 533 424 l 1
 471 272 l 1
 570 272 l 1
 549 172 l 1
 430 172 l 1
 346 -32 l 1
 241 -32 l 1
 324 172 l 1
 222 172 l 1
 138 -32 l 1
262 272 m 1
 365 272 l 1
 427 424 l 1
 325 424 l 1
 262 272 l 1
EndSplineSet
EndChar

StartChar: dollar
Encoding: 36 36 4
Width: 556
Flags: W
VStem: 59 137<148.5 157.5> 142 130<484.5 515.5> 430 143<193 218> 498 130<539 557>
LayerCount: 2
Fore
SplineSet
623 498 m 1x50
 495 498 l 1
 497 517 498 526 498 538 c 0x50
 498 576 476 602 440 608 c 1
 397 407 l 1
 520 369 573 318 573 237 c 0
 573 149 521 61 445 19 c 0
 406 -2 362 -15 306 -21 c 1
 284 -126 l 1
 216 -126 l 1
 239 -21 l 1
 123 -9 59 51 59 148 c 0
 59 167 61 183 67 207 c 1
 197 207 l 1
 196 193 196 185 196 174 c 0xa0
 196 123 217 95 261 86 c 1
 307 299 l 1
 196 327 142 384 142 475 c 0
 142 556 191 634 269 674 c 0
 307 694 342 704 394 709 c 1
 405 763 l 1
 473 763 l 1
 461 709 l 1
 517 704 551 692 578 669 c 0
 610 641 628 598 628 547 c 0
 628 531 627 519 623 498 c 1x50
334 427 m 1
 372 608 l 1
 347 603 333 599 319 589 c 0
 291 570 272 535 272 501 c 0
 272 468 292 443 334 427 c 1
371 282 m 1x20
 329 86 l 1
 393 101 430 142 430 198 c 0
 430 238 410 266 371 282 c 1x20
EndSplineSet
EndChar

StartChar: percent
Encoding: 37 37 5
Width: 889
Flags: W
HStem: -20 98<679 727.5 679 737> 246 98<702.5 750.5> 337 98<281 329.5 281 339> 603 98<304.5 352.5>
VStem: 129 100<482 528 482 538.5> 405 100<509.5 555.5> 527 100<125 171 125 181.5> 803 100<152.5 198.5>
LayerCount: 2
Fore
SplineSet
756 709 m 1xbf
 833 709 l 1
 282 -20 l 1
 206 -20 l 1
 756 709 l 1xbf
352 701 m 0
 441 701 505 641 505 557 c 0
 505 442 398 337 280 337 c 0
 193 337 129 399 129 482 c 0
 129 595 237 701 352 701 c 0
331 603 m 0
 278 603 229 555 229 501 c 0
 229 463 260 435 302 435 c 0
 357 435 405 483 405 536 c 0
 405 575 374 603 331 603 c 0
750 344 m 0xcf
 839 344 903 284 903 200 c 0
 903 85 796 -20 678 -20 c 0
 591 -20 527 42 527 125 c 0
 527 238 635 344 750 344 c 0xcf
729 246 m 0
 676 246 627 198 627 144 c 0
 627 106 658 78 700 78 c 0
 755 78 803 126 803 179 c 0
 803 218 772 246 729 246 c 0
EndSplineSet
EndChar

StartChar: ampersand
Encoding: 38 38 6
Width: 722
Flags: W
HStem: -23 116<290.5 325.5> 0 20 615 108<429 464>
VStem: 89 137<161 193.5> 246 137<543 570.5 543 576.5> 499 125<582.5 587>
LayerCount: 2
Fore
SplineSet
607 373 m 1xbc
 720 373 l 1
 709 300 661 213 602 160 c 1
 696 0 l 1
 536 0 l 1x5c
 499 60 l 1
 406 -7 364 -23 287 -23 c 0
 162 -23 89 43 89 156 c 0
 89 231 126 297 195 344 c 0
 226 366 249 378 299 401 c 1
 263 453 246 492 246 523 c 0
 246 630 351 723 471 723 c 0
 562 723 624 676 624 606 c 0
 624 559 604 508 571 471 c 0
 549 446 519 424 465 392 c 1
 547 255 l 1
 581 286 596 316 607 373 c 1xbc
347 319 m 1xbc
 295 290 l 2
 245 262 226 233 226 187 c 0
 226 135 266 93 315 93 c 0
 349 93 379 106 446 152 c 1
 347 319 l 1xbc
419 470 m 1
 471 497 499 533 499 574 c 0
 499 600 480 615 448 615 c 0
 410 615 383 589 383 552 c 0
 383 534 387 525 419 470 c 1
EndSplineSet
EndChar

StartChar: quoteright
Encoding: 8217 8217 7
Width: 278
Flags: MW
HStem: 604 125<220 274 193 356>
LayerCount: 2
Fore
SplineSet
220 729 m 1
 356 729 l 1
 333 620 l 1
 321 532 259 476 165 469 c 1
 175 515 l 1
 233 525 265 554 274 604 c 1
 193 604 l 1
 220 729 l 1
EndSplineSet
EndChar

StartChar: parenleft
Encoding: 40 40 8
Width: 333
Flags: MW
HStem: 709 20<358 458 458 458>
VStem: 84 119<73 178.5 66 223.5>
LayerCount: 2
Fore
SplineSet
358 729 m 1
 458 729 l 1
 387 632 350 577 315 513 c 0
 240 377 203 245 203 112 c 0
 203 20 217 -55 261 -200 c 1
 161 -200 l 1
 109 -82 84 24 84 122 c 0
 84 325 167 509 358 729 c 1
EndSplineSet
EndChar

StartChar: parenright
Encoding: 41 41 9
Width: 333
Flags: MW
HStem: 709 20<176 276 276 276>
VStem: 237 119<350 455.5 337 463>
LayerCount: 2
Fore
SplineSet
79 -200 m 1
 -21 -200 l 1
 56 -96 88 -48 124 16 c 0
 200 152 237 284 237 416 c 0
 237 510 223 581 176 729 c 1
 276 729 l 1
 331 607 356 505 356 406 c 0
 356 268 311 123 226 -9 c 0
 190 -64 136 -134 79 -200 c 1
EndSplineSet
EndChar

StartChar: asterisk
Encoding: 42 42 10
Width: 389
Flags: MW
HStem: 709 20<307 379 379 379>
LayerCount: 2
Fore
SplineSet
246 544 m 1
 145 580 l 1
 182 649 l 1
 283 613 l 1
 307 729 l 1
 379 729 l 1
 354 613 l 1
 471 649 l 1
 478 579 l 1
 362 544 l 1
 409 450 l 1
 342 407 l 1
 295 501 l 1
 208 407 l 1
 159 450 l 1
 246 544 l 1
EndSplineSet
EndChar

StartChar: plus
Encoding: 43 43 11
Width: 584
Flags: MW
HStem: -10 20 172 120<112 269 87 294 413 571 112 388>
LayerCount: 2
Fore
SplineSet
596 292 m 1
 571 172 l 1
 388 172 l 1
 349 -10 l 1
 230 -10 l 1
 269 172 l 1
 87 172 l 1
 112 292 l 1
 294 292 l 1
 333 473 l 1
 452 473 l 1
 413 292 l 1
 596 292 l 1
EndSplineSet
EndChar

StartChar: comma
Encoding: 44 44 12
Width: 278
Flags: MW
HStem: 0 146<95 150 64 245>
LayerCount: 2
Fore
SplineSet
95 146 m 1
 245 146 l 1
 216 9 l 1
 197 -101 137 -158 27 -174 c 1
 39 -118 l 1
 101 -107 137 -68 150 0 c 1
 64 0 l 1
 95 146 l 1
EndSplineSet
EndChar

StartChar: hyphen
Encoding: 45 45 13
Width: 333
Flags: MW
HStem: 207 135<99 342 70 371>
LayerCount: 2
Fore
SplineSet
371 342 m 1
 342 207 l 1
 70 207 l 1
 99 342 l 1
 371 342 l 1
EndSplineSet
EndChar

StartChar: period
Encoding: 46 46 14
Width: 278
Flags: MW
HStem: 0 146<95 214 64 245>
LayerCount: 2
Fore
SplineSet
245 146 m 1
 214 0 l 1
 64 0 l 1
 95 146 l 1
 245 146 l 1
EndSplineSet
EndChar

StartChar: slash
Encoding: 47 47 15
Width: 278
Flags: MW
HStem: -14 20
LayerCount: 2
Fore
SplineSet
360 714 m 1
 427 714 l 1
 66 -14 l 1
 -1 -14 l 1
 360 714 l 1
EndSplineSet
EndChar

StartChar: zero
Encoding: 48 48 16
Width: 556
Flags: MW
HStem: -23 122<277 329> 612 112<376.5 417.5>
VStem: 81 143<157.5 227> 471 143<497 553.5>
LayerCount: 2
Fore
SplineSet
421 724 m 0
 542 724 614 650 614 526 c 0
 614 424 576 251 534 160 c 0
 479 41 387 -23 271 -23 c 0
 153 -23 81 52 81 176 c 0
 81 278 119 449 161 541 c 0
 216 659 308 724 421 724 c 0
394 612 m 0
 359 612 330 593 306 555 c 0
 273 502 224 280 224 183 c 0
 224 132 254 99 300 99 c 0
 359 99 393 138 421 237 c 0
 448 332 471 466 471 528 c 0
 471 579 441 612 394 612 c 0
EndSplineSet
EndChar

StartChar: one
Encoding: 49 49 17
Width: 556
Flags: MW
HStem: 0 20
LayerCount: 2
Fore
SplineSet
342 489 m 1
 172 489 l 1
 192 582 l 1
 314 582 396 625 436 709 c 1
 529 709 l 1
 378 0 l 1
 238 0 l 1
 342 489 l 1
EndSplineSet
EndChar

StartChar: two
Encoding: 50 50 18
Width: 556
Flags: MW
HStem: 0 125<238 512> 612 112<365 426.5>
VStem: 485 143<520.5 557>
LayerCount: 2
Fore
SplineSet
538 125 m 1
 512 0 l 1
 30 0 l 1
 65 132 114 194 253 277 c 1
 368 349 400 371 431 404 c 0
 465 439 485 485 485 532 c 0
 485 582 453 612 400 612 c 0
 330 612 285 559 272 462 c 1
 138 462 l 1
 164 630 265 724 421 724 c 0
 551 724 628 660 628 552 c 0
 628 489 605 428 563 378 c 0
 531 340 494 311 411 259 c 0
 293 184 263 162 238 125 c 1
 538 125 l 1
EndSplineSet
EndChar

StartChar: three
Encoding: 51 51 19
Width: 556
Flags: W
HStem: -23 122<271.5 321 271.5 321> 612 112<370 411>
VStem: 422 143<225 251> 465 148<533.5 563>
LayerCount: 2
Fore
SplineSet
284 317 m 1xe0
 304 411 l 1
 315 411 l 2
 406 411 465 462 465 542 c 0
 465 584 434 612 388 612 c 0
 348 612 315 594 296 561 c 0
 286 544 280 525 271 486 c 1
 142 486 l 1
 157 564 175 607 212 647 c 0
 258 698 327 724 413 724 c 0
 540 724 613 669 613 573 c 0xd0
 613 494 573 429 493 380 c 1
 543 350 565 311 565 257 c 0
 565 193 540 122 500 72 c 0
 449 10 370 -23 272 -23 c 0
 142 -23 67 41 67 151 c 0
 67 170 69 186 73 208 c 1
 209 208 l 1
 210 198 l 1
 210 176 l 1
 211 127 243 99 300 99 c 0
 342 99 375 118 400 156 c 0
 414 178 422 205 422 231 c 0
 422 271 401 299 365 310 c 0
 341 317 338 317 284 317 c 1xe0
EndSplineSet
EndChar

StartChar: four
Encoding: 52 52 20
Width: 556
Flags: MW
HStem: 0 20 157 116<182 342 506 555>
LayerCount: 2
Fore
SplineSet
580 273 m 1
 555 157 l 1
 482 157 l 1
 448 0 l 1
 308 0 l 1
 342 157 l 1
 57 157 l 1
 82 275 l 1
 434 709 l 1
 599 709 l 1
 506 273 l 1
 580 273 l 1
366 273 m 1
 431 577 l 1
 182 273 l 1
 366 273 l 1
EndSplineSet
EndChar

StartChar: five
Encoding: 53 53 21
Width: 556
Flags: MW
HStem: -23 122<261 309.5> 367 112<317.5 451> 584 125<318 614 318 318>
VStem: 59 141<143 148> 429 143<265 305.5>
LayerCount: 2
Fore
SplineSet
641 709 m 1
 614 584 l 1
 318 584 l 1
 264 436 l 1
 311 467 348 479 397 479 c 0
 505 479 572 411 572 300 c 0
 572 230 548 158 507 101 c 0
 448 21 360 -23 259 -23 c 0
 138 -23 59 42 59 141 c 0
 59 155 60 165 64 185 c 1
 202 185 l 1
 201 176 200 168 200 162 c 0
 200 124 234 99 288 99 c 0
 369 99 429 175 429 276 c 0
 429 335 397 367 339 367 c 0
 296 367 261 348 238 314 c 1
 112 314 l 1
 258 709 l 1
 641 709 l 1
EndSplineSet
EndChar

StartChar: six
Encoding: 54 54 22
Width: 556
Flags: MW
HStem: -23 122<275.5 327.5> 355 112<315 461.5> 612 112<389.5 438>
VStem: 85 130<162 232> 434 143<264 295>
LayerCount: 2
Fore
SplineSet
624 548 m 1
 494 548 l 1
 485 594 462 612 414 612 c 0
 357 612 320 582 292 512 c 0
 279 480 277 473 260 411 c 1
 310 450 356 467 409 467 c 0
 514 467 577 404 577 300 c 0
 577 228 549 149 503 88 c 0
 450 17 371 -23 284 -23 c 0
 163 -23 85 52 85 171 c 0
 85 293 132 477 185 564 c 0
 250 670 336 724 443 724 c 0
 557 724 625 666 625 571 c 0
 625 566 625 557 624 548 c 1
352 355 m 0
 278 355 215 278 215 188 c 0
 215 136 250 99 301 99 c 0
 374 99 434 176 434 269 c 0
 434 321 402 355 352 355 c 0
EndSplineSet
EndChar

StartChar: seven
Encoding: 55 55 23
Width: 556
Flags: MW
HStem: 0 20 584 125<178 504 151 679>
LayerCount: 2
Fore
SplineSet
679 709 m 1
 656 599 l 1
 648 591 613 555 551 491 c 1
 404 328 326 191 273 0 c 1
 131 0 l 1
 211 242 309 396 504 584 c 1
 151 584 l 1
 178 709 l 1
 679 709 l 1
EndSplineSet
EndChar

StartChar: eight
Encoding: 56 56 24
Width: 556
Flags: W
HStem: -23 122<269.5 317.5> 330 95<337 369.5> 612 112<364 425.5>
VStem: 60 143<156.5 182.5> 156 122<477 531.5 477 557.5> 432 143<219 272.5> 490 130<546 561.5>
LayerCount: 2
Fore
SplineSet
491 386 m 1xea
 552 349 575 313 575 253 c 0
 575 185 542 110 489 58 c 0
 435 6 359 -23 276 -23 c 0
 143 -23 60 46 60 155 c 0xf4
 60 210 82 269 119 313 c 0
 144 342 171 361 221 386 c 1
 174 422 156 451 156 495 c 0
 156 620 277 724 422 724 c 0
 539 724 620 661 620 570 c 0
 620 522 598 473 560 436 c 1
 544 419 525 406 491 386 c 1xea
398 612 m 0
 330 612 278 563 278 500 c 0
 278 454 311 425 363 425 c 0
 434 425 490 476 490 540 c 0
 490 583 453 612 398 612 c 0
342 330 m 0xf4
 264 330 203 264 203 180 c 0
 203 133 242 99 297 99 c 0
 376 99 432 161 432 247 c 0
 432 298 397 330 342 330 c 0xf4
EndSplineSet
EndChar

StartChar: nine
Encoding: 57 57 25
Width: 556
Flags: W
HStem: -23 122<261.5 303> 228 116<312.5 317> 612 112<352 417>
VStem: 68 138<86 154.5> 120 137<404.5 481.5 404.5 493> 481 130<470.5 547.5>
LayerCount: 2
Fore
SplineSet
72 165 m 1xf4
 207 165 l 1
 206 160 206 156 206 153 c 0xf4
 206 121 238 99 285 99 c 0
 335 99 378 129 402 182 c 0
 414 210 425 243 436 291 c 1
 380 243 345 228 289 228 c 0
 184 228 120 294 120 403 c 0xe8
 120 583 249 724 413 724 c 0
 533 724 611 644 611 519 c 0
 611 398 569 241 507 135 c 0
 447 31 358 -23 248 -23 c 0
 141 -23 68 40 68 132 c 0
 68 142 69 150 72 165 c 1xf4
389 612 m 0
 315 612 257 532 257 431 c 0xe8
 257 378 288 344 337 344 c 0
 417 344 481 422 481 519 c 0
 481 576 445 612 389 612 c 0
EndSplineSet
EndChar

StartChar: colon
Encoding: 58 58 26
Width: 333
Flags: MW
HStem: 0 146<144 263 113 294> 374 146<224 343 193 374>
LayerCount: 2
Fore
SplineSet
294 146 m 1
 263 0 l 1
 113 0 l 1
 144 146 l 1
 294 146 l 1
374 520 m 1
 343 374 l 1
 193 374 l 1
 224 520 l 1
 374 520 l 1
EndSplineSet
EndChar

StartChar: semicolon
Encoding: 59 59 27
Width: 333
Flags: MW
HStem: 0 146<144 199 113 294> 374 146<224 343 193 374>
LayerCount: 2
Fore
SplineSet
144 146 m 1
 294 146 l 1
 265 9 l 1
 246 -101 186 -158 76 -174 c 1
 88 -118 l 1
 150 -107 186 -68 199 0 c 1
 113 0 l 1
 144 146 l 1
374 520 m 1
 343 374 l 1
 193 374 l 1
 224 520 l 1
 374 520 l 1
EndSplineSet
EndChar

StartChar: less
Encoding: 60 60 28
Width: 584
Flags: MW
HStem: -10 20
LayerCount: 2
Fore
SplineSet
630 474 m 1
 603 345 l 1
 263 232 l 1
 555 121 l 1
 527 -10 l 1
 77 172 l 1
 103 293 l 1
 630 474 l 1
EndSplineSet
EndChar

StartChar: equal
Encoding: 61 61 29
Width: 584
Flags: MW
HStem: 52 120<86 546 61 571> 292 120<137 597 112 622>
LayerCount: 2
Fore
SplineSet
622 412 m 1
 597 292 l 1
 112 292 l 1
 137 412 l 1
 622 412 l 1
571 172 m 1
 546 52 l 1
 61 52 l 1
 86 172 l 1
 571 172 l 1
EndSplineSet
EndChar

StartChar: greater
Encoding: 62 62 30
Width: 584
Flags: MW
HStem: -10 20
LayerCount: 2
Fore
SplineSet
38 -10 m 1
 65 119 l 1
 405 232 l 1
 113 343 l 1
 141 474 l 1
 591 292 l 1
 565 171 l 1
 38 -10 l 1
EndSplineSet
EndChar

StartChar: question
Encoding: 63 63 31
Width: 611
Flags: MW
HStem: 0 146<268 387 237 418> 620 124<414 465>
VStem: 529 143<539 558.5>
LayerCount: 2
Fore
SplineSet
414 201 m 1
 292 201 l 1
 299 277 338 333 432 399 c 0
 488 438 498 447 513 473 c 0
 523 492 529 512 529 533 c 0
 529 584 492 620 438 620 c 0
 370 620 321 569 304 481 c 1
 168 481 l 1
 187 565 209 614 248 657 c 0
 301 714 371 744 457 744 c 0
 521 744 574 729 609 700 c 1
 649 669 672 619 672 566 c 0
 672 512 652 452 622 413 c 0
 601 386 564 356 505 320 c 0
 437 278 428 267 414 201 c 1
418 146 m 1
 387 0 l 1
 237 0 l 1
 268 146 l 1
 418 146 l 1
EndSplineSet
EndChar

StartChar: at
Encoding: 64 64 32
Width: 975
Flags: W
HStem: -137 83<390 501> 53 83<448 465.5> 56 83<712 745 712 746> 446 72 662 83<588 694>
VStem: 73 100<138.5 241 122.5 246> 301 100<191.5 219> 939 93<394 451>
LayerCount: 2
Fore
SplineSet
750 508 m 1x57
 840 508 l 1
 704 228 l 2
 687 195 685 189 685 174 c 0
 685 152 700 139 724 139 c 0
 766 139 825 179 870 237 c 0
 914 293 939 363 939 425 c 0
 939 477 918 526 876 571 c 0
 817 634 746 662 642 662 c 0
 490 662 360 596 272 475 c 0
 209 389 173 286 173 196 c 0
 173 49 298 -54 476 -54 c 0
 539 -54 593 -44 688 -13 c 1
 700 -92 l 1
 623 -123 549 -137 453 -137 c 0
 327 -137 236 -107 167 -42 c 0
 107 15 73 96 73 181 c 0
 73 311 133 450 235 557 c 0
 349 677 506 745 670 745 c 0
 798 745 896 703 965 618 c 0
 1010 564 1032 505 1032 439 c 0
 1032 348 1002 264 944 193 c 0
 873 106 787 56 705 56 c 0xbf
 649 56 612 80 597 126 c 1
 547 78 493 53 438 53 c 0
 357 53 301 109 301 189 c 0
 301 249 335 324 391 390 c 0
 460 471 547 518 627 518 c 0
 676 518 703 499 723 449 c 1
 750 508 l 1x57
606 446 m 0
 520 451 401 318 401 215 c 0
 401 168 428 136 468 136 c 0x57
 513 136 564 169 608 227 c 0
 647 277 671 335 671 376 c 0
 671 416 646 444 606 446 c 0
EndSplineSet
EndChar

StartChar: A
Encoding: 65 65 33
Width: 722
Flags: MW
HStem: 0 20 147 125<329 518 329 532 260 518> 709 20<433 606 606 606>
LayerCount: 2
Fore
SplineSet
532 147 m 1
 260 147 l 1
 179 0 l 1
 26 0 l 1
 433 729 l 1
 606 729 l 1
 703 0 l 1
 550 0 l 1
 532 147 l 1
518 272 m 1
 483 555 l 1
 329 272 l 1
 518 272 l 1
EndSplineSet
EndChar

StartChar: B
Encoding: 66 66 34
Width: 722
Flags: W
HStem: 0 125<259 410> 314 125<325 477 299 489> 604 125<360 524 360 360>
VStem: 568 148<232.5 268.5> 613 149<536 563.5>
LayerCount: 2
Fore
SplineSet
82 0 m 1xf0
 237 729 l 1
 562 729 l 2
 636 729 686 712 722 676 c 1
 747 649 762 610 762 571 c 0xe8
 762 501 722 438 645 388 c 1
 696 348 716 310 716 255 c 0
 716 195 684 126 635 78 c 0
 579 24 510 0 410 0 c 2
 82 0 l 1xf0
325 439 m 1
 489 439 l 2
 541 439 563 446 585 471 c 0
 603 490 613 517 613 542 c 0
 613 585 586 604 524 604 c 2
 360 604 l 1
 325 439 l 1
259 125 m 1xf0
 437 125 l 2
 494 125 522 137 545 171 c 0
 559 192 568 220 568 245 c 0
 568 292 539 314 477 314 c 2
 299 314 l 1
 259 125 l 1xf0
EndSplineSet
EndChar

StartChar: C
Encoding: 67 67 35
Width: 722
Flags: MW
HStem: -23 128<354.5 451 354.5 473> 613 128<475.5 543>
VStem: 107 149<211.5 299.5>
LayerCount: 2
Fore
SplineSet
789 482 m 1
 648 482 l 1
 648 521 644 540 631 560 c 0
 610 595 570 613 516 613 c 0
 435 613 374 578 327 504 c 0
 282 434 256 347 256 264 c 0
 256 159 306 105 403 105 c 0
 499 105 570 157 599 249 c 1
 742 249 l 1
 698 78 564 -23 382 -23 c 0
 211 -23 107 75 107 235 c 0
 107 364 151 499 221 587 c 1
 303 688 410 741 533 741 c 0
 688 741 793 657 793 532 c 0
 793 520 792 509 789 482 c 1
EndSplineSet
EndChar

StartChar: D
Encoding: 68 68 36
Width: 722
Flags: MW
HStem: 0 125<254 362> 604 125<355 490 355 355>
VStem: 627 149<429.5 514.5>
LayerCount: 2
Fore
SplineSet
77 0 m 1
 232 729 l 1
 517 729 l 2
 698 729 776 654 776 479 c 0
 776 361 736 238 664 140 c 0
 591 39 507 0 362 0 c 2
 77 0 l 1
254 125 m 1
 388 125 l 2
 475 125 524 153 567 228 c 0
 601 287 627 390 627 469 c 0
 627 560 582 604 490 604 c 2
 355 604 l 1
 254 125 l 1
EndSplineSet
EndChar

StartChar: E
Encoding: 69 69 37
Width: 667
Flags: MW
HStem: 0 125<256 624> 314 125<296 671 322 645> 604 125<357 735 357 357>
LayerCount: 2
Fore
SplineSet
296 314 m 1
 256 125 l 1
 651 125 l 1
 624 0 l 1
 79 0 l 1
 234 729 l 1
 762 729 l 1
 735 604 l 1
 357 604 l 1
 322 439 l 1
 671 439 l 1
 645 314 l 1
 296 314 l 1
EndSplineSet
EndChar

StartChar: F
Encoding: 70 70 38
Width: 611
Flags: MW
HStem: 0 20 314 125<291 637 317 610> 604 125<352 714 352 352>
LayerCount: 2
Fore
SplineSet
291 314 m 1
 224 0 l 1
 74 0 l 1
 229 729 l 1
 741 729 l 1
 714 604 l 1
 352 604 l 1
 317 439 l 1
 637 439 l 1
 610 314 l 1
 291 314 l 1
EndSplineSet
EndChar

StartChar: G
Encoding: 71 71 39
Width: 778
Flags: MW
HStem: -23 128<376.5 441.5> 267 125<503 642 476 795> 613 128<485 566.5>
VStem: 107 149<232 319.5 232 320>
LayerCount: 2
Fore
SplineSet
795 392 m 1
 711 -2 l 1
 621 -2 l 1
 628 88 l 1
 554 9 488 -23 395 -23 c 0
 219 -23 107 88 107 262 c 0
 107 378 155 505 233 596 c 0
 315 691 423 741 547 741 c 0
 710 741 819 656 819 529 c 0
 819 521 818 510 817 496 c 1
 679 496 l 1
 671 572 614 613 519 613 c 0
 434 613 366 576 318 501 c 0
 282 446 256 355 256 284 c 0
 256 180 327 105 426 105 c 0
 484 105 543 130 588 175 c 0
 615 201 629 226 642 267 c 1
 476 267 l 1
 503 392 l 1
 795 392 l 1
EndSplineSet
EndChar

StartChar: H
Encoding: 72 72 40
Width: 722
Flags: MW
HStem: 0 20 331 125<315 577 288 603> 709 20<223 373 373 373 661 812 812 812>
LayerCount: 2
Fore
SplineSet
577 331 m 1
 288 331 l 1
 218 0 l 1
 68 0 l 1
 223 729 l 1
 373 729 l 1
 315 456 l 1
 603 456 l 1
 661 729 l 1
 812 729 l 1
 657 0 l 1
 507 0 l 1
 577 331 l 1
EndSplineSet
EndChar

StartChar: I
Encoding: 73 73 41
Width: 278
Flags: MW
HStem: 0 20 709 20<218 368 368 368>
LayerCount: 2
Fore
SplineSet
368 729 m 1
 213 0 l 1
 63 0 l 1
 218 729 l 1
 368 729 l 1
EndSplineSet
EndChar

StartChar: J
Encoding: 74 74 42
Width: 556
Flags: MW
HStem: -23 128<257.5 280.5> 709 20<491 641 641 641>
VStem: 59 152<143 143.5>
LayerCount: 2
Fore
SplineSet
491 729 m 1
 641 729 l 1
 526 190 l 2
 510 113 475 55 426 23 c 0
 383 -5 314 -23 247 -23 c 0
 130 -23 59 36 59 133 c 0
 59 154 61 176 66 198 c 2
 81 270 l 1
 231 270 l 1
 215 193 l 2
 212 181 211 169 211 159 c 0
 211 127 238 105 277 105 c 0
 330 105 365 135 376 190 c 2
 491 729 l 1
EndSplineSet
EndChar

StartChar: K
Encoding: 75 75 43
Width: 722
Flags: MW
HStem: 0 20 709 20<229 379 379 379 665 843 843 843>
LayerCount: 2
Fore
SplineSet
274 234 m 1
 224 0 l 1
 74 0 l 1
 229 729 l 1
 379 729 l 1
 311 409 l 1
 665 729 l 1
 843 729 l 1
 482 410 l 1
 717 0 l 1
 538 0 l 1
 365 314 l 1
 274 234 l 1
EndSplineSet
EndChar

StartChar: L
Encoding: 76 76 44
Width: 611
Flags: MW
HStem: 0 125<257 579> 709 20<235 385 385 385>
LayerCount: 2
Fore
SplineSet
385 729 m 1
 257 125 l 1
 606 125 l 1
 579 0 l 1
 80 0 l 1
 235 729 l 1
 385 729 l 1
EndSplineSet
EndChar

StartChar: M
Encoding: 77 77 45
Width: 833
Flags: MW
HStem: 0 20 709 20<221 438 438 438 712 931 931 931>
LayerCount: 2
Fore
SplineSet
497 0 m 1
 347 0 l 1
 340 619 l 1
 208 0 l 1
 66 0 l 1
 221 729 l 1
 438 729 l 1
 458 169 l 1
 712 729 l 1
 931 729 l 1
 776 0 l 1
 634 0 l 1
 766 619 l 1
 497 0 l 1
EndSplineSet
EndChar

StartChar: N
Encoding: 78 78 46
Width: 722
Flags: MW
HStem: 0 20 709 20<223 373 373 373 674 816 816 816>
LayerCount: 2
Fore
SplineSet
816 729 m 1
 661 0 l 1
 513 0 l 1
 321 523 l 1
 210 0 l 1
 68 0 l 1
 223 729 l 1
 373 729 l 1
 565 214 l 1
 674 729 l 1
 816 729 l 1
EndSplineSet
EndChar

StartChar: O
Encoding: 79 79 47
Width: 778
Flags: MW
HStem: -23 128<368.5 457.5 368.5 459.5> 613 128<480.5 569>
VStem: 106 149<227.5 318.5> 679 149<397.5 492>
LayerCount: 2
Fore
SplineSet
538 741 m 0
 721 741 828 636 828 455 c 0
 828 337 783 215 705 124 c 0
 619 22 524 -23 395 -23 c 0
 217 -23 106 86 106 261 c 0
 106 376 153 502 231 594 c 1
 313 693 414 741 538 741 c 0
519 613 m 0
 442 613 377 577 327 509 c 0
 283 448 255 360 255 282 c 0
 255 173 318 105 419 105 c 0
 496 105 559 139 609 209 c 0
 652 270 679 358 679 437 c 0
 679 547 619 613 519 613 c 0
EndSplineSet
EndChar

StartChar: P
Encoding: 80 80 48
Width: 667
Flags: MW
HStem: 0 20 260 125<281 461 308 461 461 468> 604 125<354 508 354 354>
VStem: 598 149<521.5 548.5>
LayerCount: 2
Fore
SplineSet
281 260 m 1
 226 0 l 1
 76 0 l 1
 231 729 l 1
 539 729 l 2
 606 729 647 718 683 690 c 0
 724 659 747 612 747 560 c 0
 747 483 713 398 659 341 c 0
 605 284 547 260 468 260 c 2
 281 260 l 1
308 385 m 1
 461 385 l 2
 514 385 548 401 573 436 c 0
 587 457 598 495 598 525 c 0
 598 572 562 604 508 604 c 2
 354 604 l 1
 308 385 l 1
EndSplineSet
EndChar

StartChar: Q
Encoding: 81 81 49
Width: 778
Flags: MW
HStem: -23 128<368.5 433> 613 128<480 569.5>
VStem: 109 149<227 320> 682 149<395 491.5>
LayerCount: 2
Fore
SplineSet
686 103 m 1
 750 27 l 1
 657 -54 l 1
 588 27 l 1
 527 -8 469 -23 397 -23 c 0
 220 -23 109 87 109 262 c 0
 109 378 155 504 231 594 c 0
 315 694 414 741 538 741 c 0
 721 741 831 633 831 453 c 0
 831 330 771 185 686 103 c 1
539 278 m 1
 604 200 l 1
 650 258 682 354 682 436 c 0
 682 547 621 613 518 613 c 0
 442 613 379 578 329 508 c 0
 285 447 258 361 258 282 c 0
 258 172 319 105 418 105 c 0
 450 105 481 112 507 124 c 1
 445 197 l 1
 539 278 l 1
EndSplineSet
EndChar

StartChar: R
Encoding: 82 82 50
Width: 722
Flags: W
HStem: 0 20 289 125<291 499 318 463> 604 125<358 526 358 358>
VStem: 510 155<34.5 64.5> 548 148<228 289> 636 149<520 598>
LayerCount: 2
Fore
SplineSet
291 289 m 1xe8
 230 0 l 1
 80 0 l 1
 235 729 l 1
 612 729 l 2
 670 729 710 715 742 683 c 0
 769 656 785 617 785 579 c 0xe4
 785 523 760 460 721 420 c 0
 697 395 671 378 618 352 c 1
 670 335 696 308 696 270 c 0xe8
 696 245 691 210 668 87 c 0
 666 77 665 68 665 61 c 0
 665 47 670 37 683 27 c 1
 677 0 l 1
 518 0 l 1
 512 18 510 28 510 41 c 0xf0
 510 67 517 105 536 173 c 0
 546 210 548 222 548 234 c 0
 548 271 520 289 463 289 c 2
 291 289 l 1xe8
318 414 m 1
 499 414 l 2
 549 414 580 426 606 455 c 0
 625 475 636 506 636 534 c 0
 636 553 628 570 614 583 c 1
 595 598 572 604 526 604 c 2
 358 604 l 1
 318 414 l 1
EndSplineSet
EndChar

StartChar: S
Encoding: 83 83 51
Width: 667
Flags: W
HStem: -23 128<321.5 406> 613 128<424.5 489.5>
VStem: 76 148<166.5 181> 151 149<490 507.5> 538 149<232 239.5> 579 146<527.5 623>
LayerCount: 2
Fore
SplineSet
717 507 m 1xd4
 577 507 l 1
 578 516 579 525 579 530 c 0
 579 584 532 613 447 613 c 0
 356 613 300 573 300 509 c 0xd4
 300 471 327 455 421 436 c 2
 530 414 l 2
 632 394 687 342 687 265 c 0
 687 199 660 126 618 79 c 0
 560 12 467 -23 345 -23 c 0
 248 -23 180 -2 132 42 c 0
 96 75 76 121 76 174 c 0
 76 188 77 198 80 218 c 1
 226 218 l 1
 225 209 224 200 224 195 c 0
 224 138 276 105 367 105 c 0
 471 105 538 148 538 216 c 0xe8
 538 263 509 283 418 301 c 2
 320 321 l 2
 201 345 151 389 151 472 c 0
 151 543 186 618 243 667 c 0
 300 717 376 741 473 741 c 0
 632 741 725 677 725 569 c 0
 725 549 723 535 717 507 c 1xd4
EndSplineSet
EndChar

StartChar: T
Encoding: 84 84 52
Width: 611
Flags: MW
HStem: 0 20 604 125<169 364 142 753 514 726 514 514>
LayerCount: 2
Fore
SplineSet
514 604 m 1
 385 0 l 1
 235 0 l 1
 364 604 l 1
 142 604 l 1
 169 729 l 1
 753 729 l 1
 726 604 l 1
 514 604 l 1
EndSplineSet
EndChar

StartChar: U
Encoding: 85 85 53
Width: 722
Flags: MW
HStem: -23 128<354.5 410> 709 20<231 381 381 381 659 809 809 809>
VStem: 119 152<163 178.5>
LayerCount: 2
Fore
SplineSet
659 729 m 1
 809 729 l 1
 704 235 l 2
 686 152 654 96 597 51 c 0
 536 3 454 -23 366 -23 c 0
 215 -23 119 51 119 167 c 0
 119 190 123 221 130 255 c 2
 231 729 l 1
 381 729 l 1
 276 235 l 2
 273 219 271 205 271 190 c 0
 271 136 316 105 393 105 c 0
 485 105 535 145 554 235 c 2
 659 729 l 1
EndSplineSet
EndChar

StartChar: V
Encoding: 86 86 54
Width: 667
Flags: MW
HStem: 0 20 709 20<179 330 330 330 651 802 802 802>
LayerCount: 2
Fore
SplineSet
400 0 m 1
 273 0 l 1
 179 729 l 1
 330 729 l 1
 375 180 l 1
 651 729 l 1
 802 729 l 1
 400 0 l 1
EndSplineSet
EndChar

StartChar: W
Encoding: 87 87 55
Width: 944
Flags: MW
HStem: 0 20 709 20<168 327 327 327 548 706 706 706 928 1087 1087 1087>
LayerCount: 2
Fore
SplineSet
730 0 m 1
 595 0 l 1
 591 555 l 1
 354 0 l 1
 219 0 l 1
 168 729 l 1
 327 729 l 1
 324 183 l 1
 548 729 l 1
 706 729 l 1
 703 181 l 1
 928 729 l 1
 1087 729 l 1
 730 0 l 1
EndSplineSet
EndChar

StartChar: X
Encoding: 88 88 56
Width: 667
Flags: MW
HStem: 0 20 709 20<187 365 365 365 627 802 802 802>
LayerCount: 2
Fore
SplineSet
499 372 m 1
 655 0 l 1
 476 0 l 1
 386 249 l 1
 197 0 l 1
 22 0 l 1
 332 367 l 1
 187 729 l 1
 365 729 l 1
 444 493 l 1
 627 729 l 1
 802 729 l 1
 499 372 l 1
EndSplineSet
EndChar

StartChar: Y
Encoding: 89 89 57
Width: 667
Flags: MW
HStem: 0 20 709 20<182 349 349 349 638 805 805 805>
LayerCount: 2
Fore
SplineSet
477 270 m 1
 419 0 l 1
 269 0 l 1
 327 270 l 1
 182 729 l 1
 349 729 l 1
 431 414 l 1
 638 729 l 1
 805 729 l 1
 477 270 l 1
EndSplineSet
EndChar

StartChar: Z
Encoding: 90 90 58
Width: 611
Flags: MW
HStem: 0 125<57 57 232 578 30 57> 604 125<185 531 158 733 706 706>
LayerCount: 2
Fore
SplineSet
733 729 m 1
 706 604 l 1
 232 125 l 1
 605 125 l 1
 578 0 l 1
 30 0 l 1
 57 125 l 1
 531 604 l 1
 158 604 l 1
 185 729 l 1
 733 729 l 1
EndSplineSet
EndChar

StartChar: bracketleft
Encoding: 91 91 59
Width: 333
Flags: MW
HStem: -200 100<174 266> 629 100<328 441 328 328>
LayerCount: 2
Fore
SplineSet
463 729 m 1
 441 629 l 1
 328 629 l 1
 174 -100 l 1
 287 -100 l 1
 266 -200 l 1
 23 -200 l 1
 220 729 l 1
 463 729 l 1
EndSplineSet
EndChar

StartChar: backslash
Encoding: 92 92 60
Width: 278
Flags: W
LayerCount: 2
Fore
SplineSet
138 709 m 1
 212 709 l 1
 285 -23 l 1
 210 -23 l 1
 138 709 l 1
EndSplineSet
EndChar

StartChar: bracketright
Encoding: 93 93 61
Width: 333
Flags: MW
HStem: -200 100<-25 110 -3 110 -3 218> 629 100<172 264 151 415>
LayerCount: 2
Fore
SplineSet
-25 -200 m 1
 -3 -100 l 1
 110 -100 l 1
 264 629 l 1
 151 629 l 1
 172 729 l 1
 415 729 l 1
 218 -200 l 1
 -25 -200 l 1
EndSplineSet
EndChar

StartChar: asciicircum
Encoding: 94 94 62
Width: 584
Flags: W
LayerCount: 2
Fore
SplineSet
580 270 m 1
 467 270 l 1
 409 570 l 1
 231 270 l 1
 119 270 l 1
 374 695 l 1
 499 695 l 1
 580 270 l 1
EndSplineSet
EndChar

StartChar: underscore
Encoding: 95 95 63
Width: 556
Flags: MW
HStem: -145 69<-50 535 -65 550>
LayerCount: 2
Fore
SplineSet
550 -76 m 1
 535 -145 l 1
 -65 -145 l 1
 -50 -76 l 1
 550 -76 l 1
EndSplineSet
EndChar

StartChar: quoteleft
Encoding: 8216 8216 64
Width: 278
Flags: MW
HStem: 469 125<248 302 167 329> 709 20<357 357>
LayerCount: 2
Fore
SplineSet
302 469 m 1
 167 469 l 1
 190 578 l 1
 204 665 268 722 357 729 c 1
 347 683 l 1
 289 673 257 644 248 594 c 1
 329 594 l 1
 302 469 l 1
EndSplineSet
EndChar

StartChar: a
Encoding: 97 97 65
Width: 556
Flags: W
HStem: -23 112<178 300> 0 20 437 112<330.5 388.5>
VStem: 50 143<122.5 138> 363 143<22 65> 436 142<383.5 442.5>
LayerCount: 2
Fore
SplineSet
527 17 m 1xa8
 523 0 l 1
 370 0 l 1
 365 11 363 17 363 27 c 0x58
 363 34 363 39 366 54 c 1
 306 -1 257 -23 200 -23 c 0
 156 -23 122 -13 97 8 c 0
 68 32 50 70 50 108 c 0
 50 168 83 229 136 267 c 0
 167 289 204 303 252 311 c 2
 310 320 l 1
 382 330 382 330 402 341 c 0
 422 351 436 373 436 394 c 0xb4
 436 424 414 437 363 437 c 0xa8
 298 437 268 417 251 362 c 1
 120 362 l 1
 148 492 229 549 386 549 c 0
 457 549 505 537 537 511 c 0
 561 492 578 457 578 428 c 0xa4
 578 416 576 401 572 383 c 2
 509 83 l 2
 507 75 506 68 506 62 c 0
 506 47 512 34 527 17 c 1xa8
400 217 m 2x98
 408 255 l 1
 396 248 393 247 382 245 c 0
 378 244 371 243 361 241 c 2
 345 238 l 1
 295 230 l 2
 230 219 193 186 193 139 c 0
 193 106 218 89 266 89 c 0
 334 89 382 135 400 217 c 2x98
EndSplineSet
EndChar

StartChar: b
Encoding: 98 98 66
Width: 611
Flags: W
HStem: -23 112<309.5 379 309.5 420.5> 0 20 437 112<431 436.5> 709 20<214 354 354 354>
VStem: 497 143<258 355.5>
LayerCount: 2
Fore
SplineSet
214 729 m 1x58
 354 729 l 1
 299 470 l 1
 345 524 397 549 465 549 c 0
 571 549 640 467 640 342 c 0
 640 152 498 -23 343 -23 c 0xb8
 275 -23 234 1 211 55 c 1
 199 0 l 1
 59 0 l 1
 214 729 l 1x58
409 437 m 0
 323 437 248 328 248 202 c 0
 248 134 283 89 336 89 c 0
 422 89 497 197 497 319 c 0
 497 392 464 437 409 437 c 0
EndSplineSet
EndChar

StartChar: c
Encoding: 99 99 67
Width: 556
Flags: MW
HStem: -23 112<279 336 279 356> 437 112<351 393.5>
VStem: 77 143<157 219 157 219.5>
LayerCount: 2
Fore
SplineSet
593 338 m 1
 459 338 l 1
 458 377 456 389 448 404 c 1
 435 425 410 437 377 437 c 0
 322 437 285 411 257 352 c 1
 233 304 220 246 220 192 c 0
 220 122 249 89 309 89 c 0
 363 89 396 116 427 187 c 1
 561 187 l 1
 519 53 421 -23 291 -23 c 0
 218 -23 162 -3 126 38 c 0
 95 73 77 122 77 172 c 0
 77 267 119 384 178 454 c 1
 230 518 304 549 398 549 c 0
 465 549 512 532 549 494 c 0
 580 463 597 423 597 381 c 0
 597 371 596 362 593 338 c 1
EndSplineSet
EndChar

StartChar: d
Encoding: 100 100 68
Width: 611
Flags: W
HStem: -23 112<282 285> 0 20 437 112<338.5 406 331.5 407> 709 20<560 700 700 700>
VStem: 79 143<170 226>
LayerCount: 2
Fore
SplineSet
405 0 m 1x78
 417 55 l 1
 371 1 319 -23 251 -23 c 0x88
 146 -23 79 58 79 185 c 0
 79 267 108 357 157 428 c 0
 209 503 291 549 372 549 c 0
 440 549 482 524 505 470 c 1
 560 729 l 1
 700 729 l 1
 545 0 l 1
 405 0 l 1x78
380 437 m 0x68
 297 437 222 327 222 206 c 0
 222 134 255 89 309 89 c 0xa8
 395 89 468 197 468 323 c 0
 468 393 434 437 380 437 c 0x68
EndSplineSet
EndChar

StartChar: e
Encoding: 101 101 69
Width: 556
Flags: MW
HStem: -23 112<273.5 326 273.5 335.5> 226 93<228 448 228 573 210 448> 437 112<341 384.5>
VStem: 64 143<153 186 153 234.5>
LayerCount: 2
Fore
SplineSet
573 226 m 1
 210 226 l 1
 208 201 207 191 207 181 c 0
 207 125 245 89 302 89 c 0
 350 89 394 114 414 152 c 1
 552 152 l 1
 497 40 396 -23 275 -23 c 0
 149 -23 64 61 64 184 c 0
 64 285 110 402 174 469 c 0
 221 518 301 549 379 549 c 0
 452 549 510 525 546 480 c 0
 574 444 591 397 591 351 c 0
 591 313 585 271 573 226 c 1
228 319 m 1
 448 319 l 1
 448 356 448 356 446 366 c 0
 441 409 408 437 361 437 c 0
 321 437 282 418 258 386 c 0
 245 370 237 351 228 319 c 1
EndSplineSet
EndChar

StartChar: f
Encoding: 102 102 70
Width: 333
Flags: MW
HStem: 0 20 436 93<126 183 106 202 342 405> 625 104<387 397 338 405>
LayerCount: 2
Fore
SplineSet
425 529 m 1
 405 436 l 1
 323 436 l 1
 230 0 l 1
 90 0 l 1
 183 436 l 1
 106 436 l 1
 126 529 l 1
 202 529 l 1
 216 594 l 2
 236 687 289 729 387 729 c 0
 407 729 417 729 464 726 c 1
 442 621 l 1
 417 624 410 625 400 625 c 0
 374 625 360 611 354 582 c 2
 342 529 l 1
 425 529 l 1
EndSplineSet
EndChar

StartChar: g
Encoding: 103 103 71
Width: 611
Flags: W
HStem: -218 90<233 294.5 233 318> -23 112<280 285> 437 112<340 407> 520 20<523 656 656 656>
VStem: 26 146<-115.5 -77> 79 143<166 215.5>
LayerCount: 2
Fore
SplineSet
523 540 m 1x14
 656 540 l 1x14
 537 -18 l 2
 510 -146 401 -218 235 -218 c 0
 173 -218 129 -210 92 -192 c 0
 52 -172 26 -135 26 -96 c 0
 26 -88 27 -77 29 -65 c 1
 173 -65 l 1
 172 -77 l 1xe8
 172 -107 208 -128 258 -128 c 0
 331 -128 390 -84 404 -18 c 2
 420 55 l 1
 356 -4 316 -23 254 -23 c 0
 152 -23 79 57 79 167 c 0
 79 264 116 373 174 445 c 0
 226 511 302 549 378 549 c 0xe4
 437 549 478 520 505 457 c 1
 523 540 l 1x14
379 437 m 0x64
 297 437 222 324 222 201 c 0
 222 131 254 89 306 89 c 0
 395 89 471 193 471 315 c 0
 471 389 435 437 379 437 c 0x64
EndSplineSet
EndChar

StartChar: h
Encoding: 104 104 72
Width: 611
Flags: MW
HStem: 0 20 437 112<374.5 527.5> 709 20<222 362 362 362>
VStem: 479 150<354.5 456.5>
LayerCount: 2
Fore
SplineSet
222 729 m 1
 362 729 l 1
 304 458 l 1
 358 521 412 549 484 549 c 0
 571 549 629 496 629 417 c 0
 629 399 627 381 623 362 c 2
 546 0 l 1
 406 0 l 1
 473 313 l 2
 477 335 479 348 479 361 c 0
 479 410 454 437 407 437 c 0
 342 437 289 385 272 304 c 2
 207 0 l 1
 67 0 l 1
 222 729 l 1
EndSplineSet
EndChar

StartChar: i
Encoding: 105 105 73
Width: 278
Flags: MW
HStem: 0 20 520 20<182 322 322 322> 604 125<222 335 195 362>
LayerCount: 2
Fore
SplineSet
322 540 m 1
 207 0 l 1
 67 0 l 1
 182 540 l 1
 322 540 l 1
362 729 m 1
 335 604 l 1
 195 604 l 1
 222 729 l 1
 362 729 l 1
EndSplineSet
EndChar

StartChar: j
Encoding: 106 106 74
Width: 278
Flags: MW
HStem: -218 112<-1 21 -1 59> 520 20<185 325 325 325> 604 125<225 338 198 365>
LayerCount: 2
Fore
SplineSet
365 729 m 1
 338 604 l 1
 198 604 l 1
 225 729 l 1
 365 729 l 1
325 540 m 1
 190 -94 l 2
 172 -181 116 -218 2 -218 c 0
 -17 -218 -29 -217 -43 -213 c 1
 -19 -102 l 1
 -15 -105 -8 -106 6 -106 c 0
 36 -106 50 -94 57 -62 c 2
 185 540 l 1
 325 540 l 1
EndSplineSet
EndChar

StartChar: k
Encoding: 107 107 75
Width: 556
Flags: MW
HStem: 0 20 520 20<492 651 651 651> 709 20<214 354 354 354>
LayerCount: 2
Fore
SplineSet
354 729 m 1
 269 330 l 1
 492 540 l 1
 651 540 l 1
 419 334 l 1
 548 0 l 1
 384 0 l 1
 305 239 l 1
 237 177 l 1
 199 0 l 1
 59 0 l 1
 214 729 l 1
 354 729 l 1
EndSplineSet
EndChar

StartChar: l
Encoding: 108 108 76
Width: 278
Flags: MW
HStem: 0 20 709 20<222 362 362 362>
LayerCount: 2
Fore
SplineSet
362 729 m 1
 207 0 l 1
 67 0 l 1
 222 729 l 1
 362 729 l 1
EndSplineSet
EndChar

StartChar: m
Encoding: 109 109 77
Width: 889
Flags: W
HStem: 0 20 437 112<358 499> 520 20<175 314 314 314>
VStem: 763 148<375 463>
LayerCount: 2
Fore
SplineSet
175 540 m 1xb0
 314 540 l 1x30
 297 459 l 1
 356 525 402 549 468 549 c 0
 530 549 578 517 592 467 c 1
 647 524 701 549 769 549 c 0
 859 549 911 503 911 423 c 0
 911 404 909 392 903 362 c 2
 826 0 l 1
 686 0 l 1
 758 340 l 2
 761 354 763 369 763 381 c 0
 763 417 743 437 705 437 c 0
 642 437 597 396 582 324 c 2
 513 0 l 1
 373 0 l 1
 447 346 l 2
 449 357 450 367 450 379 c 0
 450 414 426 437 387 437 c 0xd0
 329 437 284 394 269 324 c 2
 200 0 l 1
 60 0 l 1
 175 540 l 1xb0
EndSplineSet
EndChar

StartChar: n
Encoding: 110 110 78
Width: 611
Flags: W
HStem: 0 20 437 112<371 526.5> 520 20<178 318 318 318>
VStem: 479 150<355 457>
LayerCount: 2
Fore
SplineSet
178 540 m 1xb0
 318 540 l 1x30
 300 458 l 1
 354 522 408 549 482 549 c 0
 571 549 629 497 629 417 c 0
 629 399 627 381 623 362 c 2
 546 0 l 1
 406 0 l 1
 473 313 l 2
 477 336 479 348 479 362 c 0
 479 411 453 437 405 437 c 0xd0
 337 437 285 387 268 304 c 2
 203 0 l 1
 63 0 l 1
 178 540 l 1xb0
EndSplineSet
EndChar

StartChar: o
Encoding: 111 111 79
Width: 611
Flags: MW
HStem: -23 112<294 350 294 353> 437 112<361 422>
VStem: 82 143<169.5 220> 491 143<305.5 356>
LayerCount: 2
Fore
SplineSet
413 549 m 0
 550 549 634 473 634 349 c 0
 634 262 603 163 555 100 c 0
 494 19 407 -23 299 -23 c 0
 166 -23 82 55 82 177 c 0
 82 263 113 362 161 426 c 0
 220 505 309 549 413 549 c 0
391 437 m 0
 300 437 225 332 225 205 c 0
 225 134 264 89 324 89 c 0
 376 89 422 120 453 176 c 0
 477 218 491 271 491 320 c 0
 491 392 453 437 391 437 c 0
EndSplineSet
EndChar

StartChar: p
Encoding: 112 112 80
Width: 611
Flags: W
HStem: -23 112<309 376.5 307 424.5> 437 112<429.5 433> 520 20<172 312 312 312>
VStem: 494 143<260 358>
LayerCount: 2
Fore
SplineSet
312 540 m 1xb0
 295 460 l 1
 341 520 396 549 463 549 c 0x50
 570 549 637 469 637 342 c 0
 637 142 505 -23 344 -23 c 0
 274 -23 232 4 211 64 c 1
 151 -218 l 1
 11 -218 l 1
 172 540 l 1
 312 540 l 1xb0
406 437 m 0xd0
 320 437 246 328 246 202 c 0
 246 134 281 89 333 89 c 0
 420 89 494 197 494 323 c 0
 494 393 460 437 406 437 c 0xd0
EndSplineSet
EndChar

StartChar: q
Encoding: 113 113 81
Width: 611
Flags: W
HStem: -23 112<277 282.5> 437 112<334 403.5 327.5 404> 520 20<519 659 659 659>
VStem: 72 143<168 224>
LayerCount: 2
Fore
SplineSet
519 540 m 1x30
 659 540 l 1x30
 498 -218 l 1
 358 -218 l 1
 418 64 l 1
 372 6 316 -23 249 -23 c 0
 142 -23 72 57 72 181 c 0
 72 267 102 359 152 430 c 0
 206 505 286 549 369 549 c 0xd0
 438 549 482 520 502 460 c 1
 519 540 l 1x30
377 437 m 0xd0
 291 437 215 327 215 202 c 0
 215 134 250 89 304 89 c 0
 392 89 466 197 466 324 c 0
 466 393 431 437 377 437 c 0xd0
EndSplineSet
EndChar

StartChar: r
Encoding: 114 114 82
Width: 389
Flags: W
HStem: 0 20 410 139<373.5 473> 520 20<178 318 318 318>
LayerCount: 2
Fore
SplineSet
178 540 m 1xa0
 318 540 l 1x20
 295 434 l 1
 342 507 405 549 470 549 c 0
 476 549 479 549 487 548 c 1
 457 406 l 1
 439 409 430 410 415 410 c 0x40
 332 410 282 369 264 287 c 2
 203 0 l 1
 63 0 l 1
 178 540 l 1xa0
EndSplineSet
EndChar

StartChar: s
Encoding: 115 115 83
Width: 556
Flags: W
HStem: -23 112<273.5 337.5 273.5 366> 437 112<347.5 391.5>
VStem: 127 149<316.5 400> 411 148<128 155.5> 452 137<398 401.5>
LayerCount: 2
Fore
SplineSet
584 366 m 1xe8
 449 366 l 1
 451 375 452 379 452 385 c 0xc8
 452 418 419 437 364 437 c 0
 311 437 276 416 276 384 c 0
 276 364 290 354 341 339 c 2
 437 311 l 2
 520 286 559 247 559 187 c 0
 559 59 451 -23 281 -23 c 0
 219 -23 172 -13 133 10 c 0
 89 35 60 82 60 127 c 0
 60 136 61 143 64 157 c 1
 201 157 l 1
 204 112 240 89 307 89 c 0
 368 89 411 112 411 144 c 0xf0
 411 167 398 176 335 196 c 2
 256 221 l 1
 168 250 127 288 127 345 c 0
 127 395 155 452 198 490 c 0
 241 528 308 549 387 549 c 0
 513 549 589 495 589 404 c 0
 589 392 588 384 584 366 c 1xe8
EndSplineSet
EndChar

StartChar: t
Encoding: 116 116 84
Width: 333
Flags: MW
HStem: -23 20 436 93<127 176 107 196 336 394>
VStem: 101 147<35 110>
LayerCount: 2
Fore
SplineSet
414 529 m 1
 394 436 l 1
 316 436 l 1
 254 142 l 2
 250 125 248 112 248 108 c 0
 248 92 262 83 286 83 c 0
 297 83 305 84 319 86 c 1
 299 -12 l 1
 271 -20 247 -23 214 -23 c 0
 141 -23 101 7 101 63 c 0
 101 76 103 90 106 104 c 2
 176 436 l 1
 107 436 l 1
 127 529 l 1
 196 529 l 1
 227 674 l 1
 367 674 l 1
 336 529 l 1
 414 529 l 1
EndSplineSet
EndChar

StartChar: u
Encoding: 117 117 85
Width: 611
Flags: W
HStem: -23 112<190 346.5> 0 20 520 20<174 314 314 314 516 656 656 656>
VStem: 88 150<69 171.5>
LayerCount: 2
Fore
SplineSet
541 0 m 1x70
 401 0 l 1x50
 416 68 l 1
 362 4 308 -23 234 -23 c 0
 146 -23 88 29 88 109 c 0
 88 127 90 145 94 164 c 2
 174 540 l 1
 314 540 l 1
 244 213 l 2
 239 189 238 179 238 164 c 0
 238 114 263 89 314 89 c 0xb0
 379 89 431 141 448 222 c 2
 516 540 l 1
 656 540 l 1
 541 0 l 1x70
EndSplineSet
EndChar

StartChar: v
Encoding: 118 118 86
Width: 556
Flags: MW
HStem: 0 20 520 20<129 277 277 277 503 651 651 651>
LayerCount: 2
Fore
SplineSet
350 0 m 1
 203 0 l 1
 129 540 l 1
 277 540 l 1
 307 145 l 1
 503 540 l 1
 651 540 l 1
 350 0 l 1
EndSplineSet
EndChar

StartChar: w
Encoding: 119 119 87
Width: 778
Flags: MW
HStem: 0 20 520 20<120 265 265 265 429 573 573 573 736 881 881 881>
LayerCount: 2
Fore
SplineSet
617 0 m 1
 472 0 l 1
 468 380 l 1
 302 0 l 1
 157 0 l 1
 120 540 l 1
 265 540 l 1
 270 162 l 1
 429 540 l 1
 573 540 l 1
 573 162 l 1
 736 540 l 1
 881 540 l 1
 617 0 l 1
EndSplineSet
EndChar

StartChar: x
Encoding: 120 120 88
Width: 556
Flags: MW
HStem: 0 20 520 20<138 306 306 306 480 648 648 648>
LayerCount: 2
Fore
SplineSet
411 274 m 1
 534 0 l 1
 366 0 l 1
 307 168 l 1
 184 0 l 1
 16 0 l 1
 249 274 l 1
 138 540 l 1
 306 540 l 1
 357 377 l 1
 480 540 l 1
 648 540 l 1
 411 274 l 1
EndSplineSet
EndChar

StartChar: y
Encoding: 121 121 89
Width: 556
Flags: MW
HStem: -219 111<82 103.5> 0 20 520 20<124 278 278 278 509 653 653 653>
LayerCount: 2
Fore
SplineSet
509 540 m 1
 653 540 l 1
 295 -98 l 2
 259 -163 237 -185 194 -202 c 1
 163 -213 126 -219 81 -219 c 0
 61 -219 50 -218 37 -215 c 1
 60 -106 l 1
 71 -108 76 -108 88 -108 c 0
 157 -108 201 -72 201 -15 c 1
 200 0 l 1
 124 540 l 1
 278 540 l 1
 314 147 l 1
 509 540 l 1
EndSplineSet
EndChar

StartChar: z
Encoding: 122 122 90
Width: 500
Flags: MW
HStem: 0 113<45 45 219 469 21 45> 427 113<154 379 130 575 551 551>
LayerCount: 2
Fore
SplineSet
575 540 m 1
 551 427 l 1
 219 113 l 1
 493 113 l 1
 469 0 l 1
 21 0 l 1
 45 113 l 1
 379 427 l 1
 130 427 l 1
 154 540 l 1
 575 540 l 1
EndSplineSet
EndChar

StartChar: braceleft
Encoding: 123 123 91
Width: 389
Flags: W
HStem: -200 99<169 296 261 275> 630 99<414 451 414 414>
VStem: 101 121<-130 -71> 155 119<195 196>
LayerCount: 2
Fore
SplineSet
472 729 m 1xe0
 451 630 l 1
 414 630 l 1
 376 629 365 618 357 573 c 1
 316 378 l 2
 300 306 268 277 195 269 c 1
 220 265 228 263 240 257 c 0
 261 248 274 227 274 200 c 0xd0
 274 190 272 174 269 159 c 2
 227 -36 l 2
 224 -53 222 -66 222 -76 c 0
 222 -92 236 -101 261 -101 c 2
 296 -101 l 1
 275 -200 l 1
 198 -200 l 2
 140 -200 101 -160 101 -100 c 0xe0
 101 -86 102 -73 105 -60 c 2
 150 150 l 2
 153 165 155 178 155 184 c 0xd0
 155 208 135 222 101 222 c 2
 88 222 l 1
 84 223 l 1
 104 315 l 1
 108 315 l 1
 120 315 l 2
 164 315 190 336 198 378 c 2
 243 589 l 1
 260 677 315 727 396 729 c 1
 472 729 l 1xe0
EndSplineSet
EndChar

StartChar: bar
Encoding: 124 124 92
Width: 280
Flags: MW
HStem: 709 20<255 335 335 335>
LayerCount: 2
Fore
SplineSet
335 729 m 1
 137 -200 l 1
 57 -200 l 1
 255 729 l 1
 335 729 l 1
EndSplineSet
EndChar

StartChar: braceright
Encoding: 125 125 93
Width: 389
Flags: W
HStem: -200 99<29 88 50 88 50 106> 630 99<226 241 205 304>
VStem: 228 119<333 334> 280 121
LayerCount: 2
Fore
SplineSet
29 -200 m 1xd0
 50 -101 l 1
 88 -101 l 1
 126 -100 137 -89 145 -44 c 1
 186 151 l 2
 202 223 234 252 307 260 c 1
 282 264 274 266 262 272 c 0
 241 281 228 302 228 329 c 0xe0
 228 339 230 355 233 370 c 2
 275 565 l 2
 278 582 280 595 280 605 c 0
 280 621 266 630 241 630 c 2
 205 630 l 1
 226 729 l 1
 304 729 l 2
 362 729 401 689 401 629 c 0xd0
 401 615 400 602 397 589 c 2
 352 379 l 2
 349 364 347 351 347 345 c 0xe0
 347 321 367 307 401 307 c 2
 415 307 l 1
 419 306 l 1
 399 214 l 1
 395 214 l 1
 382 214 l 2
 338 214 312 193 304 151 c 2
 259 -60 l 1
 242 -148 187 -198 106 -200 c 1
 29 -200 l 1xd0
EndSplineSet
EndChar

StartChar: asciitilde
Encoding: 126 126 94
Width: 584
Flags: MW
HStem: 265 80<426 456 426 463> 357 80<223 252.5>
LayerCount: 2
Fore
SplineSet
504 411 m 1
 581 411 l 1
 558 316 503 265 423 265 c 0
 390 265 367 273 346 291 c 2
 298 333 l 2
 278 351 263 357 242 357 c 0
 204 357 189 342 175 292 c 1
 97 292 l 1
 123 389 175 437 256 437 c 0
 288 437 312 429 332 412 c 2
 381 370 l 2
 402 351 415 345 437 345 c 0
 475 345 490 360 504 411 c 1
EndSplineSet
EndChar

StartChar: exclamdown
Encoding: 161 161 95
Width: 333
Flags: MW
HStem: 394 146<150 331 181 300>
LayerCount: 2
Fore
SplineSet
26 -186 m 1
 71 24 l 1
 178 333 l 1
 245 333 l 1
 221 24 l 1
 176 -186 l 1
 26 -186 l 1
150 394 m 1
 181 540 l 1
 331 540 l 1
 300 394 l 1
 150 394 l 1
EndSplineSet
EndChar

StartChar: cent
Encoding: 162 162 96
Width: 556
Flags: MW
VStem: 79 143<163.5 214>
LayerCount: 2
Fore
SplineSet
410 435 m 1
 337 89 l 1
 378 99 404 128 428 187 c 1
 562 187 l 1
 526 65 430 -16 313 -22 c 1
 292 -124 l 1
 226 -124 l 1
 248 -20 l 1
 224 -16 207 -12 191 -5 c 0
 123 21 79 92 79 172 c 0
 79 256 113 362 163 433 c 0
 212 503 280 541 368 548 c 1
 387 634 l 1
 453 634 l 1
 434 547 l 1
 458 544 473 541 489 535 c 0
 554 509 598 447 598 381 c 0
 598 371 597 362 594 338 c 1
 460 338 l 1
 460 398 448 423 410 435 c 1
272 93 m 1
 344 435 l 1
 318 428 297 414 282 393 c 0
 246 344 222 263 222 191 c 0
 222 136 235 109 272 93 c 1
EndSplineSet
EndChar

StartChar: sterling
Encoding: 163 163 97
Width: 556
Flags: W
HStem: -23 125<402.5 412.5> 7 112<178.5 289> 316 55<111 171 111 188 99 171 321 443 321 321> 603 112<384.5 433>
VStem: 145 143<489 506.5> 193 130<254.5 268.5> 495 134<530.5 541>
LayerCount: 2
Fore
SplineSet
455 371 m 1x7a
 443 316 l 1
 321 316 l 1
 323 304 323 298 323 291 c 0
 323 218 283 164 172 86 c 1
 237 115 249 119 280 119 c 0x64
 298 119 301 119 345 110 c 0
 371 105 394 102 411 102 c 0
 447 102 480 110 525 131 c 1
 543 22 l 1
 479 -11 437 -23 388 -23 c 0x84
 361 -23 341 -20 292 -8 c 0
 247 3 224 7 197 7 c 0
 160 7 131 0 82 -21 c 1
 49 80 l 1
 153 141 193 191 193 261 c 0x74
 193 276 192 288 188 316 c 1
 99 316 l 1
 111 371 l 1
 171 371 l 1
 149 433 145 450 145 478 c 0
 145 535 175 597 224 642 c 0
 276 690 344 715 425 715 c 0
 560 715 629 655 629 539 c 0
 629 522 628 509 625 484 c 1
 494 484 l 1
 495 495 495 505 495 510 c 0
 495 572 464 603 402 603 c 0
 341 603 288 554 288 496 c 0
 288 482 290 473 300 436 c 0
 309 402 313 386 316 371 c 1
 455 371 l 1x7a
EndSplineSet
EndChar

StartChar: fraction
Encoding: 8260 8260 98
Width: 278
Flags: MW
HStem: -20 20
LayerCount: 2
Fore
SplineSet
459 715 m 1
 544 715 l 1
 -37 -20 l 1
 -122 -20 l 1
 459 715 l 1
EndSplineSet
EndChar

StartChar: yen
Encoding: 165 165 99
Width: 556
Flags: MW
HStem: 0 20 180 60<120 253 107 266 406 537> 292 60<143 277 131 283 435 561>
LayerCount: 2
Fore
SplineSet
574 352 m 1
 561 292 l 1
 417 292 l 1
 406 240 l 1
 550 240 l 1
 537 180 l 1
 393 180 l 1
 355 0 l 1
 215 0 l 1
 253 180 l 1
 107 180 l 1
 120 240 l 1
 266 240 l 1
 277 292 l 1
 131 292 l 1
 143 352 l 1
 283 352 l 1
 155 704 l 1
 294 704 l 1
 379 450 l 1
 566 704 l 1
 702 704 l 1
 435 352 l 1
 574 352 l 1
EndSplineSet
EndChar

StartChar: florin
Encoding: 402 402 100
Width: 556
Flags: MW
HStem: -220 116<72 98 72 120.5> 383 100<207 309 186 345 480 582> 629 115<574.5 602.5>
LayerCount: 2
Fore
SplineSet
603 483 m 1
 582 383 l 1
 445 383 l 1
 305 1 l 2
 249 -153 176 -220 65 -220 c 0
 33 -220 9 -214 -21 -198 c 1
 28 -83 l 1
 45 -96 64 -104 80 -104 c 0
 116 -104 139 -76 170 7 c 2
 309 383 l 1
 186 383 l 1
 207 483 l 1
 345 483 l 1
 368 542 l 2
 422 681 493 744 598 744 c 0
 630 744 650 740 690 727 c 1
 646 613 l 1
 621 626 611 629 594 629 c 0
 555 629 523 595 495 524 c 1
 480 483 l 1
 603 483 l 1
EndSplineSet
EndChar

StartChar: section
Encoding: 167 167 101
Width: 556
Flags: W
HStem: -201 112<237 276> 0 20 621 102<388 421>
VStem: 56 137<-52 -49.5> 89 130<227.5 318.5> 178 148<504 577> 348 148<-36 48> 448 130<256.5 259> 463 133<560 634.5>
LayerCount: 2
Fore
SplineSet
589 544 m 1xe480
 462 544 l 1
 463 551 463 558 463 562 c 0xe880
 463 600 441 621 401 621 c 0
 358 621 326 595 326 559 c 0
 326 537 346 516 397 485 c 2
 509 415 l 2
 557 385 578 350 578 302 c 0
 578 211 540 160 448 126 c 1xe5
 481 99 496 69 496 27 c 0
 496 -20 476 -70 442 -111 c 0
 392 -170 320 -201 232 -201 c 0
 124 -201 56 -146 56 -59 c 0
 56 -40 58 -26 65 0 c 1
 196 0 l 1
 194 -17 193 -24 193 -34 c 0xf2
 193 -70 216 -89 258 -89 c 0
 309 -89 348 -57 348 -15 c 0
 348 12 343 18 293 49 c 1
 143 149 l 2
 109 172 89 208 89 247 c 0xea
 89 291 102 329 128 359 c 0
 149 383 164 395 216 428 c 1
 190 455 178 484 178 524 c 0
 178 571 202 622 243 659 c 0
 287 700 351 723 425 723 c 0
 532 723 596 675 596 594 c 0
 596 580 594 569 589 544 c 1xe480
258 247 m 2
 383 170 l 1
 430 192 448 214 448 247 c 0xe1
 448 271 437 285 402 306 c 2
 275 382 l 1
 237 362 219 336 219 301 c 0
 219 279 229 264 258 247 c 2
EndSplineSet
EndChar

StartChar: currency
Encoding: 164 164 102
Width: 556
Flags: MW
HStem: 147 98<309.5 335.5> 460 98<384 402.5>
VStem: 149 100<304.5 334.5> 463 100<371.5 400>
LayerCount: 2
Fore
SplineSet
501 528 m 1
 590 601 l 1
 644 532 l 1
 553 457 l 1
 560 433 563 417 563 397 c 0
 563 346 543 292 507 246 c 1
 567 170 l 1
 484 102 l 1
 425 177 l 1
 377 153 354 147 317 147 c 0
 279 147 235 160 214 178 c 1
 120 100 l 1
 66 169 l 1
 160 246 l 1
 152 270 149 287 149 309 c 0
 149 360 169 415 204 457 c 1
 142 536 l 1
 225 604 l 1
 286 527 l 1
 321 546 364 558 404 558 c 0
 439 558 476 546 501 528 c 1
377 460 m 0
 305 460 249 404 249 330 c 0
 249 279 284 245 335 245 c 0
 407 245 463 302 463 375 c 0
 463 425 428 460 377 460 c 0
EndSplineSet
EndChar

StartChar: quotesingle
Encoding: 39 39 103
Width: 238
Flags: MW
HStem: 470 259<205 245 190 343>
LayerCount: 2
Fore
SplineSet
343 729 m 1
 315 599 l 1
 245 470 l 1
 190 470 l 1
 177 599 l 1
 205 729 l 1
 343 729 l 1
EndSplineSet
EndChar

StartChar: quotedblleft
Encoding: 8220 8220 104
Width: 500
Flags: MW
HStem: 469 125<252 306 171 333 252 398 479 533> 709 20<361 361 588 588>
LayerCount: 2
Fore
SplineSet
306 469 m 1
 171 469 l 1
 194 578 l 1
 208 665 272 722 361 729 c 1
 351 683 l 1
 293 673 261 644 252 594 c 1
 333 594 l 1
 306 469 l 1
533 469 m 1
 398 469 l 1
 421 578 l 1
 435 665 499 722 588 729 c 1
 578 683 l 1
 520 673 488 644 479 594 c 1
 560 594 l 1
 533 469 l 1
EndSplineSet
EndChar

StartChar: guillemotleft
Encoding: 171 171 105
Width: 556
Flags: W
LayerCount: 2
Fore
SplineSet
135 218 m 1
 159 332 l 1
 358 481 l 1
 333 364 l 1
 213 275 l 1
 295 186 l 1
 271 72 l 1
 135 218 l 1
348 218 m 1
 372 332 l 1
 571 481 l 1
 546 364 l 1
 426 275 l 1
 508 186 l 1
 484 72 l 1
 348 218 l 1
EndSplineSet
EndChar

StartChar: guilsinglleft
Encoding: 8249 8249 106
Width: 333
Flags: W
LayerCount: 2
Fore
SplineSet
128 218 m 1
 152 332 l 1
 351 481 l 1
 326 364 l 1
 206 275 l 1
 288 186 l 1
 264 72 l 1
 128 218 l 1
EndSplineSet
EndChar

StartChar: guilsinglright
Encoding: 8250 8250 107
Width: 333
Flags: W
LayerCount: 2
Fore
SplineSet
319 335 m 1
 295 220 l 1
 96 72 l 1
 121 189 l 1
 241 278 l 1
 159 367 l 1
 183 481 l 1
 319 335 l 1
EndSplineSet
EndChar

StartChar: fi
Encoding: 64257 64257 108
Width: 611
Flags: W
HStem: 0 20 436 93<126 183 106 202 342 405> 520 20<515 655 655 655> 604 125<555 668> 625 104<387 397 338 405>
LayerCount: 2
Fore
SplineSet
425 529 m 1xc8
 405 436 l 1
 323 436 l 1
 230 0 l 1
 90 0 l 1
 183 436 l 1
 106 436 l 1
 126 529 l 1
 202 529 l 1
 216 594 l 2
 236 687 289 729 387 729 c 0
 407 729 417 729 464 726 c 1
 442 621 l 1
 417 624 410 625 400 625 c 0
 374 625 360 611 354 582 c 2
 342 529 l 1
 425 529 l 1xc8
655 540 m 1xb0
 540 0 l 1
 400 0 l 1
 515 540 l 1
 655 540 l 1xb0
695 729 m 1
 668 604 l 1
 528 604 l 1
 555 729 l 1
 695 729 l 1
EndSplineSet
EndChar

StartChar: fl
Encoding: 64258 64258 109
Width: 611
Flags: MW
HStem: 0 20 436 93<126 183 106 202 342 405> 625 104<387 397 338 405>
LayerCount: 2
Fore
SplineSet
425 529 m 1
 405 436 l 1
 323 436 l 1
 230 0 l 1
 90 0 l 1
 183 436 l 1
 106 436 l 1
 126 529 l 1
 202 529 l 1
 216 594 l 2
 236 687 289 729 387 729 c 0
 407 729 417 729 464 726 c 1
 442 621 l 1
 417 624 410 625 400 625 c 0
 374 625 360 611 354 582 c 2
 342 529 l 1
 425 529 l 1
695 729 m 1
 540 0 l 1
 400 0 l 1
 555 729 l 1
 695 729 l 1
EndSplineSet
EndChar

StartChar: endash
Encoding: 8211 8211 110
Width: 556
Flags: MW
HStem: 207 104<57 602 35 624>
LayerCount: 2
Fore
SplineSet
624 311 m 1
 602 207 l 1
 35 207 l 1
 57 311 l 1
 624 311 l 1
EndSplineSet
EndChar

StartChar: dagger
Encoding: 8224 8224 111
Width: 556
Flags: MW
HStem: 369 116<134 288 109 313 447 601 134 422>
LayerCount: 2
Fore
SplineSet
626 485 m 1
 601 369 l 1
 422 369 l 1
 303 -194 l 1
 169 -194 l 1
 288 369 l 1
 109 369 l 1
 134 485 l 1
 313 485 l 1
 361 709 l 1
 494 709 l 1
 447 485 l 1
 626 485 l 1
EndSplineSet
EndChar

StartChar: daggerdbl
Encoding: 8225 8225 112
Width: 556
Flags: MW
HStem: 30 116<60 214 35 238 372 526 60 348> 369 116<132 286 107 310 444 598 132 420>
LayerCount: 2
Fore
SplineSet
623 485 m 1
 598 369 l 1
 420 369 l 1
 372 146 l 1
 551 146 l 1
 526 30 l 1
 348 30 l 1
 300 -194 l 1
 166 -194 l 1
 214 30 l 1
 35 30 l 1
 60 146 l 1
 238 146 l 1
 286 369 l 1
 107 369 l 1
 132 485 l 1
 310 485 l 1
 358 709 l 1
 492 709 l 1
 444 485 l 1
 623 485 l 1
EndSplineSet
EndChar

StartChar: periodcentered
Encoding: 183 183 113
Width: 278
Flags: MW
HStem: 182 100<165 248 143 270>
LayerCount: 2
Fore
SplineSet
270 282 m 1
 248 182 l 1
 143 182 l 1
 165 282 l 1
 270 282 l 1
EndSplineSet
EndChar

StartChar: paragraph
Encoding: 182 182 114
Width: 556
Flags: MW
HStem: 656 73<465 527 465 465 625 669 625 625>
LayerCount: 2
Fore
SplineSet
684 729 m 1
 669 656 l 1
 625 656 l 1
 445 -191 l 1
 347 -191 l 1
 527 656 l 1
 465 656 l 1
 285 -191 l 1
 187 -191 l 1
 284 267 l 1
 184 272 121 337 121 435 c 0
 121 512 153 588 210 649 c 0
 261 703 317 729 382 729 c 2
 684 729 l 1
EndSplineSet
EndChar

StartChar: bullet
Encoding: 8226 8226 115
Width: 350
Flags: W
LayerCount: 2
Fore
SplineSet
258 425 m 0
 320 425 367 380 367 321 c 0
 367 245 295 175 217 175 c 0
 156 175 111 219 111 279 c 0
 111 356 180 425 258 425 c 0
EndSplineSet
EndChar

StartChar: quotesinglbase
Encoding: 8218 8218 116
Width: 278
Flags: MW
HStem: 0 125<92 146 65 228>
LayerCount: 2
Fore
SplineSet
92 125 m 1
 228 125 l 1
 205 16 l 1
 193 -72 131 -128 37 -135 c 1
 47 -89 l 1
 105 -79 137 -50 146 0 c 1
 65 0 l 1
 92 125 l 1
EndSplineSet
EndChar

StartChar: quotedblbase
Encoding: 8222 8222 117
Width: 500
Flags: MW
HStem: 0 125<92 146 65 227 92 300 327 381>
LayerCount: 2
Fore
SplineSet
92 125 m 1
 227 125 l 1
 204 16 l 1
 190 -71 126 -128 37 -135 c 1
 47 -89 l 1
 105 -79 137 -50 146 0 c 1
 65 0 l 1
 92 125 l 1
327 125 m 1
 462 125 l 1
 439 16 l 1
 425 -71 361 -128 272 -135 c 1
 282 -89 l 1
 340 -79 372 -50 381 0 c 1
 300 0 l 1
 327 125 l 1
EndSplineSet
EndChar

StartChar: quotedblright
Encoding: 8221 8221 118
Width: 500
Flags: MW
HStem: 604 125<228 282 201 363 228 433 460 514>
LayerCount: 2
Fore
SplineSet
228 729 m 1
 363 729 l 1
 340 620 l 1
 326 533 262 476 173 469 c 1
 183 515 l 1
 241 525 273 554 282 604 c 1
 201 604 l 1
 228 729 l 1
460 729 m 1
 595 729 l 1
 572 620 l 1
 558 533 494 476 405 469 c 1
 415 515 l 1
 473 525 505 554 514 604 c 1
 433 604 l 1
 460 729 l 1
EndSplineSet
EndChar

StartChar: guillemotright
Encoding: 187 187 119
Width: 556
Flags: W
LayerCount: 2
Fore
SplineSet
326 335 m 1
 302 220 l 1
 103 72 l 1
 128 189 l 1
 248 278 l 1
 166 367 l 1
 190 481 l 1
 326 335 l 1
533 335 m 1
 509 220 l 1
 310 72 l 1
 335 189 l 1
 455 278 l 1
 373 367 l 1
 397 481 l 1
 533 335 l 1
EndSplineSet
EndChar

StartChar: ellipsis
Encoding: 8230 8230 120
Width: 1000
Flags: MW
HStem: 0 146<123 242 92 273 456 575 789 908>
LayerCount: 2
Fore
SplineSet
273 146 m 1
 242 0 l 1
 92 0 l 1
 123 146 l 1
 273 146 l 1
606 146 m 1
 575 0 l 1
 425 0 l 1
 456 146 l 1
 606 146 l 1
939 146 m 1
 908 0 l 1
 758 0 l 1
 789 146 l 1
 939 146 l 1
EndSplineSet
EndChar

StartChar: perthousand
Encoding: 8240 8240 121
Width: 1000
Flags: W
HStem: -21 20 -20 78<470 509.5 470 517 839 878.5> 198 78<489.5 529.5 858.5 898.5> 443 78<257.5 297.5 257.5 305> 661 78<277 316.5>
VStem: 134 80<559.5 597.5 559.5 606.5> 347 80<96.5 134.5 96.5 143.5> 360 80<582.5 621> 572 80<119 157.5> 716 80<96.5 134.5 96.5 143.5> 941 80<119 157.5>
LayerCount: 2
Fore
SplineSet
654 738 m 1xbd
 721 738 l 1
 138 -21 l 1
 72 -21 l 1
 654 738 l 1xbd
316 739 m 0
 388 739 440 690 440 622 c 0
 440 528 353 443 257 443 c 0
 186 443 134 493 134 560 c 0
 134 653 221 739 316 739 c 0
299 661 m 0
 255 661 214 620 214 575 c 0
 214 544 240 521 275 521 c 0
 320 521 360 560 360 605 c 0
 360 637 334 661 299 661 c 0
528 276 m 0
 600 276 652 227 652 159 c 0
 652 65 565 -20 469 -20 c 0
 399 -20 347 30 347 97 c 0x62e0
 347 190 434 276 528 276 c 0
512 198 m 0
 467 198 427 157 427 112 c 0
 427 81 453 58 487 58 c 0
 532 58 572 97 572 141 c 0
 572 174 547 198 512 198 c 0
897 276 m 0
 969 276 1021 227 1021 159 c 0
 1021 65 934 -20 838 -20 c 0
 768 -20 716 30 716 97 c 0
 716 190 803 276 897 276 c 0
881 198 m 0
 836 198 796 157 796 112 c 0
 796 81 822 58 856 58 c 0
 901 58 941 97 941 141 c 0
 941 174 916 198 881 198 c 0
EndSplineSet
EndChar

StartChar: questiondown
Encoding: 191 191 122
Width: 611
Flags: MW
HStem: -204 124<260 310> 394 146<306 487 337 456>
VStem: 52 143<-18.5 -4>
LayerCount: 2
Fore
SplineSet
310 339 m 1
 432 339 l 1
 425 262 386 207 292 141 c 0
 237 103 226 93 211 67 c 0
 201 48 195 27 195 7 c 0
 195 -44 233 -80 287 -80 c 0
 354 -80 404 -28 420 59 c 1
 556 59 l 1
 537 -25 515 -74 476 -117 c 0
 423 -175 353 -204 267 -204 c 0
 135 -204 52 -136 52 -26 c 0
 52 18 66 69 89 108 c 0
 111 144 147 176 219 220 c 0
 287 261 296 273 310 339 c 1
306 394 m 1
 337 540 l 1
 487 540 l 1
 456 394 l 1
 306 394 l 1
EndSplineSet
EndChar

StartChar: grave
Encoding: 96 96 123
Width: 333
Flags: MW
HStem: 607 150<276 294 175 339 276 276>
LayerCount: 2
Fore
SplineSet
175 757 m 1
 294 757 l 1
 339 607 l 1
 276 607 l 1
 175 757 l 1
EndSplineSet
EndChar

StartChar: acute
Encoding: 180 180 124
Width: 333
Flags: W
LayerCount: 2
Fore
SplineSet
475 757 m 1
 317 607 l 1
 247 607 l 1
 349 757 l 1
 475 757 l 1
EndSplineSet
EndChar

StartChar: circumflex
Encoding: 710 710 125
Width: 333
Flags: W
LayerCount: 2
Fore
SplineSet
274 757 m 1
 382 757 l 1
 453 610 l 1
 375 610 l 1
 314 707 l 1
 211 610 l 1
 135 610 l 1
 274 757 l 1
EndSplineSet
EndChar

StartChar: tilde
Encoding: 732 732 126
Width: 333
Flags: W
HStem: 622 71<358.5 403.5> 672 69<213 226> 724 20
LayerCount: 2
Fore
SplineSet
446 744 m 1xa0
 500 744 l 1
 489 704 478 683 459 663 c 0
 434 637 400 622 367 622 c 0xa0
 350 622 329 627 316 633 c 2
 266 658 l 2
 251 665 230 672 222 672 c 0
 204 672 188 657 171 624 c 1
 117 624 l 1
 140 699 184 741 238 741 c 0x40
 263 741 277 738 309 724 c 2
 359 703 l 2
 378 694 380 693 392 693 c 0
 415 693 432 710 446 744 c 1xa0
EndSplineSet
EndChar

StartChar: macron
Encoding: 175 175 127
Width: 333
Flags: MW
HStem: 642 80<167 450 150 467>
LayerCount: 2
Fore
SplineSet
467 722 m 1
 450 642 l 1
 150 642 l 1
 167 722 l 1
 467 722 l 1
EndSplineSet
EndChar

StartChar: breve
Encoding: 728 728 128
Width: 333
Flags: MW
HStem: 611 78<286.5 333.5>
VStem: 188 48<683 746>
LayerCount: 2
Fore
SplineSet
413 754 m 1
 455 754 l 1
 441 672 373 611 294 611 c 0
 230 611 188 652 188 714 c 0
 188 727 189 737 194 754 c 1
 236 754 l 1
 236 746 l 2
 236 710 263 689 310 689 c 0
 361 689 396 711 413 754 c 1
EndSplineSet
EndChar

StartChar: dotaccent
Encoding: 729 729 129
Width: 333
Flags: MW
HStem: 621 120<267 351 241 377>
LayerCount: 2
Fore
SplineSet
377 741 m 1
 351 621 l 1
 241 621 l 1
 267 741 l 1
 377 741 l 1
EndSplineSet
EndChar

StartChar: dieresis
Encoding: 168 168 130
Width: 333
Flags: MW
HStem: 621 120<173 257 147 283 173 333 359 443>
LayerCount: 2
Fore
SplineSet
283 741 m 1
 257 621 l 1
 147 621 l 1
 173 741 l 1
 283 741 l 1
469 741 m 1
 443 621 l 1
 333 621 l 1
 359 741 l 1
 469 741 l 1
EndSplineSet
EndChar

StartChar: ring
Encoding: 730 730 131
Width: 333
Flags: MW
HStem: 593 50<287 310.5 287 315> 723 50<302.5 325.5>
VStem: 214 49<666 687.5 666 692.5> 349 49<679.5 701>
LayerCount: 2
Fore
SplineSet
326 773 m 0
 368 773 398 743 398 702 c 0
 398 645 344 593 286 593 c 0
 244 593 214 623 214 664 c 0
 214 721 268 773 326 773 c 0
316 723 m 0
 289 723 263 700 263 675 c 0
 263 657 277 643 297 643 c 0
 324 643 349 667 349 692 c 0
 349 710 335 723 316 723 c 0
EndSplineSet
EndChar

StartChar: cedilla
Encoding: 184 184 132
Width: 333
Flags: MW
HStem: -220 50<101 134 101 165.5> 0 20
VStem: 183 87<-138.5 -116>
LayerCount: 2
Fore
SplineSet
154 0 m 1
 204 0 l 1
 163 -62 l 1
 179 -58 191 -56 206 -56 c 0
 246 -56 270 -77 270 -113 c 0
 270 -178 211 -220 120 -220 c 0
 75 -220 44 -213 -13 -191 c 1
 17 -140 l 1
 65 -163 87 -170 115 -170 c 0
 153 -170 183 -151 183 -126 c 0
 183 -106 165 -93 139 -93 c 0
 122 -93 110 -96 86 -106 c 1
 154 0 l 1
EndSplineSet
EndChar

StartChar: hungarumlaut
Encoding: 733 733 133
Width: 333
Flags: W
LayerCount: 2
Fore
SplineSet
310 757 m 1
 152 610 l 1
 82 610 l 1
 184 757 l 1
 310 757 l 1
498 757 m 1
 340 610 l 1
 270 610 l 1
 372 757 l 1
 498 757 l 1
EndSplineSet
EndChar

StartChar: ogonek
Encoding: 731 731 134
Width: 333
Flags: MW
HStem: -233 50<156.5 170> 0 20
VStem: 23 100<-156.5 -136>
LayerCount: 2
Fore
SplineSet
174 0 m 1
 248 0 l 1
 182 -38 176 -42 157 -66 c 0
 134 -95 123 -120 123 -143 c 0
 123 -170 140 -183 173 -183 c 0
 200 -183 223 -180 244 -172 c 1
 234 -224 l 1
 202 -231 183 -233 157 -233 c 0
 74 -233 23 -204 23 -157 c 0
 23 -115 48 -72 90 -43 c 0
 114 -26 133 -17 174 0 c 1
EndSplineSet
EndChar

StartChar: caron
Encoding: 711 711 135
Width: 333
Flags: W
LayerCount: 2
Fore
SplineSet
346 610 m 1
 238 610 l 1
 167 757 l 1
 245 757 l 1
 306 660 l 1
 409 757 l 1
 485 757 l 1
 346 610 l 1
EndSplineSet
EndChar

StartChar: emdash
Encoding: 8212 8212 136
Width: 1000
Flags: MW
HStem: 207 104<59 1048 37 1070>
LayerCount: 2
Fore
SplineSet
1070 311 m 1
 1048 207 l 1
 37 207 l 1
 59 311 l 1
 1070 311 l 1
EndSplineSet
EndChar

StartChar: AE
Encoding: 198 198 137
Width: 1000
Flags: MW
HStem: 0 125<609 968> 152 125<310 464 245 491> 314 125<675 988 649 1014> 604 125<495 561 495 495 711 1078 711 711>
LayerCount: 2
Fore
SplineSet
464 152 m 1
 245 152 l 1
 160 0 l 1
 1 0 l 1
 421 729 l 1
 1104 729 l 1
 1078 604 l 1
 711 604 l 1
 675 439 l 1
 1014 439 l 1
 988 314 l 1
 649 314 l 1
 609 125 l 1
 995 125 l 1
 968 0 l 1
 432 0 l 1
 464 152 l 1
491 277 m 1
 561 604 l 1
 495 604 l 1
 310 277 l 1
 491 277 l 1
EndSplineSet
EndChar

StartChar: ordfeminine
Encoding: 170 170 138
Width: 370
Flags: W
HStem: 262 80<113 380 96 396> 385 68<191.5 283.5> 661 68<302.5 337.5>
VStem: 134 87<473 494.5> 322 86<412 438.5> 366 85<629.5 679.5>
LayerCount: 2
Fore
SplineSet
396 342 m 1xe8
 380 262 l 1
 96 262 l 1
 113 342 l 1
 396 342 l 1xe8
420 409 m 1
 418 399 l 1
 326 399 l 1
 323 405 322 409 322 415 c 0xf8
 322 419 322 421 324 431 c 1
 288 398 257 385 217 385 c 0
 166 385 134 415 134 463 c 0
 134 526 182 575 256 586 c 1
 290 592 l 1
 333 598 333 598 346 604 c 0
 358 610 366 623 366 636 c 0xf4
 366 653 353 661 322 661 c 0xe8
 283 661 265 649 255 617 c 1
 176 617 l 1
 193 692 246 729 337 729 c 0
 409 729 451 702 451 657 c 0xe4
 451 649 450 640 448 629 c 2
 409 449 l 2
 408 445 408 441 408 436 c 0
 408 427 411 420 420 409 c 1
344 529 m 2
 349 552 l 1
 342 549 340 548 333 546 c 0
 331 546 327 545 321 544 c 2
 311 543 l 1
 281 537 l 1
 243 531 221 511 221 483 c 0
 221 463 236 453 263 453 c 0
 304 453 334 481 344 529 c 2
EndSplineSet
EndChar

StartChar: Lslash
Encoding: 321 321 139
Width: 611
Flags: MW
HStem: 0 125<275 597> 709 20<253 403 403 403>
LayerCount: 2
Fore
SplineSet
338 421 m 1
 525 531 l 1
 505 437 l 1
 318 327 l 1
 275 125 l 1
 624 125 l 1
 597 0 l 1
 98 0 l 1
 154 262 l 1
 54 201 l 1
 74 295 l 1
 174 356 l 1
 253 729 l 1
 403 729 l 1
 338 421 l 1
EndSplineSet
EndChar

StartChar: Oslash
Encoding: 216 216 140
Width: 778
Flags: W
HStem: -23 128<393.5 457> 613 128<484.5 549> 729 20<864 864>
VStem: 109 149<268.5 320 268.5 320.5> 683 149<398 450>
LayerCount: 2
Fore
SplineSet
181 56 m 1xb8
 75 -39 l 1
 34 7 l 1
 145 106 l 1
 121 150 109 203 109 263 c 0
 109 378 156 503 234 595 c 0
 317 692 422 741 547 741 c 0xd8
 641 741 713 714 763 659 c 1
 864 749 l 1
 906 704 l 1
 798 607 l 1
 821 560 832 510 832 452 c 0
 832 339 785 215 707 123 c 0
 625 26 519 -23 395 -23 c 0
 302 -23 228 4 181 56 c 1xb8
678 500 m 1
 294 157 l 1
 323 123 366 105 421 105 c 0
 497 105 561 140 611 209 c 0
 656 271 683 357 683 439 c 0
 683 461 682 479 678 500 c 1
264 213 m 1
 650 557 l 1
 620 595 577 613 521 613 c 0
 444 613 379 577 330 509 c 0
 286 447 258 360 258 280 c 0
 258 257 260 236 264 213 c 1
EndSplineSet
EndChar

StartChar: OE
Encoding: 338 338 141
Width: 1000
Flags: W
HStem: -23 128<337.5 359.5> 0 125<652 971> 314 125<692 1017 719 990> 604 125<754 1080 754 754> 613 128<443 510>
VStem: 90 149<220.5 309 220.5 311.5>
LayerCount: 2
Fore
SplineSet
692 314 m 1x34
 652 125 l 1
 997 125 l 1
 971 0 l 1
 481 0 l 1x64
 493 59 l 1
 437 -1 393 -23 326 -23 c 0
 184 -23 90 84 90 245 c 0
 90 378 146 527 229 619 c 0
 303 700 388 741 482 741 c 0x8c
 548 741 588 723 625 677 c 1
 636 729 l 1
 1107 729 l 1
 1080 604 l 1
 754 604 l 1
 719 439 l 1
 1017 439 l 1
 990 314 l 1
 692 314 l 1x34
513 178 m 1x8c
 590 540 l 1
 571 591 538 613 482 613 c 0
 404 613 340 569 293 482 c 0
 258 419 239 344 239 274 c 0
 239 167 292 105 383 105 c 0
 437 105 474 126 513 178 c 1x8c
EndSplineSet
EndChar

StartChar: ordmasculine
Encoding: 186 186 142
Width: 365
Flags: MW
HStem: 262 80<109 393 92 410> 386 63<267.5 301> 661 68<298 343>
VStem: 140 87<498.5 558.5 498.5 570> 384 87<583.5 612>
LayerCount: 2
Fore
SplineSet
410 342 m 1
 393 262 l 1
 92 262 l 1
 109 342 l 1
 410 342 l 1
339 729 m 0
 422 729 471 684 471 610 c 0
 471 557 452 497 423 460 c 0
 386 411 333 386 269 386 c 0
 190 386 140 432 140 506 c 0
 140 634 225 729 339 729 c 0
325 661 m 0
 271 661 227 597 227 520 c 0
 227 477 250 449 285 449 c 0
 339 449 384 513 384 590 c 0
 384 634 361 661 325 661 c 0
EndSplineSet
EndChar

StartChar: ae
Encoding: 230 230 143
Width: 889
Flags: MW
HStem: -23 112<244.5 255.5 607.5 660.5> 226 93<568 784 568 909 547 784> 437 112<347 393 688 726.5>
VStem: 54 143<122.5 137> 784 143<332 346 346 374 332 375>
LayerCount: 2
Fore
SplineSet
750 152 m 1
 888 152 l 1
 835 45 726 -23 606 -23 c 0
 518 -23 453 13 425 77 c 1
 355 2 302 -23 209 -23 c 0
 112 -23 54 25 54 106 c 0
 54 168 86 228 139 266 c 0
 171 289 208 303 256 311 c 2
 313 320 l 1
 385 330 385 330 406 341 c 0
 426 351 440 373 440 394 c 0
 440 424 418 437 368 437 c 0
 303 437 272 417 255 362 c 1
 124 362 l 1
 137 425 154 459 187 488 c 0
 232 528 302 549 392 549 c 0
 470 549 520 534 553 500 c 1
 599 532 658 549 718 549 c 0
 789 549 846 525 882 480 c 0
 910 445 927 397 927 351 c 0
 927 313 921 271 909 226 c 1
 547 226 l 1
 541 200 540 189 540 175 c 0
 540 123 579 89 636 89 c 0
 685 89 730 114 750 152 c 1
404 216 m 2
 412 254 l 1
 400 248 397 247 386 244 c 1
 382 244 375 242 365 241 c 2
 349 238 l 1
 299 230 l 2
 233 219 197 186 197 139 c 0
 197 106 221 89 268 89 c 0
 338 89 386 134 404 216 c 2
784 319 m 1
 784 346 l 2
 784 404 754 437 699 437 c 0
 634 437 589 397 568 319 c 1
 784 319 l 1
EndSplineSet
EndChar

StartChar: dotlessi
Encoding: 305 305 144
Width: 278
Flags: MW
HStem: 0 20 520 20<182 322 322 322>
LayerCount: 2
Fore
SplineSet
322 540 m 1
 207 0 l 1
 67 0 l 1
 182 540 l 1
 322 540 l 1
EndSplineSet
EndChar

StartChar: lslash
Encoding: 322 322 145
Width: 278
Flags: MW
HStem: 0 20 709 20<219 359 359 359>
LayerCount: 2
Fore
SplineSet
296 435 m 1
 372 480 l 1
 355 398 l 1
 279 353 l 1
 204 0 l 1
 64 0 l 1
 126 294 l 1
 50 246 l 1
 67 329 l 1
 143 376 l 1
 219 729 l 1
 359 729 l 1
 296 435 l 1
EndSplineSet
EndChar

StartChar: oslash
Encoding: 248 248 146
Width: 611
Flags: W
HStem: -23 112<311 355> 437 112<368.5 412.5> 537 20<675 675>
VStem: 84 143<203.5 221> 494 142<303.5 322.5>
LayerCount: 2
Fore
SplineSet
135 36 m 1xb8
 46 -38 l 1
 12 2 l 1
 105 80 l 1
 91 111 84 143 84 178 c 0
 84 264 116 363 164 426 c 0
 224 505 314 549 417 549 c 0xd8
 491 549 551 527 590 486 c 1
 675 557 l 1
 709 516 l 1
 618 440 l 1
 630 410 636 380 636 345 c 0
 636 262 603 162 556 100 c 0
 496 21 406 -23 304 -23 c 0
 233 -23 175 -3 135 36 c 1xb8
493 336 m 1
 246 129 l 1
 263 104 294 89 328 89 c 0
 387 89 439 131 469 203 c 0
 485 239 494 283 494 321 c 0
 494 324 494 329 493 336 c 1
228 183 m 1
 478 392 l 1
 460 421 430 437 395 437 c 0
 342 437 296 406 265 350 c 0
 242 309 227 254 227 208 c 0
 227 199 227 194 228 183 c 1
EndSplineSet
EndChar

StartChar: oe
Encoding: 339 339 147
Width: 944
Flags: MW
HStem: -23 112<283 328.5 666.5 719.5> 226 93<627 843 627 968 606 843> 437 112<352 411 740 785>
VStem: 71 143<169.5 219.5> 843 143<332 347 347 374 332 375.5>
LayerCount: 2
Fore
SplineSet
809 152 m 1
 947 152 l 1
 894 45 785 -23 666 -23 c 0
 592 -23 526 6 498 50 c 1
 446 4 369 -23 288 -23 c 0
 154 -23 71 53 71 176 c 0
 71 263 103 362 151 426 c 0
 211 505 301 549 403 549 c 0
 482 549 549 523 583 477 c 1
 629 522 702 549 778 549 c 0
 848 549 905 525 941 480 c 0
 969 444 986 397 986 351 c 0
 986 313 980 271 968 226 c 1
 606 226 l 1
 600 200 599 189 599 174 c 0
 599 124 638 89 695 89 c 0
 744 89 789 114 809 152 c 1
380 437 m 0
 289 437 214 332 214 205 c 0
 214 134 253 89 313 89 c 0
 365 89 411 120 442 176 c 0
 466 218 480 271 480 320 c 0
 480 392 442 437 380 437 c 0
843 319 m 1
 843 347 l 2
 843 404 812 437 758 437 c 0
 694 437 648 396 627 319 c 1
 843 319 l 1
EndSplineSet
EndChar

StartChar: germandbls
Encoding: 223 223 148
Width: 611
Flags: W
HStem: -23 20 0 20 617 112<394 450>
VStem: 487 143<250 283.5> 511 143<543 572.5>
LayerCount: 2
Fore
SplineSet
359 349 m 1xf0
 379 444 l 1
 421 444 449 453 471 471 c 1
 496 490 511 522 511 552 c 0
 511 593 478 617 422 617 c 0
 366 617 332 590 321 537 c 2
 207 0 l 1
 67 0 l 1
 186 558 l 2
 208 662 312 729 452 729 c 0
 574 729 654 671 654 582 c 0xe8
 654 504 607 437 532 411 c 1
 594 397 630 348 630 277 c 0
 630 223 607 153 574 103 c 0
 519 22 439 -23 349 -23 c 0
 330 -23 313 -21 281 -16 c 1
 305 96 l 1
 319 96 l 1
 374 97 402 106 433 133 c 0
 467 163 487 207 487 251 c 0
 487 316 449 349 374 349 c 2
 359 349 l 1xf0
EndSplineSet
EndChar

StartChar: onesuperior
Encoding: 185 185 149
Width: 333
Flags: W
LayerCount: 2
Fore
SplineSet
260 573 m 1
 154 573 l 1
 167 634 l 1
 245 634 295 659 319 709 c 1
 382 709 l 1
 292 284 l 1
 198 284 l 1
 260 573 l 1
EndSplineSet
EndChar

StartChar: logicalnot
Encoding: 172 172 150
Width: 584
Flags: MW
HStem: 256 120<128 488 103 632>
LayerCount: 2
Fore
SplineSet
128 376 m 1
 632 376 l 1
 571 86 l 1
 452 86 l 1
 488 256 l 1
 103 256 l 1
 128 376 l 1
EndSplineSet
EndChar

StartChar: mu
Encoding: 956 956 151
Width: 611
Flags: MW
HStem: -23 122<287.5 319.5> 520 20<173 313 313 313 515 655 655 655>
LayerCount: 2
Fore
SplineSet
146 -220 m 1
 11 -220 l 1
 173 540 l 1
 313 540 l 1
 242 207 l 2
 238 188 235 170 235 161 c 0
 235 123 264 99 311 99 c 0
 378 99 430 139 443 202 c 2
 515 540 l 1
 655 540 l 1
 572 150 l 2
 567 127 565 111 565 100 c 0
 565 85 572 77 586 77 c 0
 593 77 597 78 607 81 c 1
 589 -5 l 1
 563 -18 543 -23 515 -23 c 0
 468 -23 448 -9 432 32 c 1
 384 -9 348 -23 291 -23 c 0
 246 -23 221 -13 196 15 c 1
 146 -220 l 1
EndSplineSet
EndChar

StartChar: trademark
Encoding: 8482 8482 152
Width: 1000
Flags: MW
HStem: 649 80<230 350 213 595 445 578 445 445>
LayerCount: 2
Fore
SplineSet
445 649 m 1
 365 273 l 1
 270 273 l 1
 350 649 l 1
 213 649 l 1
 230 729 l 1
 595 729 l 1
 578 649 l 1
 445 649 l 1
816 273 m 1
 722 273 l 1
 712 622 l 1
 637 273 l 1
 546 273 l 1
 643 729 l 1
 781 729 l 1
 792 378 l 1
 950 729 l 1
 1087 729 l 1
 990 273 l 1
 899 273 l 1
 973 622 l 1
 816 273 l 1
EndSplineSet
EndChar

StartChar: Eth
Encoding: 208 208 153
Width: 722
Flags: MW
HStem: 0 125<254 362> 341 80<90 150 73 166 316 473> 604 125<355 490 355 355>
VStem: 627 149<429.5 514.5>
LayerCount: 2
Fore
SplineSet
150 341 m 1
 73 341 l 1
 90 421 l 1
 166 421 l 1
 232 729 l 1
 517 729 l 2
 698 729 776 654 776 479 c 0
 776 361 736 238 664 140 c 0
 591 39 507 0 362 0 c 2
 77 0 l 1
 150 341 l 1
300 341 m 1
 254 125 l 1
 388 125 l 2
 475 125 524 153 567 228 c 0
 601 287 627 390 627 469 c 0
 627 560 582 604 490 604 c 2
 355 604 l 1
 316 421 l 1
 490 421 l 1
 473 341 l 1
 300 341 l 1
EndSplineSet
EndChar

StartChar: onehalf
Encoding: 189 189 154
Width: 834
Flags: W
HStem: -20 20 0 80<656 823> 362 72<726 763.5>
VStem: 799 93<310 330.5>
LayerCount: 2
Fore
SplineSet
245 573 m 1x30
 139 573 l 1
 152 634 l 1
 230 634 280 659 304 709 c 1
 367 709 l 1
 277 284 l 1
 183 284 l 1
 245 573 l 1x30
727 715 m 1
 812 715 l 1
 231 -20 l 1
 146 -20 l 1xb0
 727 715 l 1
840 80 m 1x70
 823 0 l 1
 517 0 l 1
 538 81 570 120 658 170 c 1
 726 211 748 225 767 244 c 0
 788 264 799 290 799 316 c 0
 799 345 780 362 747 362 c 0
 705 362 679 331 672 273 c 1
 581 273 l 1
 598 377 660 434 760 434 c 0
 843 434 892 395 892 329 c 0
 892 291 878 255 852 224 c 1
 832 202 809 184 758 153 c 0
 689 112 670 98 656 80 c 1
 840 80 l 1x70
EndSplineSet
EndChar

StartChar: plusminus
Encoding: 177 177 155
Width: 584
Flags: MW
HStem: 0 119<75 534 50 559> 332 120<146 303 121 328 447 605 146 422>
LayerCount: 2
Fore
SplineSet
630 452 m 1
 605 332 l 1
 422 332 l 1
 387 170 l 1
 268 170 l 1
 303 332 l 1
 121 332 l 1
 146 452 l 1
 328 452 l 1
 367 633 l 1
 486 633 l 1
 447 452 l 1
 630 452 l 1
559 119 m 1
 534 0 l 1
 50 0 l 1
 75 119 l 1
 559 119 l 1
EndSplineSet
EndChar

StartChar: Thorn
Encoding: 222 222 156
Width: 667
Flags: MW
HStem: 0 20 140 125<256 435 282 435 435 443> 484 125<355 482 329 514> 709 20<231 381 381 381>
VStem: 572 149<401.5 429>
LayerCount: 2
Fore
SplineSet
256 140 m 1
 226 0 l 1
 76 0 l 1
 231 729 l 1
 381 729 l 1
 355 609 l 1
 514 609 l 2
 580 609 621 598 657 570 c 0
 698 539 721 492 721 440 c 0
 721 363 687 278 633 221 c 0
 579 164 522 140 443 140 c 2
 256 140 l 1
282 265 m 1
 435 265 l 2
 488 265 522 281 547 316 c 0
 561 337 572 376 572 405 c 0
 572 453 536 484 482 484 c 2
 329 484 l 1
 282 265 l 1
EndSplineSet
EndChar

StartChar: onequarter
Encoding: 188 188 157
Width: 834
Flags: W
HStem: -20 20 0 20 93 73<595 684 793 823>
LayerCount: 2
Fore
SplineSet
252 573 m 1x20
 146 573 l 1
 159 634 l 1
 237 634 287 659 311 709 c 1
 374 709 l 1
 284 284 l 1
 190 284 l 1
 252 573 l 1x20
737 715 m 1
 822 715 l 1
 241 -20 l 1
 156 -20 l 1xa0
 737 715 l 1
839 166 m 1
 823 93 l 1
 777 93 l 1
 758 0 l 1
 664 0 l 1x60
 684 93 l 1
 507 93 l 1
 523 165 l 1
 740 425 l 1
 848 425 l 1
 793 166 l 1
 839 166 l 1
700 166 m 1
 735 332 l 1
 595 166 l 1
 700 166 l 1
EndSplineSet
EndChar

StartChar: divide
Encoding: 247 247 158
Width: 584
Flags: MW
HStem: 0 20 172 120<102 581 77 606>
LayerCount: 2
Fore
SplineSet
606 292 m 1
 581 172 l 1
 77 172 l 1
 102 292 l 1
 606 292 l 1
318 124 m 0
 348 124 368 103 368 73 c 0
 368 35 331 0 292 0 c 0
 263 0 242 21 242 49 c 0
 242 88 279 124 318 124 c 0
390 462 m 0
 420 462 440 441 440 411 c 0
 440 374 403 338 364 338 c 0
 335 338 314 359 314 387 c 0
 314 426 351 462 390 462 c 0
EndSplineSet
EndChar

StartChar: brokenbar
Encoding: 166 166 159
Width: 280
Flags: MW
HStem: 709 20<255 335 335 335>
LayerCount: 2
Fore
SplineSet
335 729 m 1
 252 340 l 1
 172 340 l 1
 255 729 l 1
 335 729 l 1
220 189 m 1
 137 -200 l 1
 57 -200 l 1
 140 189 l 1
 220 189 l 1
EndSplineSet
EndChar

StartChar: degree
Encoding: 176 176 160
Width: 400
Flags: MW
HStem: 383 63<290.5 339 290.5 356.5> 623 63<291.5 340>
VStem: 164 63<510 558.5 510 576.5> 404 63<510 559.5>
LayerCount: 2
Fore
SplineSet
315 686 m 0
 399 686 467 618 467 535 c 0
 467 450 399 383 314 383 c 0
 232 383 164 452 164 535 c 0
 164 618 232 686 315 686 c 0
316 623 m 0
 267 623 227 583 227 534 c 0
 227 486 267 446 314 446 c 0
 364 446 404 485 404 535 c 0
 404 584 364 623 316 623 c 0
EndSplineSet
EndChar

StartChar: thorn
Encoding: 254 254 161
Width: 611
Flags: MW
HStem: -23 112<309 377 307.5 424.5> 437 112<430.5 433> 709 20<212 352 352 352>
VStem: 494 143<260 358>
LayerCount: 2
Fore
SplineSet
352 729 m 1
 295 460 l 1
 341 520 397 549 464 549 c 0
 570 549 637 469 637 343 c 0
 637 142 505 -23 344 -23 c 0
 274 -23 232 4 211 64 c 1
 151 -218 l 1
 11 -218 l 1
 212 729 l 1
 352 729 l 1
406 437 m 0
 320 437 246 328 246 202 c 0
 246 134 281 89 334 89 c 0
 420 89 494 197 494 323 c 0
 494 393 460 437 406 437 c 0
EndSplineSet
EndChar

StartChar: threequarters
Encoding: 190 190 162
Width: 834
Flags: W
HStem: -20 20 0 20 93 73<601 691 800 830> 271 78<233.5 272 233.5 288.5> 646 72<281.5 314.5>
VStem: 103 93<380.5 383.5> 325 93<402.5 440> 346 100<602 618>
LayerCount: 2
Fore
SplineSet
236 471 m 1xfe
 249 534 l 1
 289 535 306 539 322 553 c 0
 337 566 346 585 346 606 c 0
 346 630 328 646 301 646 c 0
 262 646 245 627 233 571 c 1
 146 571 l 1
 166 673 218 718 318 718 c 0
 399 718 446 684 446 625 c 0xf9
 446 579 422 541 375 512 c 1
 404 494 418 471 418 439 c 0
 418 340 343 271 234 271 c 0
 151 271 103 310 103 378 c 0
 103 389 104 398 107 414 c 1
 198 414 l 1
 196 406 196 402 196 396 c 0
 196 365 215 349 252 349 c 0
 292 349 325 382 325 423 c 0
 325 457 302 472 249 472 c 0
 244 472 241 472 236 471 c 1xfe
757 715 m 1
 842 715 l 1
 261 -20 l 1
 176 -20 l 1
 757 715 l 1
846 166 m 1
 830 93 l 1
 784 93 l 1
 764 0 l 1
 671 0 l 1
 691 93 l 1
 514 93 l 1
 529 165 l 1
 747 425 l 1
 855 425 l 1
 800 166 l 1
 846 166 l 1
707 166 m 1
 741 332 l 1
 601 166 l 1
 707 166 l 1
EndSplineSet
EndChar

StartChar: twosuperior
Encoding: 178 178 163
Width: 333
Flags: MW
HStem: 284 80<207 374> 646 72<276.5 314.5>
VStem: 350 93<594 614.5>
LayerCount: 2
Fore
SplineSet
391 364 m 1
 374 284 l 1
 68 284 l 1
 89 365 121 404 208 454 c 0
 278 495 299 509 318 528 c 0
 338 548 350 574 350 600 c 0
 350 629 331 646 298 646 c 0
 255 646 229 615 223 557 c 1
 132 557 l 1
 148 661 211 718 311 718 c 0
 394 718 443 679 443 613 c 0
 443 575 429 539 403 508 c 1
 383 486 360 468 308 437 c 0
 240 396 220 382 207 364 c 1
 391 364 l 1
EndSplineSet
EndChar

StartChar: registered
Encoding: 174 174 164
Width: 737
Flags: W
HStem: -22 72<307 475.5 307 484.5> 313 81<356 475 373 447> 502 80<396 498 396 396> 671 72<416 584.5>
VStem: 55 80<224.5 392.5 224.5 400.5> 480 100<163.5 182> 500 96<275 315> 553 101<461 481> 757 80<329.5 497.5>
LayerCount: 2
Fore
SplineSet
356 313 m 1xf2
 319 140 l 1
 223 140 l 1
 317 582 l 1
 555 582 l 2
 621 582 654 552 654 493 c 0xf980
 654 429 621 382 557 353 c 1
 585 340 596 326 596 304 c 0xf2
 596 287 593 266 581 195 c 1
 580 182 l 2
 580 173 583 167 592 161 c 1
 587 140 l 1
 485 140 l 1
 481 153 480 159 480 168 c 0xf4
 480 183 486 214 494 247 c 0
 498 264 500 272 500 278 c 0
 500 302 483 313 447 313 c 2
 356 313 l 1xf2
373 394 m 1
 475 394 l 2
 508 394 526 400 537 415 c 0
 546 426 553 450 553 469 c 0
 553 493 538 502 498 502 c 2
 396 502 l 1
 373 394 l 1
530 743 m 0
 708 743 837 615 837 440 c 0
 837 200 608 -22 361 -22 c 0
 184 -22 55 106 55 281 c 0
 55 520 284 743 530 743 c 0
514 671 m 0
 318 671 135 490 135 295 c 0
 135 154 237 50 377 50 c 0
 574 50 757 232 757 427 c 0
 757 568 655 671 514 671 c 0
EndSplineSet
EndChar

StartChar: minus
Encoding: 8722 8722 165
Width: 584
Flags: MW
HStem: 172 120<102 581 77 606>
LayerCount: 2
Fore
SplineSet
606 292 m 1
 581 172 l 1
 77 172 l 1
 102 292 l 1
 606 292 l 1
EndSplineSet
EndChar

StartChar: eth
Encoding: 240 240 166
Width: 611
Flags: MW
HStem: -23 112<314 357> 431 99<361.5 378 327 399> 724 20<305 305>
VStem: 83 144<183.5 227> 491 142<299.5 346>
LayerCount: 2
Fore
SplineSet
355 609 m 1
 258 564 l 1
 217 607 l 1
 305 648 l 1
 279 666 273 670 235 694 c 1
 305 744 l 1
 329 734 342 727 359 717 c 2
 387 701 l 2
 389 699 394 697 400 693 c 1
 504 738 l 1
 547 695 l 1
 454 654 l 1
 584 557 633 473 633 345 c 0
 633 254 605 166 553 97 c 1
 495 18 409 -23 305 -23 c 0
 166 -23 83 52 83 178 c 0
 83 276 121 382 180 449 c 0
 225 500 292 530 362 530 c 0
 394 530 414 524 452 503 c 1
 428 544 393 582 355 609 c 1
387 431 m 0
 336 431 293 403 264 351 c 0
 240 310 227 256 227 206 c 0
 227 161 237 132 259 113 c 1
 278 98 302 89 326 89 c 0
 421 89 491 190 491 326 c 0
 491 366 481 391 458 408 c 0
 438 422 411 431 387 431 c 0
EndSplineSet
EndChar

StartChar: multiply
Encoding: 215 215 167
Width: 584
Flags: W
LayerCount: 2
Fore
SplineSet
516 444 m 1
 582 360 l 1
 425 231 l 1
 526 102 l 1
 424 18 l 1
 323 147 l 1
 168 19 l 1
 102 103 l 1
 257 231 l 1
 156 359 l 1
 258 444 l 1
 359 315 l 1
 516 444 l 1
EndSplineSet
EndChar

StartChar: threesuperior
Encoding: 179 179 168
Width: 333
Flags: W
HStem: 271 78<221.5 260 221.5 276.5> 646 72<269.5 302.5>
VStem: 91 93<380.5 383.5> 313 93<402.5 440> 334 100<602 618>
LayerCount: 2
Fore
SplineSet
224 471 m 1xf0
 237 534 l 1
 277 535 294 539 310 553 c 0
 325 566 334 585 334 606 c 0
 334 630 316 646 289 646 c 0
 250 646 233 627 221 571 c 1
 134 571 l 1
 154 673 206 718 306 718 c 0
 387 718 434 684 434 625 c 0xc8
 434 579 410 541 363 512 c 1
 392 494 406 471 406 439 c 0
 406 340 331 271 222 271 c 0
 139 271 91 310 91 378 c 0
 91 389 92 398 95 414 c 1
 186 414 l 1
 184 406 184 402 184 396 c 0
 184 365 203 349 240 349 c 0
 280 349 313 382 313 423 c 0
 313 457 290 472 237 472 c 0
 232 472 229 472 224 471 c 1xf0
EndSplineSet
EndChar

StartChar: copyright
Encoding: 169 169 169
Width: 737
Flags: MW
HStem: -22 72<306.5 475.5 306.5 484> 128 83<383 439.5 383 447> 509 83<455 504.5> 671 72<415.5 584.5>
VStem: 54 80<224 392.5 224 400.5> 232 93<274.5 325> 757 80<329.5 497.5>
LayerCount: 2
Fore
SplineSet
644 431 m 1
 554 431 l 1
 554 485 531 509 478 509 c 0
 432 509 395 488 366 446 c 1
 341 408 325 354 325 305 c 0
 325 244 355 211 411 211 c 0
 468 211 508 241 526 297 c 1
 618 297 l 1
 590 192 504 128 390 128 c 0
 292 128 232 188 232 287 c 0
 232 363 259 443 302 498 c 0
 350 559 417 592 493 592 c 0
 586 592 647 541 647 464 c 0
 647 455 646 448 644 431 c 1
530 743 m 0
 708 743 837 616 837 440 c 0
 837 200 608 -22 360 -22 c 0
 183 -22 54 106 54 281 c 0
 54 520 283 743 530 743 c 0
514 671 m 0
 317 671 134 490 134 295 c 0
 134 153 236 50 377 50 c 0
 574 50 757 232 757 427 c 0
 757 568 655 671 514 671 c 0
EndSplineSet
EndChar

StartChar: Aacute
Encoding: 193 193 170
Width: 722
Flags: MW
HStem: 0 20 147 125<329 518 329 532 260 518> 709 20<433 606 606 606>
LayerCount: 2
Fore
SplineSet
532 147 m 1
 260 147 l 1
 179 0 l 1
 26 0 l 1
 433 729 l 1
 606 729 l 1
 703 0 l 1
 550 0 l 1
 532 147 l 1
518 272 m 1
 483 555 l 1
 329 272 l 1
 518 272 l 1
714 936 m 1
 556 786 l 1
 486 786 l 1
 588 936 l 1
 714 936 l 1
EndSplineSet
EndChar

StartChar: Acircumflex
Encoding: 194 194 171
Width: 722
Flags: MW
HStem: 0 20 147 125<329 518 329 532 260 518> 709 20<433 606 606 606>
LayerCount: 2
Fore
SplineSet
532 147 m 1
 260 147 l 1
 179 0 l 1
 26 0 l 1
 433 729 l 1
 606 729 l 1
 703 0 l 1
 550 0 l 1
 532 147 l 1
518 272 m 1
 483 555 l 1
 329 272 l 1
 518 272 l 1
511 936 m 1
 619 936 l 1
 690 789 l 1
 612 789 l 1
 551 886 l 1
 448 789 l 1
 372 789 l 1
 511 936 l 1
EndSplineSet
EndChar

StartChar: Adieresis
Encoding: 196 196 172
Width: 722
Flags: MW
HStem: 0 20 147 125<329 518 329 532 260 518> 709 20<433 606 606 606> 800 120<412 496 386 522 412 572 598 682>
LayerCount: 2
Fore
SplineSet
532 147 m 1
 260 147 l 1
 179 0 l 1
 26 0 l 1
 433 729 l 1
 606 729 l 1
 703 0 l 1
 550 0 l 1
 532 147 l 1
518 272 m 1
 483 555 l 1
 329 272 l 1
 518 272 l 1
522 920 m 1
 496 800 l 1
 386 800 l 1
 412 920 l 1
 522 920 l 1
708 920 m 1
 682 800 l 1
 572 800 l 1
 598 920 l 1
 708 920 l 1
EndSplineSet
EndChar

StartChar: Agrave
Encoding: 192 192 173
Width: 722
Flags: MW
HStem: 0 20 147 125<329 518 329 532 260 518> 709 20<433 606 606 606> 786 150<508 526 407 571 508 508>
LayerCount: 2
Fore
SplineSet
532 147 m 1
 260 147 l 1
 179 0 l 1
 26 0 l 1
 433 729 l 1
 606 729 l 1
 703 0 l 1
 550 0 l 1
 532 147 l 1
518 272 m 1
 483 555 l 1
 329 272 l 1
 518 272 l 1
407 936 m 1
 526 936 l 1
 571 786 l 1
 508 786 l 1
 407 936 l 1
EndSplineSet
EndChar

StartChar: Aring
Encoding: 197 197 174
Width: 722
Flags: MW
HStem: 0 20 147 125<329 518 329 532 260 518> 709 20<433 606 606 606> 773 50<526 549.5 526 554> 903 50<541.5 564.5>
VStem: 453 49<846 867.5 846 872.5> 588 49<859.5 881>
LayerCount: 2
Fore
SplineSet
532 147 m 1
 260 147 l 1
 179 0 l 1
 26 0 l 1
 433 729 l 1
 606 729 l 1
 703 0 l 1
 550 0 l 1
 532 147 l 1
518 272 m 1
 483 555 l 1
 329 272 l 1
 518 272 l 1
565 953 m 0
 607 953 637 923 637 882 c 0
 637 825 583 773 525 773 c 0
 483 773 453 803 453 844 c 0
 453 901 507 953 565 953 c 0
555 903 m 0
 528 903 502 880 502 855 c 0
 502 837 516 823 536 823 c 0
 563 823 588 847 588 872 c 0
 588 890 574 903 555 903 c 0
EndSplineSet
EndChar

StartChar: Atilde
Encoding: 195 195 175
Width: 722
Flags: W
HStem: 0 20 147 125<329 518 329 532 260 518> 709 20<433 606 606 606> 801 72<598 642> 852 69<452 465>
LayerCount: 2
Fore
SplineSet
532 147 m 1xf0
 260 147 l 1
 179 0 l 1
 26 0 l 1
 433 729 l 1
 606 729 l 1
 703 0 l 1
 550 0 l 1
 532 147 l 1xf0
518 272 m 1
 483 555 l 1
 329 272 l 1
 518 272 l 1
685 923 m 1
 739 923 l 1
 728 883 717 862 698 842 c 0
 673 816 639 801 606 801 c 0x10
 590 801 568 806 555 812 c 2
 505 837 l 2
 488 846 469 852 461 852 c 0
 443 852 427 837 410 803 c 1
 356 803 l 1
 380 879 422 921 477 921 c 0x08
 503 921 512 919 548 903 c 2
 598 882 l 2
 616 874 619 873 631 873 c 0
 653 873 671 889 685 923 c 1
EndSplineSet
EndChar

StartChar: Ccedilla
Encoding: 199 199 176
Width: 722
Flags: MW
HStem: -220 50<301.5 334.5 301.5 365> -93 198<330 450.5> 613 128<475.5 543>
VStem: 107 149<212 299.5> 383 87<-138.5 -116>
LayerCount: 2
Fore
SplineSet
389 -23 m 1
 363 -63 l 1
 378 -58 390 -56 406 -56 c 0
 446 -56 470 -77 470 -113 c 0
 470 -178 411 -220 319 -220 c 0
 274 -220 244 -214 186 -191 c 1
 216 -140 l 1
 264 -163 287 -170 316 -170 c 0
 353 -170 383 -151 383 -126 c 0
 383 -106 365 -93 339 -93 c 0
 321 -93 309 -96 285 -106 c 1
 340 -22 l 1
 199 -11 107 90 107 235 c 0
 107 364 151 499 222 587 c 0
 303 688 410 741 533 741 c 0
 688 741 793 657 793 531 c 0
 793 519 792 508 789 482 c 1
 648 482 l 1
 648 521 644 540 631 560 c 0
 610 595 570 613 516 613 c 0
 435 613 374 578 327 504 c 0
 282 434 256 347 256 265 c 0
 256 159 305 105 402 105 c 0
 499 105 570 157 599 249 c 1
 742 249 l 1
 701 82 565 -22 389 -23 c 1
EndSplineSet
EndChar

StartChar: Eacute
Encoding: 201 201 177
Width: 667
Flags: MW
HStem: 0 125<256 624> 314 125<296 671 322 645> 604 125<357 735 357 357>
LayerCount: 2
Fore
SplineSet
296 314 m 1
 256 125 l 1
 651 125 l 1
 624 0 l 1
 79 0 l 1
 234 729 l 1
 762 729 l 1
 735 604 l 1
 357 604 l 1
 322 439 l 1
 671 439 l 1
 645 314 l 1
 296 314 l 1
675 936 m 1
 517 786 l 1
 447 786 l 1
 549 936 l 1
 675 936 l 1
EndSplineSet
EndChar

StartChar: Ecircumflex
Encoding: 202 202 178
Width: 667
Flags: MW
HStem: 0 125<256 624> 314 125<296 671 322 645> 604 125<357 735 357 357>
LayerCount: 2
Fore
SplineSet
296 314 m 1
 256 125 l 1
 651 125 l 1
 624 0 l 1
 79 0 l 1
 234 729 l 1
 762 729 l 1
 735 604 l 1
 357 604 l 1
 322 439 l 1
 671 439 l 1
 645 314 l 1
 296 314 l 1
494 936 m 1
 601 936 l 1
 673 789 l 1
 595 789 l 1
 534 886 l 1
 431 789 l 1
 355 789 l 1
 494 936 l 1
EndSplineSet
EndChar

StartChar: Edieresis
Encoding: 203 203 179
Width: 667
Flags: MW
HStem: 0 125<256 624> 314 125<296 671 322 645> 604 125<357 735 357 357> 800 120<392 476 366 502 392 552 578 662>
LayerCount: 2
Fore
SplineSet
296 314 m 1
 256 125 l 1
 651 125 l 1
 624 0 l 1
 79 0 l 1
 234 729 l 1
 762 729 l 1
 735 604 l 1
 357 604 l 1
 322 439 l 1
 671 439 l 1
 645 314 l 1
 296 314 l 1
502 920 m 1
 476 800 l 1
 366 800 l 1
 392 920 l 1
 502 920 l 1
688 920 m 1
 662 800 l 1
 552 800 l 1
 578 920 l 1
 688 920 l 1
EndSplineSet
EndChar

StartChar: Egrave
Encoding: 200 200 180
Width: 667
Flags: MW
HStem: 0 125<256 624> 314 125<296 671 322 645> 604 125<357 735 357 357> 786 150<501 519 400 564 501 501>
LayerCount: 2
Fore
SplineSet
296 314 m 1
 256 125 l 1
 651 125 l 1
 624 0 l 1
 79 0 l 1
 234 729 l 1
 762 729 l 1
 735 604 l 1
 357 604 l 1
 322 439 l 1
 671 439 l 1
 645 314 l 1
 296 314 l 1
400 936 m 1
 519 936 l 1
 564 786 l 1
 501 786 l 1
 400 936 l 1
EndSplineSet
EndChar

StartChar: Iacute
Encoding: 205 205 181
Width: 278
Flags: MW
HStem: 0 20 709 20<218 368 368 368>
LayerCount: 2
Fore
SplineSet
368 729 m 1
 213 0 l 1
 63 0 l 1
 218 729 l 1
 368 729 l 1
489 936 m 1
 331 786 l 1
 261 786 l 1
 363 936 l 1
 489 936 l 1
EndSplineSet
EndChar

StartChar: Icircumflex
Encoding: 206 206 182
Width: 278
Flags: MW
HStem: 0 20 709 20<218 368 368 368>
LayerCount: 2
Fore
SplineSet
368 729 m 1
 213 0 l 1
 63 0 l 1
 218 729 l 1
 368 729 l 1
288 936 m 1
 396 936 l 1
 467 789 l 1
 389 789 l 1
 328 886 l 1
 225 789 l 1
 149 789 l 1
 288 936 l 1
EndSplineSet
EndChar

StartChar: Idieresis
Encoding: 207 207 183
Width: 278
Flags: MW
HStem: 0 20 709 20<218 368 368 368> 800 120<187 271 161 297 187 347 373 457>
LayerCount: 2
Fore
SplineSet
368 729 m 1
 213 0 l 1
 63 0 l 1
 218 729 l 1
 368 729 l 1
297 920 m 1
 271 800 l 1
 161 800 l 1
 187 920 l 1
 297 920 l 1
483 920 m 1
 457 800 l 1
 347 800 l 1
 373 920 l 1
 483 920 l 1
EndSplineSet
EndChar

StartChar: Igrave
Encoding: 204 204 184
Width: 278
Flags: MW
HStem: 0 20 709 20<218 368 368 368> 786 150<282 301 181 345 282 282>
LayerCount: 2
Fore
SplineSet
368 729 m 1
 213 0 l 1
 63 0 l 1
 218 729 l 1
 368 729 l 1
181 936 m 1
 301 936 l 1
 345 786 l 1
 282 786 l 1
 181 936 l 1
EndSplineSet
EndChar

StartChar: Ntilde
Encoding: 209 209 185
Width: 722
Flags: W
HStem: 0 20 709 20<223 373 373 373 674 816 816 816> 801 72<595.5 639.5> 852 69<450 463>
LayerCount: 2
Fore
SplineSet
816 729 m 1xe0
 661 0 l 1
 513 0 l 1
 321 523 l 1
 210 0 l 1
 68 0 l 1
 223 729 l 1
 373 729 l 1
 565 214 l 1
 674 729 l 1
 816 729 l 1xe0
683 923 m 1
 737 923 l 1
 726 883 715 862 696 842 c 0
 671 816 637 801 604 801 c 0x20
 587 801 566 806 553 812 c 2
 503 837 l 2
 486 846 467 852 459 852 c 0
 441 852 425 837 408 803 c 1
 354 803 l 1
 377 879 420 921 475 921 c 0x10
 501 921 510 919 546 903 c 2
 596 882 l 2
 614 874 617 873 628 873 c 0
 651 873 669 889 683 923 c 1
EndSplineSet
EndChar

StartChar: Oacute
Encoding: 211 211 186
Width: 778
Flags: MW
HStem: -23 128<368 457.5 368 459.5> 613 128<480.5 569>
VStem: 106 149<227.5 318.5> 679 149<397.5 492>
LayerCount: 2
Fore
SplineSet
732 936 m 1
 574 786 l 1
 504 786 l 1
 605 936 l 1
 732 936 l 1
538 741 m 0
 722 741 828 636 828 455 c 0
 828 337 783 215 705 124 c 0
 619 22 524 -23 395 -23 c 0
 217 -23 106 86 106 261 c 0
 106 376 153 502 231 595 c 0
 313 693 414 741 538 741 c 0
519 613 m 0
 442 613 377 577 327 509 c 0
 283 448 255 360 255 282 c 0
 255 173 317 105 419 105 c 0
 496 105 559 139 609 210 c 0
 652 270 679 358 679 437 c 0
 679 547 619 613 519 613 c 0
EndSplineSet
EndChar

StartChar: Ocircumflex
Encoding: 212 212 187
Width: 778
Flags: MW
HStem: -23 128<368 457.5 368 459.5> 613 128<480.5 569>
VStem: 106 149<227.5 318.5> 679 149<397.5 492>
LayerCount: 2
Fore
SplineSet
541 936 m 1
 649 936 l 1
 720 789 l 1
 642 789 l 1
 581 886 l 1
 478 789 l 1
 402 789 l 1
 541 936 l 1
538 741 m 0
 722 741 828 636 828 455 c 0
 828 337 783 215 705 124 c 0
 619 22 524 -23 395 -23 c 0
 217 -23 106 86 106 261 c 0
 106 376 153 502 231 595 c 0
 313 693 414 741 538 741 c 0
519 613 m 0
 442 613 377 577 327 509 c 0
 283 448 255 360 255 282 c 0
 255 173 317 105 419 105 c 0
 496 105 559 139 609 210 c 0
 652 270 679 358 679 437 c 0
 679 547 619 613 519 613 c 0
EndSplineSet
EndChar

StartChar: Odieresis
Encoding: 214 214 188
Width: 778
Flags: MW
HStem: -23 128<368 457.5 368 459.5> 613 128<480.5 569> 800 120<440 524 414 550 440 600 626 710>
VStem: 106 149<227.5 318.5> 679 149<397.5 492>
LayerCount: 2
Fore
SplineSet
550 920 m 1
 524 800 l 1
 414 800 l 1
 440 920 l 1
 550 920 l 1
736 920 m 1
 710 800 l 1
 600 800 l 1
 626 920 l 1
 736 920 l 1
538 741 m 0
 722 741 828 636 828 455 c 0
 828 337 783 215 705 124 c 0
 619 22 524 -23 395 -23 c 0
 217 -23 106 86 106 261 c 0
 106 376 153 502 231 595 c 0
 313 693 414 741 538 741 c 0
519 613 m 0
 442 613 377 577 327 509 c 0
 283 448 255 360 255 282 c 0
 255 173 317 105 419 105 c 0
 496 105 559 139 609 210 c 0
 652 270 679 358 679 437 c 0
 679 547 619 613 519 613 c 0
EndSplineSet
EndChar

StartChar: Ograve
Encoding: 210 210 189
Width: 778
Flags: MW
HStem: -23 128<368 457.5 368 459.5> 613 128<480.5 569> 786 150<550 569 450 614 550 550>
VStem: 106 149<227.5 318.5> 679 149<397.5 492>
LayerCount: 2
Fore
SplineSet
450 936 m 1
 569 936 l 1
 614 786 l 1
 550 786 l 1
 450 936 l 1
538 741 m 0
 722 741 828 636 828 455 c 0
 828 337 783 215 705 124 c 0
 619 22 524 -23 395 -23 c 0
 217 -23 106 86 106 261 c 0
 106 376 153 502 231 595 c 0
 313 693 414 741 538 741 c 0
519 613 m 0
 442 613 377 577 327 509 c 0
 283 448 255 360 255 282 c 0
 255 173 317 105 419 105 c 0
 496 105 559 139 609 210 c 0
 652 270 679 358 679 437 c 0
 679 547 619 613 519 613 c 0
EndSplineSet
EndChar

StartChar: Otilde
Encoding: 213 213 190
Width: 778
Flags: W
HStem: -23 128<368 457.5 368 459.5> 613 128<480.5 569> 801 72<627 671.5> 852 69<481 494>
VStem: 106 149<227.5 318.5> 679 149<397.5 492>
LayerCount: 2
Fore
SplineSet
538 741 m 0xec
 722 741 828 636 828 455 c 0
 828 337 783 215 705 124 c 0
 619 22 524 -23 395 -23 c 0
 217 -23 106 86 106 261 c 0
 106 376 153 502 231 595 c 0
 313 693 414 741 538 741 c 0xec
519 613 m 0
 442 613 377 577 327 509 c 0
 283 448 255 360 255 282 c 0
 255 173 317 105 419 105 c 0
 496 105 559 139 609 210 c 0
 652 270 679 358 679 437 c 0
 679 547 619 613 519 613 c 0
714 923 m 1
 769 923 l 1
 757 883 747 862 728 842 c 0
 702 816 668 801 635 801 c 0x2c
 619 801 597 806 585 812 c 2
 534 837 l 2
 517 846 498 852 490 852 c 0
 472 852 456 836 440 803 c 1
 386 803 l 1
 409 879 452 921 507 921 c 0x1c
 533 921 541 919 577 903 c 2
 627 882 l 2
 646 874 649 873 660 873 c 0
 683 873 701 889 714 923 c 1
EndSplineSet
EndChar

StartChar: Scaron
Encoding: 352 352 191
Width: 667
Flags: W
HStem: -23 128<321 406> 613 128<424.5 490>
VStem: 76 148<167 181> 151 149<490 507.5> 538 149<232 239.5> 579 146<527.5 623>
LayerCount: 2
Fore
SplineSet
537 789 m 1xd4
 429 789 l 1
 358 936 l 1
 436 936 l 1
 497 839 l 1
 600 936 l 1
 676 936 l 1
 537 789 l 1xd4
717 507 m 1
 577 507 l 1
 578 516 579 525 579 530 c 0
 579 584 533 613 447 613 c 0
 356 613 300 573 300 509 c 0xd4
 300 471 327 455 421 436 c 2
 530 414 l 2
 632 394 687 342 687 265 c 0
 687 199 660 127 618 79 c 0
 560 12 467 -23 345 -23 c 0
 248 -23 180 -2 132 42 c 0
 96 75 76 121 76 174 c 0
 76 188 77 198 80 218 c 1
 226 218 l 1
 225 209 224 200 224 196 c 0
 224 138 276 105 366 105 c 0
 471 105 538 148 538 216 c 0xe8
 538 263 509 283 418 301 c 2
 320 321 l 2
 201 345 151 389 151 472 c 0
 151 543 186 618 243 667 c 0
 300 717 376 741 473 741 c 0
 632 741 725 677 725 569 c 0
 725 549 723 535 717 507 c 1
EndSplineSet
EndChar

StartChar: Uacute
Encoding: 218 218 192
Width: 722
Flags: MW
HStem: -23 128<354.5 410> 709 20<231 381 381 381 659 809 809 809>
VStem: 119 152<163 179>
LayerCount: 2
Fore
SplineSet
692 936 m 1
 534 786 l 1
 464 786 l 1
 566 936 l 1
 692 936 l 1
659 729 m 1
 809 729 l 1
 704 235 l 2
 686 152 654 96 597 51 c 0
 536 3 454 -23 366 -23 c 0
 214 -23 119 51 119 168 c 0
 119 190 123 220 130 255 c 2
 231 729 l 1
 381 729 l 1
 276 235 l 2
 273 219 271 205 271 190 c 0
 271 136 316 105 393 105 c 0
 485 105 535 145 554 235 c 2
 659 729 l 1
EndSplineSet
EndChar

StartChar: Ucircumflex
Encoding: 219 219 193
Width: 722
Flags: MW
HStem: -23 128<354.5 410> 709 20<231 381 381 381 659 809 809 809>
VStem: 119 152<163 179>
LayerCount: 2
Fore
SplineSet
516 936 m 1
 624 936 l 1
 695 789 l 1
 617 789 l 1
 556 886 l 1
 453 789 l 1
 377 789 l 1
 516 936 l 1
659 729 m 1
 809 729 l 1
 704 235 l 2
 686 152 654 96 597 51 c 0
 536 3 454 -23 366 -23 c 0
 214 -23 119 51 119 168 c 0
 119 190 123 220 130 255 c 2
 231 729 l 1
 381 729 l 1
 276 235 l 2
 273 219 271 205 271 190 c 0
 271 136 316 105 393 105 c 0
 485 105 535 145 554 235 c 2
 659 729 l 1
EndSplineSet
EndChar

StartChar: Udieresis
Encoding: 220 220 194
Width: 722
Flags: MW
HStem: -23 128<354.5 410> 709 20<231 381 381 381 659 809 809 809> 800 120<409 493 383 519 409 569 595 679>
VStem: 119 152<163 179>
LayerCount: 2
Fore
SplineSet
519 920 m 1
 493 800 l 1
 383 800 l 1
 409 920 l 1
 519 920 l 1
705 920 m 1
 679 800 l 1
 569 800 l 1
 595 920 l 1
 705 920 l 1
659 729 m 1
 809 729 l 1
 704 235 l 2
 686 152 654 96 597 51 c 0
 536 3 454 -23 366 -23 c 0
 214 -23 119 51 119 168 c 0
 119 190 123 220 130 255 c 2
 231 729 l 1
 381 729 l 1
 276 235 l 2
 273 219 271 205 271 190 c 0
 271 136 316 105 393 105 c 0
 485 105 535 145 554 235 c 2
 659 729 l 1
EndSplineSet
EndChar

StartChar: Ugrave
Encoding: 217 217 195
Width: 722
Flags: MW
HStem: -23 128<354.5 410> 709 20<231 381 381 381 659 809 809 809> 786 150<531 549 430 594 531 531>
VStem: 119 152<163 179>
LayerCount: 2
Fore
SplineSet
430 936 m 1
 549 936 l 1
 594 786 l 1
 531 786 l 1
 430 936 l 1
659 729 m 1
 809 729 l 1
 704 235 l 2
 686 152 654 96 597 51 c 0
 536 3 454 -23 366 -23 c 0
 214 -23 119 51 119 168 c 0
 119 190 123 220 130 255 c 2
 231 729 l 1
 381 729 l 1
 276 235 l 2
 273 219 271 205 271 190 c 0
 271 136 316 105 393 105 c 0
 485 105 535 145 554 235 c 2
 659 729 l 1
EndSplineSet
EndChar

StartChar: Yacute
Encoding: 221 221 196
Width: 667
Flags: MW
HStem: 0 20 709 20<182 349 349 349 638 805 805 805>
LayerCount: 2
Fore
SplineSet
477 270 m 1
 419 0 l 1
 269 0 l 1
 327 270 l 1
 182 729 l 1
 349 729 l 1
 431 414 l 1
 638 729 l 1
 805 729 l 1
 477 270 l 1
668 936 m 1
 510 786 l 1
 440 786 l 1
 542 936 l 1
 668 936 l 1
EndSplineSet
EndChar

StartChar: Ydieresis
Encoding: 376 376 197
Width: 667
Flags: MW
HStem: 0 20 709 20<182 349 349 349 638 805 805 805> 800 120<385 469 359 495 385 545 571 655>
LayerCount: 2
Fore
SplineSet
477 270 m 1
 419 0 l 1
 269 0 l 1
 327 270 l 1
 182 729 l 1
 349 729 l 1
 431 414 l 1
 638 729 l 1
 805 729 l 1
 477 270 l 1
495 920 m 1
 469 800 l 1
 359 800 l 1
 385 920 l 1
 495 920 l 1
681 920 m 1
 655 800 l 1
 545 800 l 1
 571 920 l 1
 681 920 l 1
EndSplineSet
EndChar

StartChar: Zcaron
Encoding: 381 381 198
Width: 611
Flags: MW
HStem: 0 125<57 57 232 578 30 57> 604 125<185 531 158 733 706 706>
LayerCount: 2
Fore
SplineSet
733 729 m 1
 706 604 l 1
 232 125 l 1
 605 125 l 1
 578 0 l 1
 30 0 l 1
 57 125 l 1
 531 604 l 1
 158 604 l 1
 185 729 l 1
 733 729 l 1
523 789 m 1
 415 789 l 1
 344 936 l 1
 422 936 l 1
 483 839 l 1
 585 936 l 1
 662 936 l 1
 523 789 l 1
EndSplineSet
EndChar

StartChar: aacute
Encoding: 225 225 199
Width: 556
Flags: W
HStem: -23 112<178 300> 0 20 437 112<330.5 388.5>
VStem: 50 143<122.5 138> 363 143<22 65> 436 142<383.5 442.5>
LayerCount: 2
Fore
SplineSet
587 757 m 1xa8
 429 607 l 1
 359 607 l 1
 461 757 l 1
 587 757 l 1xa8
527 17 m 1
 523 0 l 1
 370 0 l 1
 365 11 363 17 363 27 c 0x58
 363 34 363 39 366 54 c 1
 306 -1 257 -23 200 -23 c 0
 156 -23 122 -13 97 8 c 0
 68 32 50 70 50 108 c 0
 50 168 83 229 136 267 c 0
 167 289 204 303 252 311 c 2
 310 320 l 1
 382 330 382 330 402 341 c 0
 422 351 436 373 436 394 c 0xb4
 436 424 414 437 363 437 c 0xa8
 298 437 268 417 251 362 c 1
 120 362 l 1
 148 492 229 549 386 549 c 0
 457 549 505 537 537 511 c 0
 561 492 578 457 578 428 c 0xa4
 578 416 576 401 572 383 c 2
 509 83 l 2
 507 75 506 68 506 62 c 0
 506 47 512 34 527 17 c 1
400 217 m 2x98
 408 255 l 1
 396 248 393 247 382 245 c 0
 378 244 371 243 361 241 c 2
 345 238 l 1
 295 230 l 2
 230 219 193 186 193 139 c 0
 193 106 218 89 266 89 c 0
 334 89 382 135 400 217 c 2x98
EndSplineSet
EndChar

StartChar: acircumflex
Encoding: 226 226 200
Width: 556
Flags: W
HStem: -23 112<178 300> 0 20 437 112<330.5 388.5>
VStem: 50 143<122.5 138> 363 143<22 65> 436 142<383.5 442.5>
LayerCount: 2
Fore
SplineSet
386 757 m 1xa8
 494 757 l 1
 565 610 l 1
 487 610 l 1
 426 707 l 1
 323 610 l 1
 247 610 l 1
 386 757 l 1xa8
527 17 m 1
 523 0 l 1
 370 0 l 1
 365 11 363 17 363 27 c 0x58
 363 34 363 39 366 54 c 1
 306 -1 257 -23 200 -23 c 0
 156 -23 122 -13 97 8 c 0
 68 32 50 70 50 108 c 0
 50 168 83 229 136 267 c 0
 167 289 204 303 252 311 c 2
 310 320 l 1
 382 330 382 330 402 341 c 0
 422 351 436 373 436 394 c 0xb4
 436 424 414 437 363 437 c 0xa8
 298 437 268 417 251 362 c 1
 120 362 l 1
 148 492 229 549 386 549 c 0
 457 549 505 537 537 511 c 0
 561 492 578 457 578 428 c 0xa4
 578 416 576 401 572 383 c 2
 509 83 l 2
 507 75 506 68 506 62 c 0
 506 47 512 34 527 17 c 1
400 217 m 2x98
 408 255 l 1
 396 248 393 247 382 245 c 0
 378 244 371 243 361 241 c 2
 345 238 l 1
 295 230 l 2
 230 219 193 186 193 139 c 0
 193 106 218 89 266 89 c 0
 334 89 382 135 400 217 c 2x98
EndSplineSet
EndChar

StartChar: adieresis
Encoding: 228 228 201
Width: 556
Flags: W
HStem: -23 112<178 300> 0 20 437 112<330.5 388.5> 621 120<285 369 259 395 285 445 471 555>
VStem: 50 143<122.5 138> 363 143<22 65> 436 142<383.5 442.5>
LayerCount: 2
Fore
SplineSet
395 741 m 1xb4
 369 621 l 1
 259 621 l 1
 285 741 l 1
 395 741 l 1xb4
581 741 m 1
 555 621 l 1
 445 621 l 1
 471 741 l 1
 581 741 l 1
527 17 m 1
 523 0 l 1
 370 0 l 1
 365 11 363 17 363 27 c 0x4c
 363 34 363 39 366 54 c 1
 306 -1 257 -23 200 -23 c 0
 156 -23 122 -13 97 8 c 0
 68 32 50 70 50 108 c 0
 50 168 83 229 136 267 c 0
 167 289 204 303 252 311 c 2
 310 320 l 1
 382 330 382 330 402 341 c 0
 422 351 436 373 436 394 c 0xba
 436 424 414 437 363 437 c 0xb4
 298 437 268 417 251 362 c 1
 120 362 l 1
 148 492 229 549 386 549 c 0
 457 549 505 537 537 511 c 0
 561 492 578 457 578 428 c 0xb2
 578 416 576 401 572 383 c 2
 509 83 l 2
 507 75 506 68 506 62 c 0
 506 47 512 34 527 17 c 1
400 217 m 2x8c
 408 255 l 1
 396 248 393 247 382 245 c 0
 378 244 371 243 361 241 c 2
 345 238 l 1
 295 230 l 2
 230 219 193 186 193 139 c 0
 193 106 218 89 266 89 c 0
 334 89 382 135 400 217 c 2x8c
EndSplineSet
EndChar

StartChar: agrave
Encoding: 224 224 202
Width: 556
Flags: W
HStem: -23 112<178 300> 0 20 437 112<330.5 388.5> 607 150<404 422 303 467 404 404>
VStem: 50 143<122.5 138> 363 143<22 65> 436 142<383.5 442.5>
LayerCount: 2
Fore
SplineSet
303 757 m 1xb4
 422 757 l 1
 467 607 l 1
 404 607 l 1
 303 757 l 1xb4
527 17 m 1
 523 0 l 1
 370 0 l 1
 365 11 363 17 363 27 c 0x4c
 363 34 363 39 366 54 c 1
 306 -1 257 -23 200 -23 c 0
 156 -23 122 -13 97 8 c 0
 68 32 50 70 50 108 c 0
 50 168 83 229 136 267 c 0
 167 289 204 303 252 311 c 2
 310 320 l 1
 382 330 382 330 402 341 c 0
 422 351 436 373 436 394 c 0xba
 436 424 414 437 363 437 c 0xb4
 298 437 268 417 251 362 c 1
 120 362 l 1
 148 492 229 549 386 549 c 0
 457 549 505 537 537 511 c 0
 561 492 578 457 578 428 c 0xb2
 578 416 576 401 572 383 c 2
 509 83 l 2
 507 75 506 68 506 62 c 0
 506 47 512 34 527 17 c 1
400 217 m 2x8c
 408 255 l 1
 396 248 393 247 382 245 c 0
 378 244 371 243 361 241 c 2
 345 238 l 1
 295 230 l 2
 230 219 193 186 193 139 c 0
 193 106 218 89 266 89 c 0
 334 89 382 135 400 217 c 2x8c
EndSplineSet
EndChar

StartChar: aring
Encoding: 229 229 203
Width: 556
Flags: W
HStem: -23 112<178 300> 0 20 437 112<330.5 388.5> 593 50<402 425.5 402 430> 723 50<417.5 440.5>
VStem: 50 143<122.5 138> 329 49<666 687.5 666 692.5> 363 143<22 65> 436 142<383.5 442.5> 464 49<679.5 701>
LayerCount: 2
Fore
SplineSet
527 17 m 1xa1
 523 0 l 1
 370 0 l 1
 365 11 363 17 363 27 c 0x45
 363 34 363 39 366 54 c 1
 306 -1 257 -23 200 -23 c 0
 156 -23 122 -13 97 8 c 0
 68 32 50 70 50 108 c 0
 50 168 83 229 136 267 c 0
 167 289 204 303 252 311 c 2
 310 320 l 1
 382 330 382 330 402 341 c 0
 422 351 436 373 436 394 c 0xa480
 436 424 414 437 363 437 c 0xa1
 298 437 268 417 251 362 c 1
 120 362 l 1
 148 492 229 549 386 549 c 0
 457 549 505 537 537 511 c 0
 561 492 578 457 578 428 c 0xa080
 578 416 576 401 572 383 c 2
 509 83 l 2
 507 75 506 68 506 62 c 0
 506 47 512 34 527 17 c 1xa1
400 217 m 2x9d
 408 255 l 1
 396 248 393 247 382 245 c 0
 378 244 371 243 361 241 c 2
 345 238 l 1
 295 230 l 2
 230 219 193 186 193 139 c 0
 193 106 218 89 266 89 c 0
 334 89 382 135 400 217 c 2x9d
441 773 m 0
 483 773 513 743 513 702 c 0
 513 645 459 593 401 593 c 0
 359 593 329 623 329 664 c 0x9a40
 329 721 383 773 441 773 c 0
431 723 m 0
 404 723 378 700 378 675 c 0
 378 657 392 643 412 643 c 0
 439 643 464 667 464 692 c 0
 464 710 450 723 431 723 c 0
EndSplineSet
EndChar

StartChar: atilde
Encoding: 227 227 204
Width: 556
Flags: W
HStem: -23 112<178 300> 0 20 437 112<330.5 388.5> 622 71<470.5 515.5> 672 69<325 338> 724 20
VStem: 50 143<122.5 138> 363 143<22 65> 436 142<383.5 442.5>
LayerCount: 2
Fore
SplineSet
527 17 m 1xa1
 523 0 l 1
 370 0 l 1
 365 11 363 17 363 27 c 0x43
 363 34 363 39 366 54 c 1
 306 -1 257 -23 200 -23 c 0
 156 -23 122 -13 97 8 c 0
 68 32 50 70 50 108 c 0
 50 168 83 229 136 267 c 0
 167 289 204 303 252 311 c 2
 310 320 l 1
 382 330 382 330 402 341 c 0
 422 351 436 373 436 394 c 0xa280
 436 424 414 437 363 437 c 0xa1
 298 437 268 417 251 362 c 1
 120 362 l 1
 148 492 229 549 386 549 c 0
 457 549 505 537 537 511 c 0
 561 492 578 457 578 428 c 0xa080
 578 416 576 401 572 383 c 2
 509 83 l 2
 507 75 506 68 506 62 c 0
 506 47 512 34 527 17 c 1xa1
400 217 m 2x97
 408 255 l 1
 396 248 393 247 382 245 c 0
 378 244 371 243 361 241 c 2
 345 238 l 1
 295 230 l 2
 230 219 193 186 193 139 c 0
 193 106 218 89 266 89 c 0
 334 89 382 135 400 217 c 2x97
558 744 m 1
 612 744 l 1
 601 704 590 683 571 663 c 0
 546 637 512 622 479 622 c 0x17
 462 622 441 627 428 633 c 2
 378 658 l 2
 363 665 342 672 334 672 c 0
 316 672 300 657 283 624 c 1
 229 624 l 1
 252 699 296 741 350 741 c 0x0b
 375 741 389 738 421 724 c 2
 471 703 l 2
 490 694 492 693 504 693 c 0
 527 693 544 710 558 744 c 1
EndSplineSet
EndChar

StartChar: ccedilla
Encoding: 231 231 205
Width: 556
Flags: MW
HStem: -220 50<199.5 233 199.5 264> 437 112<351 393.5>
VStem: 77 143<157 219 157 220> 282 87<-138.5 -116>
LayerCount: 2
Fore
SplineSet
288 -23 m 1
 262 -62 l 1
 277 -58 289 -56 305 -56 c 0
 345 -56 369 -77 369 -113 c 0
 369 -178 310 -220 218 -220 c 0
 173 -220 142 -213 85 -191 c 1
 115 -139 l 1
 163 -163 185 -170 214 -170 c 0
 252 -170 282 -151 282 -126 c 0
 282 -106 264 -93 238 -93 c 0
 220 -93 208 -96 184 -106 c 1
 241 -19 l 1
 205 -12 187 -6 168 4 c 0
 113 34 77 101 77 173 c 0
 77 267 119 384 178 454 c 0
 231 518 304 549 398 549 c 0
 465 549 511 532 549 494 c 0
 580 463 597 423 597 381 c 0
 597 371 596 362 593 338 c 1
 459 338 l 1
 458 377 456 389 448 404 c 1
 435 425 410 437 377 437 c 0
 322 437 285 411 257 352 c 1
 233 304 220 246 220 192 c 0
 220 122 249 89 309 89 c 0
 363 89 396 116 427 187 c 1
 561 187 l 1
 522 56 415 -26 288 -23 c 1
EndSplineSet
EndChar

StartChar: eacute
Encoding: 233 233 206
Width: 556
Flags: MW
HStem: -23 112<273.5 326 273.5 335.5> 226 93<228 448 228 573 210 448> 437 112<340 384.5>
VStem: 64 143<153.5 186 153.5 235>
LayerCount: 2
Fore
SplineSet
562 757 m 1
 404 607 l 1
 334 607 l 1
 436 757 l 1
 562 757 l 1
573 226 m 1
 210 226 l 1
 208 201 207 191 207 181 c 0
 207 126 245 89 302 89 c 0
 350 89 395 114 414 152 c 1
 552 152 l 1
 497 40 396 -23 275 -23 c 0
 149 -23 64 61 64 185 c 0
 64 285 110 402 174 469 c 0
 221 518 301 549 379 549 c 0
 453 549 510 525 546 480 c 0
 574 444 591 396 591 350 c 0
 591 312 585 272 573 226 c 1
228 319 m 1
 448 319 l 1
 448 354 448 356 446 366 c 0
 441 409 408 437 361 437 c 0
 295 437 249 397 228 319 c 1
EndSplineSet
EndChar

StartChar: ecircumflex
Encoding: 234 234 207
Width: 556
Flags: MW
HStem: -23 112<273.5 326 273.5 335.5> 226 93<228 448 228 573 210 448> 437 112<340 384.5>
VStem: 64 143<153.5 186 153.5 235>
LayerCount: 2
Fore
SplineSet
378 757 m 1
 485 757 l 1
 556 610 l 1
 479 610 l 1
 418 707 l 1
 315 610 l 1
 238 610 l 1
 378 757 l 1
573 226 m 1
 210 226 l 1
 208 201 207 191 207 181 c 0
 207 126 245 89 302 89 c 0
 350 89 395 114 414 152 c 1
 552 152 l 1
 497 40 396 -23 275 -23 c 0
 149 -23 64 61 64 185 c 0
 64 285 110 402 174 469 c 0
 221 518 301 549 379 549 c 0
 453 549 510 525 546 480 c 0
 574 444 591 396 591 350 c 0
 591 312 585 272 573 226 c 1
228 319 m 1
 448 319 l 1
 448 354 448 356 446 366 c 0
 441 409 408 437 361 437 c 0
 295 437 249 397 228 319 c 1
EndSplineSet
EndChar

StartChar: edieresis
Encoding: 235 235 208
Width: 556
Flags: MW
HStem: -23 112<273.5 326 273.5 335.5> 226 93<228 448 228 573 210 448> 437 112<340 384.5> 621 120<282 367 256 392 282 442 468 553>
VStem: 64 143<153.5 186 153.5 235>
LayerCount: 2
Fore
SplineSet
392 741 m 1
 367 621 l 1
 256 621 l 1
 282 741 l 1
 392 741 l 1
578 741 m 1
 553 621 l 1
 442 621 l 1
 468 741 l 1
 578 741 l 1
573 226 m 1
 210 226 l 1
 208 201 207 191 207 181 c 0
 207 126 245 89 302 89 c 0
 350 89 395 114 414 152 c 1
 552 152 l 1
 497 40 396 -23 275 -23 c 0
 149 -23 64 61 64 185 c 0
 64 285 110 402 174 469 c 0
 221 518 301 549 379 549 c 0
 453 549 510 525 546 480 c 0
 574 444 591 396 591 350 c 0
 591 312 585 272 573 226 c 1
228 319 m 1
 448 319 l 1
 448 354 448 356 446 366 c 0
 441 409 408 437 361 437 c 0
 295 437 249 397 228 319 c 1
EndSplineSet
EndChar

StartChar: egrave
Encoding: 232 232 209
Width: 556
Flags: MW
HStem: -23 112<273.5 326 273.5 335.5> 226 93<228 448 228 573 210 448> 437 112<340 384.5> 607 150<398 416 297 461 398 398>
VStem: 64 143<153.5 186 153.5 235>
LayerCount: 2
Fore
SplineSet
297 757 m 1
 416 757 l 1
 461 607 l 1
 398 607 l 1
 297 757 l 1
573 226 m 1
 210 226 l 1
 208 201 207 191 207 181 c 0
 207 126 245 89 302 89 c 0
 350 89 395 114 414 152 c 1
 552 152 l 1
 497 40 396 -23 275 -23 c 0
 149 -23 64 61 64 185 c 0
 64 285 110 402 174 469 c 0
 221 518 301 549 379 549 c 0
 453 549 510 525 546 480 c 0
 574 444 591 396 591 350 c 0
 591 312 585 272 573 226 c 1
228 319 m 1
 448 319 l 1
 448 354 448 356 446 366 c 0
 441 409 408 437 361 437 c 0
 295 437 249 397 228 319 c 1
EndSplineSet
EndChar

StartChar: iacute
Encoding: 237 237 210
Width: 278
Flags: MW
HStem: 0 20 520 20<182 322 322 322>
LayerCount: 2
Fore
SplineSet
322 540 m 1
 207 0 l 1
 67 0 l 1
 182 540 l 1
 322 540 l 1
448 757 m 1
 290 607 l 1
 220 607 l 1
 322 757 l 1
 448 757 l 1
EndSplineSet
EndChar

StartChar: icircumflex
Encoding: 238 238 211
Width: 278
Flags: MW
HStem: 0 20 520 20<182 322 322 322>
LayerCount: 2
Fore
SplineSet
322 540 m 1
 207 0 l 1
 67 0 l 1
 182 540 l 1
 322 540 l 1
247 757 m 1
 355 757 l 1
 426 610 l 1
 348 610 l 1
 287 707 l 1
 184 610 l 1
 108 610 l 1
 247 757 l 1
EndSplineSet
EndChar

StartChar: idieresis
Encoding: 239 239 212
Width: 278
Flags: MW
HStem: 0 20 520 20<182 322 322 322> 621 120<146 230 120 256 146 306 332 416>
LayerCount: 2
Fore
SplineSet
322 540 m 1
 207 0 l 1
 67 0 l 1
 182 540 l 1
 322 540 l 1
256 741 m 1
 230 621 l 1
 120 621 l 1
 146 741 l 1
 256 741 l 1
442 741 m 1
 416 621 l 1
 306 621 l 1
 332 741 l 1
 442 741 l 1
EndSplineSet
EndChar

StartChar: igrave
Encoding: 236 236 213
Width: 278
Flags: MW
HStem: 0 20 520 20<182 322 322 322> 607 150<248 266 147 311 248 248>
LayerCount: 2
Fore
SplineSet
322 540 m 1
 207 0 l 1
 67 0 l 1
 182 540 l 1
 322 540 l 1
147 757 m 1
 266 757 l 1
 311 607 l 1
 248 607 l 1
 147 757 l 1
EndSplineSet
EndChar

StartChar: ntilde
Encoding: 241 241 214
Width: 611
Flags: W
HStem: 0 20 437 112<371 526.5> 520 20<178 318 318 318> 622 71<504.5 549.5> 672 69<359 372> 724 20
VStem: 479 150<355 457>
LayerCount: 2
Fore
SplineSet
178 540 m 1xa2
 318 540 l 1x36
 300 458 l 1
 354 522 408 549 482 549 c 0
 571 549 629 497 629 417 c 0
 629 399 627 381 623 362 c 2
 546 0 l 1
 406 0 l 1
 473 313 l 2
 477 336 479 348 479 362 c 0
 479 411 453 437 405 437 c 0xc2
 337 437 285 387 268 304 c 2
 203 0 l 1
 63 0 l 1
 178 540 l 1xa2
592 744 m 1
 646 744 l 1
 635 704 624 683 605 663 c 0
 580 637 546 622 513 622 c 0x16
 496 622 475 627 462 633 c 2
 412 658 l 2
 397 665 376 672 368 672 c 0
 350 672 334 657 317 624 c 1
 263 624 l 1
 286 699 330 741 384 741 c 0x0a
 409 741 423 738 455 724 c 2
 505 703 l 2
 524 694 526 693 538 693 c 0
 561 693 578 710 592 744 c 1
EndSplineSet
EndChar

StartChar: oacute
Encoding: 243 243 215
Width: 611
Flags: MW
HStem: -23 112<294 350 294 353> 437 112<361 422>
VStem: 82 143<169.5 220> 491 143<305.5 356>
LayerCount: 2
Fore
SplineSet
599 757 m 1
 441 607 l 1
 371 607 l 1
 473 757 l 1
 599 757 l 1
413 549 m 0
 550 549 634 473 634 349 c 0
 634 262 603 163 555 100 c 0
 494 19 407 -23 299 -23 c 0
 166 -23 82 55 82 177 c 0
 82 263 113 362 161 426 c 0
 220 505 309 549 413 549 c 0
391 437 m 0
 300 437 225 332 225 205 c 0
 225 134 264 89 324 89 c 0
 376 89 422 120 453 176 c 0
 477 218 491 271 491 320 c 0
 491 392 453 437 391 437 c 0
EndSplineSet
EndChar

StartChar: ocircumflex
Encoding: 244 244 216
Width: 611
Flags: MW
HStem: -23 112<294 350 294 353> 437 112<361 422>
VStem: 82 143<169.5 220> 491 143<305.5 356>
LayerCount: 2
Fore
SplineSet
415 757 m 1
 522 757 l 1
 594 610 l 1
 516 610 l 1
 455 707 l 1
 352 610 l 1
 276 610 l 1
 415 757 l 1
413 549 m 0
 550 549 634 473 634 349 c 0
 634 262 603 163 555 100 c 0
 494 19 407 -23 299 -23 c 0
 166 -23 82 55 82 177 c 0
 82 263 113 362 161 426 c 0
 220 505 309 549 413 549 c 0
391 437 m 0
 300 437 225 332 225 205 c 0
 225 134 264 89 324 89 c 0
 376 89 422 120 453 176 c 0
 477 218 491 271 491 320 c 0
 491 392 453 437 391 437 c 0
EndSplineSet
EndChar

StartChar: odieresis
Encoding: 246 246 217
Width: 611
Flags: MW
HStem: -23 112<294 350 294 353> 437 112<361 422> 621 120<311 395 285 421 311 471 497 581>
VStem: 82 143<169.5 220> 491 143<305.5 356>
LayerCount: 2
Fore
SplineSet
421 741 m 1
 395 621 l 1
 285 621 l 1
 311 741 l 1
 421 741 l 1
607 741 m 1
 581 621 l 1
 471 621 l 1
 497 741 l 1
 607 741 l 1
413 549 m 0
 550 549 634 473 634 349 c 0
 634 262 603 163 555 100 c 0
 494 19 407 -23 299 -23 c 0
 166 -23 82 55 82 177 c 0
 82 263 113 362 161 426 c 0
 220 505 309 549 413 549 c 0
391 437 m 0
 300 437 225 332 225 205 c 0
 225 134 264 89 324 89 c 0
 376 89 422 120 453 176 c 0
 477 218 491 271 491 320 c 0
 491 392 453 437 391 437 c 0
EndSplineSet
EndChar

StartChar: ograve
Encoding: 242 242 218
Width: 611
Flags: MW
HStem: -23 112<294 350 294 353> 437 112<361 422> 607 150<428 447 327 491 428 428>
VStem: 82 143<169.5 220> 491 143<305.5 356>
LayerCount: 2
Fore
SplineSet
327 757 m 1
 447 757 l 1
 491 607 l 1
 428 607 l 1
 327 757 l 1
413 549 m 0
 550 549 634 473 634 349 c 0
 634 262 603 163 555 100 c 0
 494 19 407 -23 299 -23 c 0
 166 -23 82 55 82 177 c 0
 82 263 113 362 161 426 c 0
 220 505 309 549 413 549 c 0
391 437 m 0
 300 437 225 332 225 205 c 0
 225 134 264 89 324 89 c 0
 376 89 422 120 453 176 c 0
 477 218 491 271 491 320 c 0
 491 392 453 437 391 437 c 0
EndSplineSet
EndChar

StartChar: otilde
Encoding: 245 245 219
Width: 611
Flags: W
HStem: -23 112<294 350 294 353> 437 112<361 422> 672 69<336 389> 724 20
VStem: 82 143<169.5 220> 491 143<305.5 356>
LayerCount: 2
Fore
SplineSet
413 549 m 0xdc
 550 549 634 473 634 349 c 0
 634 262 603 163 555 100 c 0
 494 19 407 -23 299 -23 c 0
 166 -23 82 55 82 177 c 0
 82 263 113 362 161 426 c 0
 220 505 309 549 413 549 c 0xdc
391 437 m 0
 300 437 225 332 225 205 c 0
 225 134 264 89 324 89 c 0
 376 89 422 120 453 176 c 0
 477 218 491 271 491 320 c 0
 491 392 453 437 391 437 c 0
585 744 m 1
 639 744 l 1x1c
 602 666 544 622 480 622 c 0
 463 622 443 626 432 633 c 2
 387 658 l 2
 374 665 353 672 345 672 c 0
 327 672 308 657 285 624 c 1
 231 624 l 1
 270 699 322 741 377 741 c 0x2c
 401 741 415 738 444 724 c 2
 489 703 l 2
 506 694 509 693 520 693 c 0
 543 693 564 710 585 744 c 1
EndSplineSet
EndChar

StartChar: scaron
Encoding: 353 353 220
Width: 556
Flags: W
HStem: -23 112<273.5 337.5 273.5 366> 437 112<347 391.5>
VStem: 127 149<316.5 400> 411 148<128 155.5> 452 137<398 401.5>
LayerCount: 2
Fore
SplineSet
458 610 m 1xe8
 350 610 l 1
 279 757 l 1
 357 757 l 1
 418 660 l 1
 521 757 l 1
 597 757 l 1
 458 610 l 1xe8
584 366 m 1
 449 366 l 1
 451 375 452 379 452 385 c 0xc8
 452 418 419 437 364 437 c 0
 311 437 276 416 276 384 c 0
 276 364 290 354 341 339 c 2
 437 311 l 2
 520 286 559 247 559 187 c 0
 559 59 451 -23 281 -23 c 0
 219 -23 172 -13 133 10 c 0
 89 35 60 82 60 128 c 0
 60 137 61 143 64 157 c 1
 201 157 l 1
 204 112 240 89 307 89 c 0
 368 89 411 112 411 144 c 0xf0
 411 167 398 176 335 196 c 2
 256 221 l 1
 168 250 127 288 127 345 c 0
 127 396 154 452 198 490 c 0
 242 529 307 549 387 549 c 0
 513 549 589 495 589 404 c 0
 589 392 588 384 584 366 c 1
EndSplineSet
EndChar

StartChar: uacute
Encoding: 250 250 221
Width: 611
Flags: W
HStem: -23 112<190 346.5> 0 20 520 20<174 314 314 314 516 656 656 656>
VStem: 88 150<69 171.5>
LayerCount: 2
Fore
SplineSet
587 757 m 1x70
 429 607 l 1
 359 607 l 1
 460 757 l 1
 587 757 l 1x70
541 0 m 1
 401 0 l 1x50
 416 68 l 1
 361 4 308 -23 234 -23 c 0
 146 -23 88 29 88 109 c 0
 88 127 90 145 94 164 c 2
 174 540 l 1
 314 540 l 1
 245 213 l 2
 239 188 238 179 238 164 c 0
 238 114 263 89 314 89 c 0xb0
 379 89 431 141 448 222 c 2
 516 540 l 1
 656 540 l 1
 541 0 l 1
EndSplineSet
EndChar

StartChar: ucircumflex
Encoding: 251 251 222
Width: 611
Flags: W
HStem: -23 112<190 346.5> 0 20 520 20<174 314 314 314 516 656 656 656>
VStem: 88 150<69 171.5>
LayerCount: 2
Fore
SplineSet
406 757 m 1x70
 513 757 l 1
 584 610 l 1
 507 610 l 1
 446 707 l 1
 343 610 l 1
 266 610 l 1
 406 757 l 1x70
541 0 m 1
 401 0 l 1x50
 416 68 l 1
 361 4 308 -23 234 -23 c 0
 146 -23 88 29 88 109 c 0
 88 127 90 145 94 164 c 2
 174 540 l 1
 314 540 l 1
 245 213 l 2
 239 188 238 179 238 164 c 0
 238 114 263 89 314 89 c 0xb0
 379 89 431 141 448 222 c 2
 516 540 l 1
 656 540 l 1
 541 0 l 1
EndSplineSet
EndChar

StartChar: udieresis
Encoding: 252 252 223
Width: 611
Flags: W
HStem: -23 112<190 346.5> 0 20 520 20<174 314 314 314 516 656 656 656> 621 120<310 395 284 420 310 470 496 581>
VStem: 88 150<69 171.5>
LayerCount: 2
Fore
SplineSet
420 741 m 1x78
 395 621 l 1
 284 621 l 1
 310 741 l 1
 420 741 l 1x78
606 741 m 1
 581 621 l 1
 470 621 l 1
 496 741 l 1
 606 741 l 1
541 0 m 1
 401 0 l 1x48
 416 68 l 1
 361 4 308 -23 234 -23 c 0
 146 -23 88 29 88 109 c 0
 88 127 90 145 94 164 c 2
 174 540 l 1
 314 540 l 1
 245 213 l 2
 239 188 238 179 238 164 c 0
 238 114 263 89 314 89 c 0xa8
 379 89 431 141 448 222 c 2
 516 540 l 1
 656 540 l 1
 541 0 l 1
EndSplineSet
EndChar

StartChar: ugrave
Encoding: 249 249 224
Width: 611
Flags: W
HStem: -23 112<190 346.5> 0 20 520 20<174 314 314 314 516 656 656 656> 607 150<425 444 325 489 425 425>
VStem: 88 150<69 171.5>
LayerCount: 2
Fore
SplineSet
325 757 m 1x78
 444 757 l 1
 489 607 l 1
 425 607 l 1
 325 757 l 1x78
541 0 m 1
 401 0 l 1x48
 416 68 l 1
 361 4 308 -23 234 -23 c 0
 146 -23 88 29 88 109 c 0
 88 127 90 145 94 164 c 2
 174 540 l 1
 314 540 l 1
 245 213 l 2
 239 188 238 179 238 164 c 0
 238 114 263 89 314 89 c 0xa8
 379 89 431 141 448 222 c 2
 516 540 l 1
 656 540 l 1
 541 0 l 1
EndSplineSet
EndChar

StartChar: yacute
Encoding: 253 253 225
Width: 556
Flags: MW
HStem: -219 111<82 104> 0 20 520 20<124 278 278 278 509 653 653 653>
LayerCount: 2
Fore
SplineSet
509 540 m 1
 653 540 l 1
 295 -98 l 2
 259 -163 237 -185 193 -202 c 0
 164 -213 126 -219 82 -219 c 0
 60 -219 50 -218 37 -215 c 1
 60 -106 l 1
 71 -108 76 -108 88 -108 c 0
 157 -108 201 -72 201 -15 c 1
 200 0 l 1
 124 540 l 1
 278 540 l 1
 314 147 l 1
 509 540 l 1
566 757 m 1
 408 607 l 1
 338 607 l 1
 440 757 l 1
 566 757 l 1
EndSplineSet
EndChar

StartChar: ydieresis
Encoding: 255 255 226
Width: 556
Flags: MW
HStem: -219 111<82 104> 0 20 520 20<124 278 278 278 509 653 653 653> 621 120<286 371 261 397 286 447 472 557>
LayerCount: 2
Fore
SplineSet
509 540 m 1
 653 540 l 1
 295 -98 l 2
 259 -163 237 -185 193 -202 c 0
 164 -213 126 -219 82 -219 c 0
 60 -219 50 -218 37 -215 c 1
 60 -106 l 1
 71 -108 76 -108 88 -108 c 0
 157 -108 201 -72 201 -15 c 1
 200 0 l 1
 124 540 l 1
 278 540 l 1
 314 147 l 1
 509 540 l 1
397 741 m 1
 371 621 l 1
 261 621 l 1
 286 741 l 1
 397 741 l 1
583 741 m 1
 557 621 l 1
 447 621 l 1
 472 741 l 1
 583 741 l 1
EndSplineSet
EndChar

StartChar: zcaron
Encoding: 382 382 227
Width: 500
Flags: MW
HStem: 0 113<45 45 219 469 21 45> 427 113<154 379 130 575 551 551>
LayerCount: 2
Fore
SplineSet
575 540 m 1
 551 427 l 1
 219 113 l 1
 493 113 l 1
 469 0 l 1
 21 0 l 1
 45 113 l 1
 379 427 l 1
 130 427 l 1
 154 540 l 1
 575 540 l 1
434 610 m 1
 327 610 l 1
 256 757 l 1
 334 757 l 1
 394 660 l 1
 497 757 l 1
 574 757 l 1
 434 610 l 1
EndSplineSet
EndChar

StartChar: nsuperior
Encoding: 8319 8319 228
Width: 396
Flags: MW
HStem: 543 72<297.5 394>
VStem: 361 100<495 558>
LayerCount: 2
Fore
SplineSet
174 609 m 1
 268 609 l 1
 259 568 l 1
 263 573 l 1
 290 600 327 615 366 615 c 0
 422 615 461 582 461 534 c 0
 461 524 460 512 457 501 c 2
 411 284 l 1
 318 284 l 1
 358 472 l 2
 360 483 361 491 361 499 c 0
 361 528 346 543 318 543 c 0
 277 543 248 515 237 467 c 2
 198 284 l 1
 105 284 l 1
 174 609 l 1
EndSplineSet
EndChar

StartChar: ff
Encoding: 64256 64256 229
Width: 666
Flags: MW
HStem: 0 20 436 93<126 183 106 202 342 405 459 516 675 738> 625 104<387 397 338 405 720 730>
LayerCount: 2
Fore
SplineSet
425 529 m 1
 405 436 l 1
 323 436 l 1
 230 0 l 1
 90 0 l 1
 183 436 l 1
 106 436 l 1
 126 529 l 1
 202 529 l 1
 216 594 l 2
 236 687 289 729 387 729 c 0
 407 729 417 729 464 726 c 1
 442 621 l 1
 417 624 410 625 400 625 c 0
 374 625 360 611 354 582 c 2
 342 529 l 1
 425 529 l 1
758 529 m 1
 738 436 l 1
 656 436 l 1
 563 0 l 1
 423 0 l 1
 516 436 l 1
 439 436 l 1
 459 529 l 1
 535 529 l 1
 549 594 l 2
 569 687 622 729 720 729 c 0
 740 729 750 729 797 726 c 1
 775 621 l 1
 750 624 743 625 733 625 c 0
 707 625 693 611 687 582 c 2
 675 529 l 1
 758 529 l 1
EndSplineSet
EndChar

StartChar: ffi
Encoding: 64259 64259 230
Width: 943
Flags: W
HStem: 0 20 436 93<126 183 106 202 342 405 459 516 675 738> 520 20<848 988 988 988> 604 125<888 1001> 625 104<387 397 338 405 720 730>
LayerCount: 2
Fore
SplineSet
425 529 m 1xc8
 405 436 l 1
 323 436 l 1
 230 0 l 1
 90 0 l 1
 183 436 l 1
 106 436 l 1
 126 529 l 1
 202 529 l 1
 216 594 l 2
 236 687 289 729 387 729 c 0
 407 729 417 729 464 726 c 1
 442 621 l 1
 417 624 410 625 400 625 c 0
 374 625 360 611 354 582 c 2
 342 529 l 1
 425 529 l 1xc8
758 529 m 1
 738 436 l 1
 656 436 l 1
 563 0 l 1
 423 0 l 1
 516 436 l 1
 439 436 l 1
 459 529 l 1
 535 529 l 1
 549 594 l 2
 569 687 622 729 720 729 c 0
 740 729 750 729 797 726 c 1
 775 621 l 1
 750 624 743 625 733 625 c 0
 707 625 693 611 687 582 c 2
 675 529 l 1
 758 529 l 1
988 540 m 1xb0
 873 0 l 1
 733 0 l 1
 848 540 l 1
 988 540 l 1xb0
1028 729 m 1
 1001 604 l 1
 861 604 l 1
 888 729 l 1
 1028 729 l 1
EndSplineSet
EndChar

StartChar: ffl
Encoding: 64260 64260 231
Width: 943
Flags: MW
HStem: 0 20 436 93<126 183 106 202 342 405 459 516 675 738> 625 104<387 397 338 405 720 730>
LayerCount: 2
Fore
SplineSet
425 529 m 1
 405 436 l 1
 323 436 l 1
 230 0 l 1
 90 0 l 1
 183 436 l 1
 106 436 l 1
 126 529 l 1
 202 529 l 1
 216 594 l 2
 236 687 289 729 387 729 c 0
 407 729 417 729 464 726 c 1
 442 621 l 1
 417 624 410 625 400 625 c 0
 374 625 360 611 354 582 c 2
 342 529 l 1
 425 529 l 1
758 529 m 1
 738 436 l 1
 656 436 l 1
 563 0 l 1
 423 0 l 1
 516 436 l 1
 439 436 l 1
 459 529 l 1
 535 529 l 1
 549 594 l 2
 569 687 622 729 720 729 c 0
 740 729 750 729 797 726 c 1
 775 621 l 1
 750 624 743 625 733 625 c 0
 707 625 693 611 687 582 c 2
 675 529 l 1
 758 529 l 1
1028 729 m 1
 873 0 l 1
 733 0 l 1
 888 729 l 1
 1028 729 l 1
EndSplineSet
EndChar

StartChar: oneeighth
Encoding: 8539 8539 232
Width: 834
Flags: W
HStem: -20 20 -14 73<656.5 696.5 656.5 709> 198 57<695.5 715.5> 367 67<712 749>
VStem: 530 86<93 123> 587 73<286.5 319 286.5 334.5> 753 86<122 163.5> 788 78<319.5 337>
LayerCount: 2
Fore
SplineSet
716 715 m 1x95
 801 715 l 1
 220 -20 l 1
 135 -20 l 1
 716 715 l 1x95
247 573 m 1
 141 573 l 1
 154 634 l 1
 232 634 282 659 306 709 c 1
 369 709 l 1
 279 284 l 1
 185 284 l 1
 247 573 l 1
789 232 m 1
 825 210 839 188 839 152 c 0
 839 60 759 -14 659 -14 c 0
 580 -14 530 27 530 93 c 0x7a
 530 153 563 201 627 232 c 1
 598 253 587 271 587 297 c 0
 587 372 660 434 747 434 c 0
 817 434 866 396 866 342 c 0
 866 297 843 264 789 232 c 1
732 367 m 0
 692 367 660 338 660 300 c 0
 660 273 680 255 711 255 c 0
 754 255 788 285 788 324 c 0x75
 788 350 766 367 732 367 c 0
699 198 m 0
 653 198 616 158 616 107 c 0
 616 79 640 59 673 59 c 0
 720 59 753 96 753 148 c 0x7a
 753 179 732 198 699 198 c 0
EndSplineSet
EndChar

StartChar: threeeighths
Encoding: 8540 8540 233
Width: 834
Flags: W
HStem: -20 20 -14 73<662.5 702.5 662.5 715> 198 57<702.5 721.5> 271 78<239.5 278 239.5 294.5> 367 67<718.5 755.5> 646 72<287.5 320.5>
VStem: 109 93<380.5 383.5> 331 93<402.5 440> 352 100<602 618> 536 86<93 123> 594 73<286.5 319 286.5 334.5> 759 86<122 163.5> 794 78<319.5 337>
LayerCount: 2
Fore
SplineSet
749 715 m 1x8828
 834 715 l 1
 253 -20 l 1
 168 -20 l 1
 749 715 l 1x8828
795 232 m 1
 831 210 845 188 845 152 c 0
 845 60 765 -14 665 -14 c 0
 586 -14 536 27 536 93 c 0x7c50
 536 153 569 201 633 232 c 1
 604 253 594 271 594 297 c 0
 594 372 666 434 754 434 c 0
 824 434 872 396 872 342 c 0
 872 297 849 264 795 232 c 1
739 367 m 0
 698 367 667 338 667 300 c 0
 667 273 687 255 718 255 c 0
 760 255 794 285 794 324 c 0x7c28
 794 350 772 367 739 367 c 0
705 198 m 0
 659 198 622 158 622 107 c 0
 622 79 646 59 679 59 c 0
 726 59 759 96 759 148 c 0x7f50
 759 179 738 198 705 198 c 0
242 471 m 1
 255 534 l 1
 295 535 312 539 328 553 c 0
 343 566 352 585 352 606 c 0
 352 630 334 646 307 646 c 0
 268 646 251 627 239 571 c 1
 152 571 l 1
 172 673 224 718 324 718 c 0
 405 718 452 684 452 625 c 0x7c80
 452 579 428 541 381 512 c 1
 410 494 424 471 424 439 c 0
 424 340 349 271 240 271 c 0
 157 271 109 310 109 378 c 0
 109 389 110 398 113 414 c 1
 204 414 l 1
 202 406 202 402 202 396 c 0
 202 365 221 349 258 349 c 0
 298 349 331 382 331 423 c 0
 331 457 308 472 255 472 c 0
 250 472 247 472 242 471 c 1
EndSplineSet
EndChar

StartChar: fiveeighths
Encoding: 8541 8541 234
Width: 834
Flags: W
HStem: -20 20 -14 73<663.5 703.5 663.5 716> 198 57<702.5 722.5> 286 73<225 265.5 225 276.5> 367 67<719 756> 520 67<259 339.5> 650 75<259 437 259 259>
VStem: 104 84<385.5 389> 326 86<434.5 482.5> 537 86<93 123> 594 73<286.5 319 286.5 334.5> 760 86<122 163.5> 795 78<319.5 337>
LayerCount: 2
Fore
SplineSet
736 715 m 1x8828
 821 715 l 1
 240 -20 l 1
 155 -20 l 1
 736 715 l 1x8828
795 232 m 1
 832 210 846 188 846 152 c 0
 846 60 766 -14 666 -14 c 0
 587 -14 537 27 537 93 c 0x7e50
 537 153 570 201 633 232 c 1
 604 254 594 271 594 297 c 0
 594 372 667 434 754 434 c 0
 824 434 873 396 873 342 c 0
 873 297 850 264 795 232 c 1
739 367 m 0
 699 367 667 338 667 300 c 0
 667 273 687 255 718 255 c 0
 761 255 795 285 795 324 c 0
 795 350 773 367 739 367 c 0
706 198 m 0
 660 198 623 158 623 107 c 0
 623 79 647 59 680 59 c 0
 727 59 760 96 760 148 c 0x7fd0
 760 179 739 198 706 198 c 0
453 725 m 1
 437 650 l 1
 259 650 l 1
 227 562 l 1
 255 580 278 587 307 587 c 0
 372 587 412 546 412 480 c 0
 412 372 329 286 224 286 c 0
 152 286 104 325 104 385 c 0
 104 393 105 399 107 411 c 1
 190 411 l 1
 189 406 188 400 188 397 c 0
 188 374 209 359 241 359 c 0
 290 359 326 404 326 465 c 0
 326 500 307 520 272 520 c 0
 246 520 225 509 211 488 c 1
 136 488 l 1
 224 725 l 1
 453 725 l 1
EndSplineSet
EndChar

StartChar: seveneighths
Encoding: 8542 8542 235
Width: 834
Flags: W
HStem: -20 20 -14 73<653.5 693.5 653.5 706> 198 57<692.5 712.5> 367 67<709 746> 649 75<206 402 190 507>
VStem: 527 86<93 123> 584 73<286.5 319 286.5 334.5> 750 86<122 163.5> 785 78<319.5 337>
LayerCount: 2
Fore
SplineSet
713 715 m 1x9280
 798 715 l 1
 217 -20 l 1
 132 -20 l 1
 713 715 l 1x9280
786 232 m 1
 822 210 836 188 836 152 c 0
 836 60 756 -14 656 -14 c 0
 577 -14 527 27 527 93 c 0x7d
 527 153 560 201 624 232 c 1
 595 253 584 271 584 297 c 0
 584 372 657 434 744 434 c 0
 814 434 863 396 863 342 c 0
 863 297 840 264 786 232 c 1
729 367 m 0
 689 367 657 338 657 300 c 0
 657 273 677 255 708 255 c 0
 751 255 785 285 785 324 c 0x7a80
 785 350 763 367 729 367 c 0
696 198 m 0
 650 198 613 158 613 107 c 0
 613 79 637 59 670 59 c 0
 717 59 750 96 750 148 c 0x7d
 750 179 729 198 696 198 c 0
507 724 m 1
 493 658 l 1
 488 653 467 632 430 593 c 1
 342 496 295 413 263 299 c 1
 178 299 l 1
 226 444 285 536 402 649 c 1
 190 649 l 1
 206 724 l 1
 507 724 l 1
EndSplineSet
EndChar

StartChar: zerosuperior
Encoding: 8304 8304 236
Width: 333
Flags: MW
HStem: 271 78<225 257 225 258.5> 646 72<277.5 309>
VStem: 100 93<382 415 382 423.5> 342 93<579 612.5>
LayerCount: 2
Fore
SplineSet
311 718 m 0
 389 718 435 672 435 596 c 0
 435 535 413 435 387 381 c 0
 353 310 295 271 222 271 c 0
 146 271 100 317 100 393 c 0
 100 454 122 554 148 608 c 0
 181 679 240 718 311 718 c 0
295 646 m 0
 260 646 240 623 223 565 c 0
 206 508 193 434 193 396 c 0
 193 368 211 349 239 349 c 0
 275 349 295 371 312 428 c 0
 328 483 342 560 342 598 c 0
 342 627 323 646 295 646 c 0
EndSplineSet
EndChar

StartChar: foursuperior
Encoding: 8308 8308 237
Width: 333
Flags: MW
HStem: 377 73<172 261 370 400>
LayerCount: 2
Fore
SplineSet
416 450 m 1
 400 377 l 1
 354 377 l 1
 335 284 l 1
 241 284 l 1
 261 377 l 1
 84 377 l 1
 100 449 l 1
 317 709 l 1
 425 709 l 1
 370 450 l 1
 416 450 l 1
277 450 m 1
 312 616 l 1
 172 450 l 1
 277 450 l 1
EndSplineSet
EndChar

StartChar: fivesuperior
Encoding: 8309 8309 238
Width: 333
Flags: MW
HStem: 271 78<218.5 259 218.5 270> 502 72<250 333> 629 80<250 434 250 250>
VStem: 87 94<373.5 375.5> 318 93<420 466>
LayerCount: 2
Fore
SplineSet
451 709 m 1
 434 629 l 1
 250 629 l 1
 222 553 l 1
 250 568 270 574 298 574 c 0
 368 574 411 532 411 464 c 0
 411 356 325 271 215 271 c 0
 138 271 87 311 87 371 c 0
 87 380 88 386 90 400 c 1
 182 400 l 1
 181 384 l 1
 181 363 202 349 235 349 c 0
 283 349 318 391 318 449 c 0
 318 483 299 502 264 502 c 0
 236 502 216 492 202 470 c 1
 117 470 l 1
 208 709 l 1
 451 709 l 1
EndSplineSet
EndChar

StartChar: sixsuperior
Encoding: 8310 8310 239
Width: 333
Flags: MW
HStem: 271 78<226.5 264 226.5 280.5> 495 72<249 339.5> 646 72<291.5 321.5>
VStem: 103 87<385.5 426.5 385.5 427> 321 93<418.5 460.5>
LayerCount: 2
Fore
SplineSet
442 608 m 1
 355 608 l 1
 349 636 336 646 307 646 c 0
 262 646 239 617 219 538 c 1
 248 558 275 567 306 567 c 0
 373 567 414 528 414 464 c 0
 414 358 331 271 230 271 c 0
 153 271 103 317 103 389 c 0
 103 465 130 571 163 622 c 0
 203 686 258 718 325 718 c 0
 398 718 442 683 442 624 c 2
 442 608 l 1
271 495 m 0
 227 495 190 452 190 401 c 0
 190 370 211 349 242 349 c 0
 286 349 321 392 321 445 c 0
 321 476 302 495 271 495 c 0
EndSplineSet
EndChar

StartChar: sevensuperior
Encoding: 8311 8311 240
Width: 333
Flags: MW
HStem: 629 80<157 355 140 475>
LayerCount: 2
Fore
SplineSet
475 709 m 1
 460 640 l 1
 322 509 266 423 226 284 c 1
 131 284 l 1
 181 431 236 515 355 629 c 1
 140 629 l 1
 157 709 l 1
 475 709 l 1
EndSplineSet
EndChar

StartChar: eightsuperior
Encoding: 8312 8312 241
Width: 333
Flags: W
HStem: 271 78<221 262 221 276.5> 479 63<259.5 281> 646 72<274.5 311.5>
VStem: 87 93<381.5 409> 144 80<571 601.5 571 618.5> 319 93<407 446> 351 87<602 618>
LayerCount: 2
Fore
SplineSet
363 516 m 1xea
 398 495 412 472 412 437 c 0
 412 345 329 271 224 271 c 0xec
 141 271 87 313 87 380 c 0xf0
 87 438 119 485 182 516 c 1
 153 538 144 554 144 581 c 0
 144 656 220 718 312 718 c 0
 387 718 438 680 438 624 c 0
 438 580 412 544 363 516 c 1xea
295 646 m 0
 254 646 224 619 224 584 c 0
 224 558 244 542 275 542 c 0
 318 542 351 570 351 606 c 0
 351 630 328 646 295 646 c 0
264 479 m 0xf4
 216 479 180 443 180 395 c 0
 180 368 204 349 238 349 c 0
 286 349 319 383 319 431 c 0
 319 461 298 479 264 479 c 0xf4
EndSplineSet
EndChar

StartChar: ninesuperior
Encoding: 8313 8313 242
Width: 333
Flags: W
HStem: 271 78<217 242> 420 75<197.5 285.5> 646 72<269.5 308>
VStem: 92 92<338 381> 122 93<529.5 573.5 529.5 581> 346 87<565.5 609.5>
LayerCount: 2
Fore
SplineSet
95 389 m 1xf4
 185 389 l 1
 184 385 184 382 184 380 c 0xf4
 184 361 203 349 231 349 c 0
 275 349 300 378 317 452 c 1
 288 429 264 420 231 420 c 0
 164 420 122 461 122 527 c 0xe8
 122 635 202 718 306 718 c 0
 384 718 433 669 433 592 c 0
 433 519 408 431 371 367 c 0
 334 304 277 271 207 271 c 0
 139 271 92 310 92 366 c 0
 92 373 93 378 95 389 c 1xf4
291 646 m 0
 248 646 215 602 215 545 c 0xe8
 215 514 233 495 262 495 c 0
 309 495 346 538 346 593 c 0
 346 626 325 646 291 646 c 0
EndSplineSet
EndChar

StartChar: IJ
Encoding: 306 306 243
Width: 782
Flags: W
HStem: -23 128<488.5 511.5> 0 20 709 20<218 368 368 368 722 872 872 872>
VStem: 290 152<84.5 163.5>
LayerCount: 2
Fore
SplineSet
368 729 m 1x70
 213 0 l 1
 63 0 l 1
 218 729 l 1
 368 729 l 1x70
722 729 m 1
 872 729 l 1
 758 190 l 2
 741 113 706 55 657 23 c 0
 614 -5 545 -23 478 -23 c 0
 361 -23 290 36 290 133 c 0
 290 152 293 176 297 198 c 2
 313 270 l 1
 463 270 l 1
 446 193 l 2
 444 180 442 168 442 159 c 0
 442 127 469 105 508 105 c 0xb0
 561 105 596 135 608 190 c 2
 722 729 l 1
EndSplineSet
EndChar

StartChar: Abreve
Encoding: 258 258 244
Width: 722
Flags: MW
HStem: 0 20 147 125<329 518 329 532 260 518> 709 20<433 606 606 606> 791 78<524.5 571.5>
VStem: 426 48<863 926>
LayerCount: 2
Fore
SplineSet
532 147 m 1
 260 147 l 1
 179 0 l 1
 26 0 l 1
 433 729 l 1
 606 729 l 1
 703 0 l 1
 550 0 l 1
 532 147 l 1
518 272 m 1
 483 555 l 1
 329 272 l 1
 518 272 l 1
650 934 m 1
 693 934 l 1
 679 852 611 791 532 791 c 0
 468 791 426 832 426 894 c 0
 426 907 427 917 431 934 c 1
 474 934 l 1
 474 926 l 2
 474 890 501 869 548 869 c 0
 599 869 634 891 650 934 c 1
EndSplineSet
EndChar

StartChar: Aogonek
Encoding: 260 260 245
Width: 722
Flags: MW
HStem: -233 50<605 619> 0 20 147 125<329 518 329 532 260 518> 709 20<433 606 606 606>
VStem: 469 100<-155 -135>
LayerCount: 2
Fore
SplineSet
532 147 m 1
 260 147 l 1
 179 0 l 1
 26 0 l 1
 433 729 l 1
 606 729 l 1
 703 0 l 1
 625 -32 569 -90 569 -140 c 0
 569 -170 586 -183 624 -183 c 0
 650 -183 671 -180 696 -172 c 1
 685 -224 l 1
 654 -231 633 -233 605 -233 c 0
 518 -233 469 -205 469 -155 c 0
 469 -115 494 -74 537 -43 c 0
 561 -25 581 -15 625 0 c 1
 550 0 l 1
 532 147 l 1
518 272 m 1
 483 555 l 1
 329 272 l 1
 518 272 l 1
EndSplineSet
EndChar

StartChar: Cacute
Encoding: 262 262 246
Width: 722
Flags: MW
HStem: -23 128<354 451 354 473> 613 128<475.5 543>
VStem: 107 149<212 299.5>
LayerCount: 2
Fore
SplineSet
789 482 m 1
 648 482 l 1
 648 521 644 540 631 560 c 0
 610 595 570 613 516 613 c 0
 435 613 374 578 327 504 c 0
 282 434 256 347 256 265 c 0
 256 159 305 105 403 105 c 0
 499 105 570 157 599 249 c 1
 742 249 l 1
 698 78 564 -23 382 -23 c 0
 211 -23 107 75 107 235 c 0
 107 364 151 499 221 587 c 1
 303 688 410 741 533 741 c 0
 688 741 793 657 793 532 c 0
 793 520 792 509 789 482 c 1
730 936 m 1
 565 786 l 1
 502 786 l 1
 596 936 l 1
 730 936 l 1
EndSplineSet
EndChar

StartChar: Ccaron
Encoding: 268 268 247
Width: 722
Flags: MW
HStem: -23 128<354 451 354 473> 613 128<475.5 543>
VStem: 107 149<212 299.5>
LayerCount: 2
Fore
SplineSet
789 482 m 1
 648 482 l 1
 648 521 644 540 631 560 c 0
 610 595 570 613 516 613 c 0
 435 613 374 578 327 504 c 0
 282 434 256 347 256 265 c 0
 256 159 305 105 403 105 c 0
 499 105 570 157 599 249 c 1
 742 249 l 1
 698 78 564 -23 382 -23 c 0
 211 -23 107 75 107 235 c 0
 107 364 151 499 221 587 c 1
 303 688 410 741 533 741 c 0
 688 741 793 657 793 532 c 0
 793 520 792 509 789 482 c 1
610 789 m 1
 502 789 l 1
 431 936 l 1
 509 936 l 1
 570 839 l 1
 673 936 l 1
 749 936 l 1
 610 789 l 1
EndSplineSet
EndChar

StartChar: Cdotaccent
Encoding: 266 266 248
Width: 722
Flags: MW
HStem: -23 126<352 421> 613 128<479.5 548.5> 800 122<505 589 479 615>
VStem: 108 150<215 299.5 203.5 305>
LayerCount: 2
Fore
SplineSet
784 482 m 1
 641 482 l 1
 641 512 640 520 636 537 c 0
 625 586 582 613 515 613 c 0
 444 613 383 576 330 502 c 0
 284 437 258 346 258 253 c 0
 258 154 306 103 398 103 c 0
 488 103 563 159 591 249 c 1
 738 249 l 1
 718 172 686 117 637 71 c 0
 574 12 474 -23 368 -23 c 0
 280 -23 219 3 173 61 c 0
 132 112 108 181 108 249 c 0
 108 361 153 503 218 591 c 1
 286 686 403 741 534 741 c 0
 615 741 676 719 724 673 c 1
 766 631 788 580 788 522 c 0
 788 516 786 498 784 482 c 1
615 922 m 1
 589 800 l 1
 479 800 l 1
 505 922 l 1
 615 922 l 1
EndSplineSet
EndChar

StartChar: Dcaron
Encoding: 270 270 249
Width: 722
Flags: MW
HStem: 0 125<254 362> 604 125<355 490 355 355>
VStem: 627 149<429.5 514.5>
LayerCount: 2
Fore
SplineSet
77 0 m 1
 232 729 l 1
 517 729 l 2
 698 729 776 654 776 479 c 0
 776 361 736 238 664 140 c 0
 591 39 507 0 362 0 c 2
 77 0 l 1
254 125 m 1
 388 125 l 2
 475 125 524 153 567 228 c 0
 601 287 627 390 627 469 c 0
 627 560 582 604 490 604 c 2
 355 604 l 1
 254 125 l 1
547 789 m 1
 440 789 l 1
 368 936 l 1
 446 936 l 1
 507 839 l 1
 610 936 l 1
 686 936 l 1
 547 789 l 1
EndSplineSet
EndChar

StartChar: Dcroat
Encoding: 272 272 250
Width: 722
Flags: MW
HStem: 0 125<254 362> 341 80<90 150 73 166 316 473> 604 125<355 490 355 355>
VStem: 627 149<429.5 514.5>
LayerCount: 2
Fore
SplineSet
150 341 m 1
 73 341 l 1
 90 421 l 1
 166 421 l 1
 232 729 l 1
 517 729 l 2
 698 729 776 654 776 479 c 0
 776 361 736 238 664 140 c 0
 591 39 507 0 362 0 c 2
 77 0 l 1
 150 341 l 1
300 341 m 1
 254 125 l 1
 388 125 l 2
 475 125 524 153 567 228 c 0
 601 287 627 390 627 469 c 0
 627 560 582 604 490 604 c 2
 355 604 l 1
 316 421 l 1
 490 421 l 1
 473 341 l 1
 300 341 l 1
EndSplineSet
EndChar

StartChar: Ecaron
Encoding: 282 282 251
Width: 667
Flags: MW
HStem: 0 125<256 624> 314 125<296 671 322 645> 604 125<357 735 357 357>
LayerCount: 2
Fore
SplineSet
296 314 m 1
 256 125 l 1
 651 125 l 1
 624 0 l 1
 79 0 l 1
 234 729 l 1
 762 729 l 1
 735 604 l 1
 357 604 l 1
 322 439 l 1
 671 439 l 1
 645 314 l 1
 296 314 l 1
563 789 m 1
 455 789 l 1
 384 936 l 1
 462 936 l 1
 523 839 l 1
 626 936 l 1
 702 936 l 1
 563 789 l 1
EndSplineSet
EndChar

StartChar: Edotaccent
Encoding: 278 278 252
Width: 667
Flags: MW
HStem: 0 125<256 624> 314 125<296 671 322 645> 604 125<357 735 357 357> 798 120<482 566 456 592>
LayerCount: 2
Fore
SplineSet
296 314 m 1
 256 125 l 1
 651 125 l 1
 624 0 l 1
 79 0 l 1
 234 729 l 1
 762 729 l 1
 735 604 l 1
 357 604 l 1
 322 439 l 1
 671 439 l 1
 645 314 l 1
 296 314 l 1
592 918 m 1
 566 798 l 1
 456 798 l 1
 482 918 l 1
 592 918 l 1
EndSplineSet
EndChar

StartChar: Eogonek
Encoding: 280 280 253
Width: 667
Flags: MW
HStem: -233 50<530.5 545> 0 125<256 551 624 624> 314 125<296 671 322 645> 604 125<357 735 357 357>
VStem: 395 100<-157 -135.5>
LayerCount: 2
Fore
SplineSet
296 314 m 1
 256 125 l 1
 651 125 l 1
 624 0 l 1
 533 -51 495 -93 495 -143 c 0
 495 -171 512 -183 549 -183 c 0
 576 -183 597 -180 622 -172 c 1
 611 -224 l 1
 580 -231 559 -233 531 -233 c 0
 444 -233 395 -205 395 -156 c 0
 395 -115 419 -74 463 -43 c 0
 487 -25 507 -15 551 0 c 1
 79 0 l 1
 234 729 l 1
 762 729 l 1
 735 604 l 1
 357 604 l 1
 322 439 l 1
 671 439 l 1
 645 314 l 1
 296 314 l 1
EndSplineSet
EndChar

StartChar: Gbreve
Encoding: 286 286 254
Width: 778
Flags: MW
HStem: -23 128<376.5 441.5> 267 125<503 642 476 795> 613 128<485 566.5> 791 78<552.5 599.5>
VStem: 107 149<232 319.5 232 320> 454 48<863.5 926>
LayerCount: 2
Fore
SplineSet
795 392 m 1
 711 -2 l 1
 621 -2 l 1
 628 88 l 1
 554 9 488 -23 395 -23 c 0
 219 -23 107 88 107 262 c 0
 107 378 155 505 233 596 c 0
 314 691 423 741 547 741 c 0
 710 741 819 656 819 528 c 0
 819 521 818 510 817 496 c 1
 679 496 l 1
 671 572 614 613 519 613 c 0
 434 613 366 576 318 501 c 0
 282 446 256 355 256 284 c 0
 256 180 327 105 426 105 c 0
 484 105 543 130 588 175 c 0
 615 201 629 226 642 267 c 1
 476 267 l 1
 503 392 l 1
 795 392 l 1
678 934 m 1
 721 934 l 1
 707 852 639 791 560 791 c 0
 496 791 454 832 454 895 c 0
 454 907 455 917 459 934 c 1
 502 934 l 1
 502 926 l 2
 502 890 529 869 576 869 c 0
 627 869 662 891 678 934 c 1
EndSplineSet
EndChar

StartChar: Gdotaccent
Encoding: 288 288 255
Width: 778
Flags: MW
HStem: -23 128<370.5 409.5> 267 125<502 641 475 794> 613 128<489 553.5> 800 122<517 601 491 627>
VStem: 109 150<236 314.5 222 326.5>
LayerCount: 2
Fore
SplineSet
794 392 m 1
 710 -2 l 1
 620 -2 l 1
 623 94 l 1
 586 46 571 32 536 14 c 0
 489 -10 437 -23 382 -23 c 0
 286 -23 221 10 166 87 c 0
 128 141 109 201 109 271 c 0
 109 382 155 507 231 600 c 0
 303 689 421 741 551 741 c 0
 632 741 695 720 744 676 c 0
 790 635 817 578 817 522 c 0
 817 515 817 508 816 496 c 1
 675 496 l 1
 670 538 665 554 648 571 c 0
 623 598 579 613 528 613 c 0
 450 613 382 574 327 498 c 0
 284 439 259 355 259 274 c 0
 259 170 321 105 420 105 c 0
 476 105 533 130 584 177 c 0
 614 205 628 227 641 267 c 1
 475 267 l 1
 502 392 l 1
 794 392 l 1
627 922 m 1
 601 800 l 1
 491 800 l 1
 517 922 l 1
 627 922 l 1
EndSplineSet
EndChar

StartChar: Idotaccent
Encoding: 304 304 256
Width: 278
Flags: MW
HStem: 0 20 709 20<218 368 368 368> 798 120<278 362 252 388>
LayerCount: 2
Fore
SplineSet
368 729 m 1
 213 0 l 1
 63 0 l 1
 218 729 l 1
 368 729 l 1
388 918 m 1
 362 798 l 1
 252 798 l 1
 278 918 l 1
 388 918 l 1
EndSplineSet
EndChar

StartChar: Lacute
Encoding: 313 313 257
Width: 611
Flags: MW
HStem: 0 125<257 579> 709 20<235 385 385 385>
LayerCount: 2
Fore
SplineSet
385 729 m 1
 257 125 l 1
 606 125 l 1
 579 0 l 1
 80 0 l 1
 235 729 l 1
 385 729 l 1
494 936 m 1
 336 786 l 1
 266 786 l 1
 368 936 l 1
 494 936 l 1
EndSplineSet
EndChar

StartChar: Lcaron
Encoding: 317 317 258
Width: 611
Flags: MW
HStem: 0 125<257 579> 617 112<485 528 235 461>
LayerCount: 2
Fore
SplineSet
385 729 m 1
 257 125 l 1
 606 125 l 1
 579 0 l 1
 80 0 l 1
 235 729 l 1
 385 729 l 1
485 729 m 1
 607 729 l 1
 586 633 l 1
 576 555 509 488 433 482 c 1
 443 528 l 1
 487 536 522 572 528 617 c 1
 461 617 l 1
 485 729 l 1
EndSplineSet
EndChar

StartChar: Nacute
Encoding: 323 323 259
Width: 722
Flags: MW
HStem: 0 20 709 20<223 373 373 373 674 816 816 816>
LayerCount: 2
Fore
SplineSet
816 729 m 1
 661 0 l 1
 513 0 l 1
 321 523 l 1
 210 0 l 1
 68 0 l 1
 223 729 l 1
 373 729 l 1
 565 214 l 1
 674 729 l 1
 816 729 l 1
690 936 m 1
 531 786 l 1
 462 786 l 1
 563 936 l 1
 690 936 l 1
EndSplineSet
EndChar

StartChar: Ncaron
Encoding: 327 327 260
Width: 722
Flags: MW
HStem: 0 20 709 20<223 373 373 373 674 816 816 816>
LayerCount: 2
Fore
SplineSet
816 729 m 1
 661 0 l 1
 513 0 l 1
 321 523 l 1
 210 0 l 1
 68 0 l 1
 223 729 l 1
 373 729 l 1
 565 214 l 1
 674 729 l 1
 816 729 l 1
577 789 m 1
 470 789 l 1
 398 936 l 1
 476 936 l 1
 537 839 l 1
 640 936 l 1
 716 936 l 1
 577 789 l 1
EndSplineSet
EndChar

StartChar: Ohungarumlaut
Encoding: 336 336 261
Width: 778
Flags: MW
HStem: -23 128<368 457.5 368 459.5> 613 128<480.5 569>
VStem: 106 149<227.5 318.5> 679 149<397.5 492>
LayerCount: 2
Fore
SplineSet
538 741 m 0
 721 741 828 636 828 455 c 0
 828 337 783 215 705 124 c 0
 619 22 524 -23 395 -23 c 0
 217 -23 106 86 106 261 c 0
 106 376 153 502 231 595 c 0
 313 693 414 741 538 741 c 0
519 613 m 0
 442 613 377 577 327 509 c 0
 283 448 255 360 255 282 c 0
 255 173 317 105 419 105 c 0
 496 105 559 139 609 210 c 0
 652 270 679 358 679 437 c 0
 679 547 619 613 519 613 c 0
653 936 m 1
 495 789 l 1
 425 789 l 1
 526 936 l 1
 653 936 l 1
841 936 m 1
 683 789 l 1
 613 789 l 1
 714 936 l 1
 841 936 l 1
EndSplineSet
EndChar

StartChar: Racute
Encoding: 340 340 262
Width: 722
Flags: W
HStem: 0 20 289 125<291 499 318 463> 604 125<358 526 358 358>
VStem: 510 155<34.5 64.5> 548 148<228 289> 636 149<520 598>
LayerCount: 2
Fore
SplineSet
291 289 m 1xe8
 230 0 l 1
 80 0 l 1
 235 729 l 1
 612 729 l 2
 670 729 710 715 742 683 c 0
 769 656 785 617 785 579 c 0xe4
 785 523 760 460 721 420 c 0
 697 395 671 378 618 352 c 1
 670 335 696 308 696 270 c 0xe8
 696 245 691 210 668 87 c 0
 666 77 665 68 665 61 c 0
 665 47 670 37 683 27 c 1
 677 0 l 1
 518 0 l 1
 512 18 510 28 510 41 c 0xf0
 510 67 517 105 536 173 c 0
 546 210 548 222 548 234 c 0
 548 271 520 289 463 289 c 2
 291 289 l 1xe8
318 414 m 1
 499 414 l 2
 549 414 580 426 606 455 c 0
 625 475 636 506 636 534 c 0
 636 553 628 570 614 583 c 1
 595 598 572 604 526 604 c 2
 358 604 l 1
 318 414 l 1
673 936 m 1
 515 786 l 1
 445 786 l 1
 546 936 l 1
 673 936 l 1
EndSplineSet
EndChar

StartChar: Rcaron
Encoding: 344 344 263
Width: 722
Flags: W
HStem: 0 20 289 125<291 499 318 463> 604 125<358 526 358 358>
VStem: 510 155<34.5 64.5> 548 148<228 289> 636 149<520 598>
LayerCount: 2
Fore
SplineSet
291 289 m 1xe8
 230 0 l 1
 80 0 l 1
 235 729 l 1
 612 729 l 2
 670 729 710 715 742 683 c 0
 769 656 785 617 785 579 c 0xe4
 785 523 760 460 721 420 c 0
 697 395 671 378 618 352 c 1
 670 335 696 308 696 270 c 0xe8
 696 245 691 210 668 87 c 0
 666 77 665 68 665 61 c 0
 665 47 670 37 683 27 c 1
 677 0 l 1
 518 0 l 1
 512 18 510 28 510 41 c 0xf0
 510 67 517 105 536 173 c 0
 546 210 548 222 548 234 c 0
 548 271 520 289 463 289 c 2
 291 289 l 1xe8
318 414 m 1
 499 414 l 2
 549 414 580 426 606 455 c 0
 625 475 636 506 636 534 c 0
 636 553 628 570 614 583 c 1
 595 598 572 604 526 604 c 2
 358 604 l 1
 318 414 l 1
564 789 m 1
 456 789 l 1
 385 936 l 1
 463 936 l 1
 524 839 l 1
 627 936 l 1
 703 936 l 1
 564 789 l 1
EndSplineSet
EndChar

StartChar: Sacute
Encoding: 346 346 264
Width: 667
Flags: W
HStem: -23 128<321 406> 613 128<424.5 490>
VStem: 76 148<167 181> 151 149<490 507.5> 538 149<232 239.5> 579 146<527.5 623>
LayerCount: 2
Fore
SplineSet
717 507 m 1xd4
 577 507 l 1
 578 516 579 525 579 530 c 0
 579 584 533 613 447 613 c 0
 356 613 300 573 300 509 c 0xd4
 300 471 327 455 421 436 c 2
 530 414 l 2
 632 394 687 342 687 265 c 0
 687 199 660 127 618 79 c 0
 560 12 467 -23 345 -23 c 0
 248 -23 180 -2 132 42 c 0
 96 75 76 121 76 174 c 0
 76 188 77 198 80 218 c 1
 226 218 l 1
 225 209 224 200 224 196 c 0
 224 138 276 105 366 105 c 0
 471 105 538 148 538 216 c 0xe8
 538 263 509 283 418 301 c 2
 320 321 l 2
 201 345 151 389 151 472 c 0
 151 543 186 618 243 667 c 0
 300 717 376 741 473 741 c 0
 632 741 725 677 725 569 c 0
 725 549 723 535 717 507 c 1xd4
649 936 m 1
 491 786 l 1
 421 786 l 1
 522 936 l 1
 649 936 l 1
EndSplineSet
EndChar

StartChar: Scedilla
Encoding: 350 350 265
Width: 667
Flags: W
HStem: -220 50<258.5 292 258.5 322.5> -93 198<287.5 418.5> 613 128<424.5 490>
VStem: 76 148<167 181> 151 149<490 507.5> 340 87<-138.5 -116> 538 149<223.5 239.5> 579 146<527.5 623>
LayerCount: 2
Fore
SplineSet
347 -23 m 1xea
 320 -62 l 1
 336 -58 348 -56 364 -56 c 0
 403 -56 427 -77 427 -113 c 0
 427 -178 368 -220 277 -220 c 0
 232 -220 201 -213 144 -191 c 1
 174 -140 l 1
 222 -163 244 -170 273 -170 c 0
 311 -170 340 -151 340 -126 c 0
 340 -106 322 -93 296 -93 c 0
 279 -93 267 -96 243 -106 c 1
 298 -22 l 1
 220 -10 189 -1 156 22 c 0
 104 58 76 111 76 174 c 0
 76 188 77 198 80 218 c 1
 226 218 l 1
 225 209 224 200 224 196 c 0
 224 138 276 105 366 105 c 0
 471 105 538 148 538 216 c 0xf6
 538 263 509 283 418 301 c 2
 320 321 l 2
 201 345 151 389 151 472 c 0
 151 543 186 618 243 667 c 0
 300 717 376 741 473 741 c 0
 632 741 725 677 725 569 c 0
 725 549 723 535 717 507 c 1
 577 507 l 1
 578 516 579 525 579 530 c 0xe9
 579 584 533 613 447 613 c 0
 356 613 300 573 300 509 c 0
 300 471 327 455 421 436 c 2
 530 414 l 2
 632 394 687 342 687 265 c 0
 687 182 647 96 586 48 c 0
 526 0 451 -22 347 -23 c 1xea
EndSplineSet
EndChar

StartChar: Tcaron
Encoding: 356 356 266
Width: 611
Flags: MW
HStem: 0 20 604 125<169 364 142 753 514 726 514 514>
LayerCount: 2
Fore
SplineSet
514 604 m 1
 385 0 l 1
 235 0 l 1
 364 604 l 1
 142 604 l 1
 169 729 l 1
 753 729 l 1
 726 604 l 1
 514 604 l 1
531 789 m 1
 424 789 l 1
 353 936 l 1
 431 936 l 1
 491 839 l 1
 594 936 l 1
 671 936 l 1
 531 789 l 1
EndSplineSet
EndChar

StartChar: Uring
Encoding: 366 366 267
Width: 722
Flags: MW
HStem: -23 128<354.5 410> 709 20<231 381 381 381 659 809 809 809> 773 50<528 551.5 528 556> 903 50<543.5 566.5>
VStem: 119 152<163 179> 455 49<846 867.5 846 872.5> 590 49<859.5 881>
LayerCount: 2
Fore
SplineSet
659 729 m 1
 809 729 l 1
 704 235 l 2
 686 152 654 96 597 51 c 0
 536 3 454 -23 366 -23 c 0
 214 -23 119 51 119 168 c 0
 119 190 123 220 130 255 c 2
 231 729 l 1
 381 729 l 1
 276 235 l 2
 273 219 271 205 271 190 c 0
 271 136 316 105 393 105 c 0
 485 105 535 145 554 235 c 2
 659 729 l 1
567 953 m 0
 609 953 639 923 639 882 c 0
 639 825 585 773 527 773 c 0
 485 773 455 803 455 844 c 0
 455 901 509 953 567 953 c 0
557 903 m 0
 530 903 504 880 504 855 c 0
 504 837 518 823 538 823 c 0
 565 823 590 847 590 872 c 0
 590 890 576 903 557 903 c 0
EndSplineSet
EndChar

StartChar: Uhungarumlaut
Encoding: 368 368 268
Width: 722
Flags: MW
HStem: -23 128<354.5 410> 709 20<231 381 381 381 659 809 809 809>
VStem: 119 152<163 179>
LayerCount: 2
Fore
SplineSet
659 729 m 1
 809 729 l 1
 704 235 l 2
 686 152 654 96 597 51 c 0
 536 3 454 -23 366 -23 c 0
 214 -23 119 51 119 168 c 0
 119 190 123 220 130 255 c 2
 231 729 l 1
 381 729 l 1
 276 235 l 2
 273 219 271 205 271 190 c 0
 271 136 316 105 393 105 c 0
 485 105 535 145 554 235 c 2
 659 729 l 1
608 936 m 1
 450 789 l 1
 380 789 l 1
 482 936 l 1
 608 936 l 1
796 936 m 1
 638 789 l 1
 568 789 l 1
 670 936 l 1
 796 936 l 1
EndSplineSet
EndChar

StartChar: Zacute
Encoding: 377 377 269
Width: 611
Flags: MW
HStem: 0 125<57 57 232 578 30 57> 604 125<185 531 158 733 706 706>
LayerCount: 2
Fore
SplineSet
733 729 m 1
 706 604 l 1
 232 125 l 1
 605 125 l 1
 578 0 l 1
 30 0 l 1
 57 125 l 1
 531 604 l 1
 158 604 l 1
 185 729 l 1
 733 729 l 1
624 936 m 1
 466 786 l 1
 396 786 l 1
 498 936 l 1
 624 936 l 1
EndSplineSet
EndChar

StartChar: Zdotaccent
Encoding: 379 379 270
Width: 611
Flags: MW
HStem: 0 125<57 57 232 578 30 57> 604 125<185 531 158 733 706 706> 798 120<439 524 413 549>
LayerCount: 2
Fore
SplineSet
733 729 m 1
 706 604 l 1
 232 125 l 1
 605 125 l 1
 578 0 l 1
 30 0 l 1
 57 125 l 1
 531 604 l 1
 158 604 l 1
 185 729 l 1
 733 729 l 1
549 918 m 1
 524 798 l 1
 413 798 l 1
 439 918 l 1
 549 918 l 1
EndSplineSet
EndChar

StartChar: Amacron
Encoding: 256 256 271
Width: 722
Flags: MW
HStem: 0 20 147 125<329 518 329 532 260 518> 709 20<433 606 606 606> 821 80<406 689 389 706>
LayerCount: 2
Fore
SplineSet
532 147 m 1
 260 147 l 1
 179 0 l 1
 26 0 l 1
 433 729 l 1
 606 729 l 1
 703 0 l 1
 550 0 l 1
 532 147 l 1
518 272 m 1
 483 555 l 1
 329 272 l 1
 518 272 l 1
706 901 m 1
 689 821 l 1
 389 821 l 1
 406 901 l 1
 706 901 l 1
EndSplineSet
EndChar

StartChar: Tcommaaccent
Encoding: 354 354 272
Width: 611
Flags: MW
HStem: -172 112<237 280 214 359> 0 20 604 125<169 364 142 753 514 726 514 514>
LayerCount: 2
Fore
SplineSet
514 604 m 1
 385 0 l 1
 235 0 l 1
 364 604 l 1
 142 604 l 1
 169 729 l 1
 753 729 l 1
 726 604 l 1
 514 604 l 1
237 -60 m 1
 359 -60 l 1
 339 -156 l 1
 328 -234 261 -301 185 -307 c 1
 195 -261 l 1
 240 -253 274 -217 280 -172 c 1
 214 -172 l 1
 237 -60 l 1
EndSplineSet
EndChar

StartChar: uni021A
Encoding: 538 538 273
Width: 611
Flags: MW
HStem: -172 112<237 280 214 359> 0 20 604 125<169 364 142 753 514 726 514 514>
LayerCount: 2
Fore
SplineSet
514 604 m 1
 385 0 l 1
 235 0 l 1
 364 604 l 1
 142 604 l 1
 169 729 l 1
 753 729 l 1
 726 604 l 1
 514 604 l 1
237 -60 m 1
 359 -60 l 1
 339 -156 l 1
 328 -234 261 -301 185 -307 c 1
 195 -261 l 1
 240 -253 274 -217 280 -172 c 1
 214 -172 l 1
 237 -60 l 1
EndSplineSet
EndChar

StartChar: Ccircumflex
Encoding: 264 264 274
Width: 722
Flags: MW
HStem: -23 128<354.5 451 354.5 473> 613 128<475.5 543>
VStem: 107 149<211.5 299.5>
LayerCount: 2
Fore
SplineSet
789 482 m 1
 648 482 l 1
 648 521 644 540 631 560 c 0
 610 595 570 613 516 613 c 0
 435 613 374 578 327 504 c 0
 282 434 256 347 256 264 c 0
 256 159 306 105 403 105 c 0
 499 105 570 157 599 249 c 1
 742 249 l 1
 698 78 564 -23 382 -23 c 0
 211 -23 107 75 107 235 c 0
 107 364 151 499 221 587 c 1
 303 688 410 741 533 741 c 0
 688 741 793 657 793 532 c 0
 793 520 792 509 789 482 c 1
515 937 m 1
 622 937 l 1
 694 790 l 1
 616 790 l 1
 555 887 l 1
 452 790 l 1
 376 790 l 1
 515 937 l 1
EndSplineSet
EndChar

StartChar: Wcircumflex
Encoding: 372 372 275
Width: 944
Flags: MW
HStem: 0 20 709 20<168 327 327 327 548 706 706 706 928 1087 1087 1087>
LayerCount: 2
Fore
SplineSet
730 0 m 1
 595 0 l 1
 591 555 l 1
 354 0 l 1
 219 0 l 1
 168 729 l 1
 327 729 l 1
 324 183 l 1
 548 729 l 1
 706 729 l 1
 703 181 l 1
 928 729 l 1
 1087 729 l 1
 730 0 l 1
603 936 m 1
 710 936 l 1
 782 789 l 1
 704 789 l 1
 643 886 l 1
 540 789 l 1
 464 789 l 1
 603 936 l 1
EndSplineSet
EndChar

StartChar: Wdieresis
Encoding: 7812 7812 276
Width: 944
Flags: MW
HStem: 0 20 709 20<168 327 327 327 548 706 706 706 928 1087 1087 1087> 800 120<513 597 487 623 513 673 699 783>
LayerCount: 2
Fore
SplineSet
730 0 m 1
 595 0 l 1
 591 555 l 1
 354 0 l 1
 219 0 l 1
 168 729 l 1
 327 729 l 1
 324 183 l 1
 548 729 l 1
 706 729 l 1
 703 181 l 1
 928 729 l 1
 1087 729 l 1
 730 0 l 1
623 920 m 1
 597 800 l 1
 487 800 l 1
 513 920 l 1
 623 920 l 1
809 920 m 1
 783 800 l 1
 673 800 l 1
 699 920 l 1
 809 920 l 1
EndSplineSet
EndChar

StartChar: Ycircumflex
Encoding: 374 374 277
Width: 667
Flags: MW
HStem: 0 20 709 20<182 349 349 349 638 805 805 805>
LayerCount: 2
Fore
SplineSet
477 270 m 1
 419 0 l 1
 269 0 l 1
 327 270 l 1
 182 729 l 1
 349 729 l 1
 431 414 l 1
 638 729 l 1
 805 729 l 1
 477 270 l 1
467 936 m 1
 575 936 l 1
 646 789 l 1
 568 789 l 1
 507 886 l 1
 404 789 l 1
 328 789 l 1
 467 936 l 1
EndSplineSet
EndChar

StartChar: Hbar
Encoding: 294 294 278
Width: 722
Flags: MW
HStem: 0 20 331 125<315 577 288 604> 537 80<132 182 115 199 349 621 788 838> 709 20<223 373 373 373 661 812 812 812>
LayerCount: 2
Fore
SplineSet
577 331 m 1
 288 331 l 1
 218 0 l 1
 68 0 l 1
 182 537 l 1
 115 537 l 1
 132 617 l 1
 199 617 l 1
 223 729 l 1
 373 729 l 1
 349 617 l 1
 638 617 l 1
 661 729 l 1
 812 729 l 1
 788 617 l 1
 855 617 l 1
 838 537 l 1
 771 537 l 1
 657 0 l 1
 507 0 l 1
 577 331 l 1
604 456 m 1
 621 537 l 1
 332 537 l 1
 315 456 l 1
 604 456 l 1
EndSplineSet
EndChar

StartChar: Emacron
Encoding: 274 274 279
Width: 667
Flags: MW
HStem: 0 125<256 624> 314 125<296 671 322 645> 604 125<357 735 357 357> 821 80<386 670 369 686>
LayerCount: 2
Fore
SplineSet
296 314 m 1
 256 125 l 1
 651 125 l 1
 624 0 l 1
 79 0 l 1
 234 729 l 1
 762 729 l 1
 735 604 l 1
 357 604 l 1
 322 439 l 1
 671 439 l 1
 645 314 l 1
 296 314 l 1
686 901 m 1
 670 821 l 1
 369 821 l 1
 386 901 l 1
 686 901 l 1
EndSplineSet
EndChar

StartChar: Gcircumflex
Encoding: 284 284 280
Width: 778
Flags: MW
HStem: -23 128<376.5 441.5> 267 125<503 642 476 795> 613 128<485 566.5>
VStem: 107 149<232 319.5 232 320>
LayerCount: 2
Fore
SplineSet
795 392 m 1
 711 -2 l 1
 621 -2 l 1
 628 88 l 1
 554 9 488 -23 395 -23 c 0
 219 -23 107 88 107 262 c 0
 107 378 155 505 233 596 c 0
 315 691 423 741 547 741 c 0
 710 741 819 656 819 529 c 0
 819 521 818 510 817 496 c 1
 679 496 l 1
 671 572 614 613 519 613 c 0
 434 613 366 576 318 501 c 0
 282 446 256 355 256 284 c 0
 256 180 327 105 426 105 c 0
 484 105 543 130 588 175 c 0
 615 201 629 226 642 267 c 1
 476 267 l 1
 503 392 l 1
 795 392 l 1
535 936 m 1
 643 936 l 1
 714 789 l 1
 636 789 l 1
 575 886 l 1
 472 789 l 1
 396 789 l 1
 535 936 l 1
EndSplineSet
EndChar

StartChar: Hcircumflex
Encoding: 292 292 281
Width: 722
Flags: MW
HStem: 0 20 331 125<315 577 288 603> 709 20<223 373 373 373 661 812 812 812>
LayerCount: 2
Fore
SplineSet
577 331 m 1
 288 331 l 1
 218 0 l 1
 68 0 l 1
 223 729 l 1
 373 729 l 1
 315 456 l 1
 603 456 l 1
 661 729 l 1
 812 729 l 1
 657 0 l 1
 507 0 l 1
 577 331 l 1
504 936 m 1
 611 936 l 1
 683 789 l 1
 605 789 l 1
 544 886 l 1
 441 789 l 1
 365 789 l 1
 504 936 l 1
EndSplineSet
EndChar

StartChar: Imacron
Encoding: 298 298 282
Width: 278
Flags: MW
HStem: 0 20 709 20<218 368 368 368> 821 80<193 449 176 466>
LayerCount: 2
Fore
SplineSet
368 729 m 1
 213 0 l 1
 63 0 l 1
 218 729 l 1
 368 729 l 1
466 901 m 1
 449 821 l 1
 176 821 l 1
 193 901 l 1
 466 901 l 1
EndSplineSet
EndChar

StartChar: Iogonek
Encoding: 302 302 283
Width: 278
Flags: MW
HStem: -233 50<135.5 139.5> 0 20 709 20<218 368 368 368>
VStem: 7 97<-153 -126.5>
LayerCount: 2
Fore
SplineSet
368 729 m 1
 213 0 l 1
 153 -32 104 -95 104 -139 c 0
 104 -167 121 -183 150 -183 c 0
 164 -183 192 -178 210 -172 c 1
 199 -224 l 1
 165 -231 151 -233 128 -233 c 0
 53 -233 7 -204 7 -155 c 0
 7 -98 49 -50 139 0 c 1
 63 0 l 1
 218 729 l 1
 368 729 l 1
EndSplineSet
EndChar

StartChar: Jcircumflex
Encoding: 308 308 284
Width: 556
Flags: MW
HStem: -23 128<257.5 280.5> 709 20<491 641 641 641>
VStem: 59 152<143 143.5>
LayerCount: 2
Fore
SplineSet
491 729 m 1
 641 729 l 1
 526 190 l 2
 510 113 475 55 426 23 c 0
 383 -5 314 -23 247 -23 c 0
 130 -23 59 36 59 133 c 0
 59 154 61 176 66 198 c 2
 81 270 l 1
 231 270 l 1
 215 193 l 2
 212 181 211 169 211 159 c 0
 211 127 238 105 277 105 c 0
 330 105 365 135 376 190 c 2
 491 729 l 1
548 936 m 1
 655 936 l 1
 726 789 l 1
 648 789 l 1
 588 886 l 1
 485 789 l 1
 408 789 l 1
 548 936 l 1
EndSplineSet
EndChar

StartChar: Kcommaaccent
Encoding: 310 310 285
Width: 722
Flags: MW
HStem: -172 112<305 348 282 427> 0 20 709 20<229 379 379 379 665 843 843 843>
LayerCount: 2
Fore
SplineSet
274 234 m 1
 224 0 l 1
 74 0 l 1
 229 729 l 1
 379 729 l 1
 311 409 l 1
 665 729 l 1
 843 729 l 1
 482 410 l 1
 717 0 l 1
 538 0 l 1
 365 314 l 1
 274 234 l 1
305 -60 m 1
 427 -60 l 1
 407 -156 l 1
 396 -234 329 -301 253 -307 c 1
 263 -261 l 1
 308 -253 342 -216 348 -172 c 1
 282 -172 l 1
 305 -60 l 1
EndSplineSet
EndChar

StartChar: Lcommaaccent
Encoding: 315 315 286
Width: 611
Flags: MW
HStem: -174 112<265 308 241 386> 0 125<257 579> 709 20<235 385 385 385>
LayerCount: 2
Fore
SplineSet
385 729 m 1
 257 125 l 1
 606 125 l 1
 579 0 l 1
 80 0 l 1
 235 729 l 1
 385 729 l 1
265 -62 m 1
 386 -62 l 1
 366 -158 l 1
 356 -236 288 -303 213 -309 c 1
 222 -263 l 1
 267 -255 302 -218 308 -174 c 1
 241 -174 l 1
 265 -62 l 1
EndSplineSet
EndChar

StartChar: Ncommaaccent
Encoding: 325 325 287
Width: 722
Flags: MW
HStem: -172 112<288 331 264 409> 0 20 709 20<223 373 373 373 674 816 816 816>
LayerCount: 2
Fore
SplineSet
816 729 m 1
 661 0 l 1
 513 0 l 1
 321 523 l 1
 210 0 l 1
 68 0 l 1
 223 729 l 1
 373 729 l 1
 565 214 l 1
 674 729 l 1
 816 729 l 1
288 -60 m 1
 409 -60 l 1
 389 -156 l 1
 379 -234 311 -301 236 -307 c 1
 245 -261 l 1
 290 -253 325 -216 331 -172 c 1
 264 -172 l 1
 288 -60 l 1
EndSplineSet
EndChar

StartChar: Omacron
Encoding: 332 332 288
Width: 778
Flags: MW
HStem: -23 128<368 457.5 368 459.5> 613 128<480.5 569> 821 80<433 716 416 733>
VStem: 106 149<227.5 318.5> 679 149<397.5 492>
LayerCount: 2
Fore
SplineSet
538 741 m 0
 721 741 828 636 828 455 c 0
 828 337 783 215 705 124 c 0
 619 22 524 -23 395 -23 c 0
 217 -23 106 86 106 261 c 0
 106 376 153 502 231 595 c 0
 313 693 414 741 538 741 c 0
519 613 m 0
 442 613 377 577 327 509 c 0
 283 448 255 360 255 282 c 0
 255 173 317 105 419 105 c 0
 496 105 559 139 609 210 c 0
 652 270 679 358 679 437 c 0
 679 547 619 613 519 613 c 0
733 901 m 1
 716 821 l 1
 416 821 l 1
 433 901 l 1
 733 901 l 1
EndSplineSet
EndChar

StartChar: Rcommaaccent
Encoding: 342 342 289
Width: 722
Flags: W
HStem: -172 112<298 341 275 420> 0 20 289 125<291 499 318 463> 604 125<358 526 358 358>
VStem: 510 155<34.5 64.5> 548 148<228 289> 636 149<520 598>
LayerCount: 2
Fore
SplineSet
291 289 m 1xf4
 230 0 l 1
 80 0 l 1
 235 729 l 1
 612 729 l 2
 670 729 710 715 742 683 c 0
 769 656 785 617 785 579 c 0xf2
 785 523 760 460 721 420 c 0
 697 395 671 378 618 352 c 1
 670 335 696 308 696 270 c 0xf4
 696 245 691 210 668 87 c 0
 666 77 665 68 665 61 c 0
 665 47 670 37 683 27 c 1
 677 0 l 1
 518 0 l 1
 512 18 510 28 510 41 c 0xf8
 510 67 517 105 536 173 c 0
 546 210 548 222 548 234 c 0
 548 271 520 289 463 289 c 2
 291 289 l 1xf4
318 414 m 1
 499 414 l 2
 549 414 580 426 606 455 c 0
 625 475 636 506 636 534 c 0
 636 553 628 570 614 583 c 1
 595 598 572 604 526 604 c 2
 358 604 l 1
 318 414 l 1
298 -60 m 1
 420 -60 l 1
 400 -156 l 1
 389 -234 322 -301 246 -307 c 1
 256 -261 l 1
 301 -253 335 -216 341 -172 c 1
 275 -172 l 1
 298 -60 l 1
EndSplineSet
EndChar

StartChar: Scircumflex
Encoding: 348 348 290
Width: 667
Flags: W
HStem: -23 128<321.5 406> 613 128<424.5 489.5>
VStem: 76 148<166.5 181> 151 149<490 507.5> 538 149<232 239.5> 579 146<527.5 623>
LayerCount: 2
Fore
SplineSet
717 507 m 1xd4
 577 507 l 1
 578 516 579 525 579 530 c 0
 579 584 532 613 447 613 c 0
 356 613 300 573 300 509 c 0xd4
 300 471 327 455 421 436 c 2
 530 414 l 2
 632 394 687 342 687 265 c 0
 687 199 660 126 618 79 c 0
 560 12 467 -23 345 -23 c 0
 248 -23 180 -2 132 42 c 0
 96 75 76 121 76 174 c 0
 76 188 77 198 80 218 c 1
 226 218 l 1
 225 209 224 200 224 195 c 0
 224 138 276 105 367 105 c 0
 471 105 538 148 538 216 c 0xe8
 538 263 509 283 418 301 c 2
 320 321 l 2
 201 345 151 389 151 472 c 0
 151 543 186 618 243 667 c 0
 300 717 376 741 473 741 c 0
 632 741 725 677 725 569 c 0
 725 549 723 535 717 507 c 1xd4
455 936 m 1
 563 936 l 1
 634 789 l 1
 556 789 l 1
 495 886 l 1
 392 789 l 1
 316 789 l 1
 455 936 l 1
EndSplineSet
EndChar

StartChar: Gcommaaccent
Encoding: 290 290 291
Width: 778
Flags: MW
HStem: -172 112<323 366 299 445> -23 128<376.5 441.5> 267 125<503 642 476 795> 613 128<485 566.5>
VStem: 107 149<232 319.5 232 320>
LayerCount: 2
Fore
SplineSet
795 392 m 1
 711 -2 l 1
 621 -2 l 1
 628 88 l 1
 554 9 488 -23 395 -23 c 0
 219 -23 107 88 107 262 c 0
 107 378 155 505 233 596 c 0
 314 691 423 741 547 741 c 0
 710 741 819 656 819 528 c 0
 819 521 818 510 817 496 c 1
 679 496 l 1
 671 572 614 613 519 613 c 0
 434 613 366 576 318 501 c 0
 282 446 256 355 256 284 c 0
 256 180 327 105 426 105 c 0
 484 105 543 130 588 175 c 0
 615 201 629 226 642 267 c 1
 476 267 l 1
 503 392 l 1
 795 392 l 1
323 -60 m 1
 445 -60 l 1
 424 -156 l 1
 414 -234 346 -301 271 -307 c 1
 281 -261 l 1
 325 -252 360 -217 366 -172 c 1
 299 -172 l 1
 323 -60 l 1
EndSplineSet
EndChar

StartChar: Umacron
Encoding: 362 362 292
Width: 722
Flags: MW
HStem: -23 128<354.5 410> 709 20<231 381 381 381 659 809 809 809> 821 80<407 690 390 707>
VStem: 119 152<163 179>
LayerCount: 2
Fore
SplineSet
659 729 m 1
 809 729 l 1
 704 235 l 2
 686 152 654 96 597 51 c 0
 536 3 454 -23 366 -23 c 0
 214 -23 119 51 119 168 c 0
 119 190 123 220 130 255 c 2
 231 729 l 1
 381 729 l 1
 276 235 l 2
 273 219 271 205 271 190 c 0
 271 136 316 105 393 105 c 0
 485 105 535 145 554 235 c 2
 659 729 l 1
707 901 m 1
 690 821 l 1
 390 821 l 1
 407 901 l 1
 707 901 l 1
EndSplineSet
EndChar

StartChar: Uogonek
Encoding: 370 370 293
Width: 722
Flags: MW
HStem: -233 50<479 494.5> -23 128<354.5 384.5> 709 20<231 381 381 381 659 809 809 809>
VStem: 119 152<163 178.5> 342 100<-154 -139.5>
LayerCount: 2
Fore
SplineSet
569 -172 m 1
 558 -224 l 1
 527 -230 507 -233 482 -233 c 0
 393 -233 342 -205 342 -157 c 0
 342 -122 358 -88 389 -60 c 0
 405 -45 431 -29 473 -10 c 1
 423 -20 401 -23 368 -23 c 0
 215 -23 119 50 119 167 c 0
 119 190 123 221 130 255 c 2
 231 729 l 1
 381 729 l 1
 276 235 l 2
 273 219 271 205 271 190 c 0
 271 136 316 105 393 105 c 0
 485 105 535 145 554 235 c 2
 659 729 l 1
 809 729 l 1
 704 235 l 1
 682 138 649 87 571 28 c 1
 512 -19 496 -33 474 -63 c 0
 452 -93 442 -116 442 -139 c 0
 442 -169 460 -183 498 -183 c 0
 524 -183 548 -180 569 -172 c 1
EndSplineSet
EndChar

StartChar: Ebreve
Encoding: 276 276 294
Width: 667
Flags: MW
HStem: 0 125<256 624> 314 125<296 671 322 645> 604 125<357 735 357 357> 791 78<503.5 550.5>
VStem: 405 48<863 926>
LayerCount: 2
Fore
SplineSet
296 314 m 1
 256 125 l 1
 651 125 l 1
 624 0 l 1
 79 0 l 1
 234 729 l 1
 762 729 l 1
 735 604 l 1
 357 604 l 1
 322 439 l 1
 671 439 l 1
 645 314 l 1
 296 314 l 1
630 934 m 1
 672 934 l 1
 658 852 590 791 511 791 c 0
 447 791 405 832 405 894 c 0
 405 907 406 917 411 934 c 1
 453 934 l 1
 453 926 l 2
 453 890 480 869 527 869 c 0
 578 869 613 891 630 934 c 1
EndSplineSet
EndChar

StartChar: Ibreve
Encoding: 300 300 295
Width: 278
Flags: MW
HStem: 0 20 709 20<219 369 369 369> 791 78<293.5 340.5>
VStem: 195 48<863 926>
LayerCount: 2
Fore
SplineSet
369 729 m 1
 214 0 l 1
 64 0 l 1
 219 729 l 1
 369 729 l 1
419 934 m 1
 462 934 l 1
 448 852 380 791 301 791 c 0
 237 791 195 832 195 894 c 0
 195 908 196 917 200 934 c 1
 243 934 l 1
 243 926 l 2
 243 890 270 869 317 869 c 0
 368 869 403 891 419 934 c 1
EndSplineSet
EndChar

StartChar: ij
Encoding: 307 307 296
Width: 556
Flags: MW
HStem: -218 112<266.5 289 266.5 327> 0 20 520 20<202 342 342 342 453 593 593 593> 604 125<242 355 215 382 242 466 493 606>
LayerCount: 2
Fore
SplineSet
342 540 m 1
 227 0 l 1
 87 0 l 1
 202 540 l 1
 342 540 l 1
382 729 m 1
 355 604 l 1
 215 604 l 1
 242 729 l 1
 382 729 l 1
633 729 m 1
 606 604 l 1
 466 604 l 1
 493 729 l 1
 633 729 l 1
593 540 m 1
 458 -94 l 2
 440 -181 384 -218 270 -218 c 0
 251 -218 239 -217 225 -213 c 1
 249 -102 l 1
 253 -105 259 -106 274 -106 c 0
 304 -106 318 -94 325 -62 c 2
 453 540 l 1
 593 540 l 1
EndSplineSet
EndChar

StartChar: longs
Encoding: 383 383 297
Width: 278
Flags: MW
HStem: 0 20 436 93<98 155 78 174> 625 104<359 369 310 377>
LayerCount: 2
Fore
SplineSet
202 0 m 1
 62 0 l 1
 155 436 l 1
 78 436 l 1
 98 529 l 1
 174 529 l 1
 188 594 l 2
 208 687 261 729 359 729 c 0
 379 729 389 729 436 726 c 1
 414 621 l 1
 389 624 382 625 372 625 c 0
 346 625 332 611 326 582 c 2
 202 0 l 1
EndSplineSet
EndChar

StartChar: abreve
Encoding: 259 259 298
Width: 556
Flags: W
HStem: -23 112<178 300> 0 20 437 112<330.5 388.5> 611 78<396.5 445>
VStem: 50 143<122.5 138> 363 143<22 65> 436 142<383.5 442.5>
LayerCount: 2
Fore
SplineSet
527 17 m 1xa4
 523 0 l 1
 370 0 l 1
 365 11 363 17 363 27 c 0x4c
 363 34 363 39 366 54 c 1
 306 -1 257 -23 200 -23 c 0
 156 -23 122 -13 97 8 c 0
 68 32 50 70 50 108 c 0
 50 168 83 229 136 267 c 0
 167 289 204 303 252 311 c 2
 310 320 l 1
 382 330 382 330 402 341 c 0
 422 351 436 373 436 394 c 0xaa
 436 424 414 437 363 437 c 0xa4
 298 437 268 417 251 362 c 1
 120 362 l 1
 148 492 229 549 386 549 c 0
 457 549 505 537 537 511 c 0
 561 492 578 457 578 428 c 0xa2
 578 416 576 401 572 383 c 2
 509 83 l 2
 507 75 506 68 506 62 c 0
 506 47 512 34 527 17 c 1xa4
400 217 m 2x9c
 408 255 l 1
 396 248 393 247 382 245 c 0
 378 244 371 243 361 241 c 2
 345 238 l 1
 295 230 l 2
 230 219 193 186 193 139 c 0
 193 106 218 89 266 89 c 0
 334 89 382 135 400 217 c 2x9c
524 754 m 1
 567 754 l 1
 553 672 484 611 406 611 c 0
 342 611 300 652 300 714 c 0
 300 727 301 737 305 754 c 1
 348 754 l 1
 349 709 371 689 422 689 c 0
 473 689 508 711 524 754 c 1
EndSplineSet
EndChar

StartChar: aogonek
Encoding: 261 261 299
Width: 556
Flags: W
HStem: -233 50<425.5 442.5> -23 112<178 300> 0 20 437 112<330.5 388.5>
VStem: 50 143<122.5 138> 293 99<-155 -123> 363 143<22 65> 436 142<383.5 442.5>
LayerCount: 2
Fore
SplineSet
527 17 m 1x52
 523 0 l 1
 434 -47 392 -93 392 -140 c 0
 392 -170 408 -183 443 -183 c 0
 474 -183 494 -180 519 -172 c 1
 509 -224 l 1
 477 -231 457 -233 428 -233 c 0
 340 -233 293 -206 293 -154 c 0xac
 293 -92 346 -39 449 0 c 1
 370 0 l 1
 365 11 363 17 363 27 c 0xa2
 363 34 363 39 366 54 c 1
 306 -1 257 -23 200 -23 c 0
 156 -23 122 -13 97 8 c 0
 68 32 50 70 50 108 c 0
 50 168 83 229 136 267 c 0
 167 289 204 303 252 311 c 2
 310 320 l 1
 382 330 382 330 402 341 c 0
 422 351 436 373 436 394 c 0x59
 436 424 414 437 363 437 c 0x52
 298 437 268 417 251 362 c 1
 120 362 l 1
 148 492 229 549 386 549 c 0
 457 549 505 537 537 511 c 0
 561 492 578 457 578 428 c 0x51
 578 416 576 401 572 383 c 2
 509 83 l 2
 507 75 506 68 506 62 c 0
 506 47 512 34 527 17 c 1x52
400 217 m 2x4c
 408 255 l 1
 396 248 393 247 382 245 c 0
 378 244 371 243 361 241 c 2
 345 238 l 1
 295 230 l 2
 230 219 193 186 193 139 c 0
 193 106 218 89 266 89 c 0
 334 89 382 135 400 217 c 2x4c
EndSplineSet
EndChar

StartChar: cacute
Encoding: 263 263 300
Width: 556
Flags: MW
HStem: -23 112<279 336 279 356> 437 112<351 394>
VStem: 77 143<157 219 157 219.5>
LayerCount: 2
Fore
SplineSet
593 338 m 1
 459 338 l 1
 458 376 456 389 448 404 c 1
 435 425 411 437 377 437 c 0
 322 437 285 411 257 352 c 0
 233 303 220 246 220 192 c 0
 220 122 249 89 309 89 c 0
 363 89 396 116 427 187 c 1
 561 187 l 1
 519 53 421 -23 291 -23 c 0
 218 -23 162 -3 126 38 c 0
 95 73 77 122 77 172 c 0
 77 267 119 384 178 454 c 1
 230 518 304 549 398 549 c 0
 465 549 512 532 549 494 c 0
 580 463 597 423 597 381 c 0
 597 371 596 362 593 338 c 1
573 757 m 1
 415 607 l 1
 345 607 l 1
 447 757 l 1
 573 757 l 1
EndSplineSet
EndChar

StartChar: ccaron
Encoding: 269 269 301
Width: 556
Flags: MW
HStem: -23 112<279 336 279 356> 437 112<351 394>
VStem: 77 143<157 219 157 219.5>
LayerCount: 2
Fore
SplineSet
593 338 m 1
 459 338 l 1
 458 376 456 389 448 404 c 1
 435 425 411 437 377 437 c 0
 322 437 285 411 257 352 c 0
 233 303 220 246 220 192 c 0
 220 122 249 89 309 89 c 0
 363 89 396 116 427 187 c 1
 561 187 l 1
 519 53 421 -23 291 -23 c 0
 218 -23 162 -3 126 38 c 0
 95 73 77 122 77 172 c 0
 77 267 119 384 178 454 c 1
 230 518 304 549 398 549 c 0
 465 549 512 532 549 494 c 0
 580 463 597 423 597 381 c 0
 597 371 596 362 593 338 c 1
467 610 m 1
 360 610 l 1
 289 757 l 1
 366 757 l 1
 427 660 l 1
 530 757 l 1
 607 757 l 1
 467 610 l 1
EndSplineSet
EndChar

StartChar: cdotaccent
Encoding: 267 267 302
Width: 556
Flags: MW
HStem: -23 112<279 336 279 356> 437 112<351 394> 621 120<388 473 362 498>
VStem: 77 143<157 219 157 219.5>
LayerCount: 2
Fore
SplineSet
593 338 m 1
 459 338 l 1
 458 376 456 389 448 404 c 1
 435 425 411 437 377 437 c 0
 322 437 285 411 257 352 c 0
 233 303 220 246 220 192 c 0
 220 122 249 89 309 89 c 0
 363 89 396 116 427 187 c 1
 561 187 l 1
 519 53 421 -23 291 -23 c 0
 218 -23 162 -3 126 38 c 0
 95 73 77 122 77 172 c 0
 77 267 119 384 178 454 c 1
 230 518 304 549 398 549 c 0
 465 549 512 532 549 494 c 0
 580 463 597 423 597 381 c 0
 597 371 596 362 593 338 c 1
498 741 m 1
 473 621 l 1
 362 621 l 1
 388 741 l 1
 498 741 l 1
EndSplineSet
EndChar

StartChar: dcaron
Encoding: 271 271 303
Width: 743
Flags: W
HStem: -23 112<293 296> 0 20 437 112<349.5 417 342.5 418> 617 112<771 814 571 747>
VStem: 90 143<170 226>
LayerCount: 2
Fore
SplineSet
416 0 m 1x78
 428 55 l 1
 382 1 330 -23 262 -23 c 0x88
 157 -23 90 58 90 185 c 0
 90 267 119 357 168 428 c 0
 220 503 302 549 383 549 c 0
 451 549 493 524 516 470 c 1
 571 729 l 1
 711 729 l 1
 556 0 l 1
 416 0 l 1x78
391 437 m 0x68
 308 437 233 327 233 206 c 0
 233 134 266 89 320 89 c 0xb8
 406 89 479 197 479 323 c 0
 479 393 445 437 391 437 c 0x68
771 729 m 1
 893 729 l 1
 872 633 l 1
 862 555 794 488 719 482 c 1
 729 528 l 1
 773 536 808 572 814 617 c 1
 747 617 l 1
 771 729 l 1
EndSplineSet
EndChar

StartChar: dcroat
Encoding: 273 273 304
Width: 611
Flags: W
HStem: -23 112<282 285> 0 20 437 112<338.5 406 331.5 407> 596 67<406 532 392 546 686 732> 709 20<560 700 700 700>
VStem: 79 143<170 226>
LayerCount: 2
Fore
SplineSet
546 663 m 1xb4
 560 729 l 1
 700 729 l 1
 686 663 l 1
 746 663 l 1
 732 596 l 1
 672 596 l 1
 545 0 l 1
 405 0 l 1x7c
 417 55 l 1
 371 1 319 -23 251 -23 c 0
 146 -23 79 58 79 185 c 0
 79 267 108 357 157 428 c 0
 209 503 291 549 372 549 c 0
 440 549 482 524 505 470 c 1
 532 596 l 1
 392 596 l 1
 406 663 l 1
 546 663 l 1xb4
380 437 m 0
 297 437 222 328 222 206 c 0
 222 134 255 89 309 89 c 0xa4
 394 89 468 197 468 323 c 0
 468 393 434 437 380 437 c 0
EndSplineSet
EndChar

StartChar: ecaron
Encoding: 283 283 305
Width: 556
Flags: MW
HStem: -23 112<273.5 326 273.5 335.5> 226 93<228 448 228 573 210 448> 437 112<340 384.5>
VStem: 64 143<153.5 186 153.5 235>
LayerCount: 2
Fore
SplineSet
573 226 m 1
 210 226 l 1
 208 201 207 191 207 181 c 0
 207 126 245 89 302 89 c 0
 350 89 395 114 414 152 c 1
 552 152 l 1
 497 40 396 -23 275 -23 c 0
 149 -23 64 61 64 185 c 0
 64 285 110 402 174 469 c 0
 221 518 301 549 379 549 c 0
 452 549 510 525 546 480 c 0
 574 444 591 396 591 350 c 0
 591 312 585 272 573 226 c 1
228 319 m 1
 448 319 l 1
 448 354 448 356 446 366 c 0
 441 409 408 437 361 437 c 0
 295 437 249 397 228 319 c 1
454 610 m 1
 347 610 l 1
 275 757 l 1
 353 757 l 1
 414 660 l 1
 517 757 l 1
 593 757 l 1
 454 610 l 1
EndSplineSet
EndChar

StartChar: edotaccent
Encoding: 279 279 306
Width: 556
Flags: MW
HStem: -23 112<273.5 326 273.5 335.5> 226 93<228 448 228 573 210 448> 437 112<340 384.5> 621 120<372 456 346 482>
VStem: 64 143<153.5 186 153.5 235>
LayerCount: 2
Fore
SplineSet
573 226 m 1
 210 226 l 1
 208 201 207 191 207 181 c 0
 207 126 245 89 302 89 c 0
 350 89 395 114 414 152 c 1
 552 152 l 1
 497 40 396 -23 275 -23 c 0
 149 -23 64 61 64 185 c 0
 64 285 110 402 174 469 c 0
 221 518 301 549 379 549 c 0
 452 549 510 525 546 480 c 0
 574 444 591 396 591 350 c 0
 591 312 585 272 573 226 c 1
228 319 m 1
 448 319 l 1
 448 354 448 356 446 366 c 0
 441 409 408 437 361 437 c 0
 295 437 249 397 228 319 c 1
482 741 m 1
 456 621 l 1
 346 621 l 1
 372 741 l 1
 482 741 l 1
EndSplineSet
EndChar

StartChar: eogonek
Encoding: 281 281 307
Width: 556
Flags: MW
HStem: -233 50<355.5 369> -24 113<273.5 286> 226 93<228 448 228 573 210 448> 437 112<341 384.5>
VStem: 64 143<153 186 153 234> 222 99<-154 -126.5>
LayerCount: 2
Fore
SplineSet
443 -172 m 1
 432 -224 l 1
 401 -231 382 -233 356 -233 c 0
 271 -233 222 -204 222 -152 c 0
 222 -101 249 -69 335 -17 c 1
 308 -23 296 -24 276 -24 c 0
 150 -24 64 60 64 184 c 0
 64 284 110 402 174 469 c 0
 221 518 301 549 379 549 c 0
 452 549 510 525 546 480 c 0
 574 444 591 397 591 351 c 0
 591 313 585 271 573 226 c 1
 210 226 l 1
 208 201 207 191 207 181 c 0
 207 125 245 89 302 89 c 0
 350 89 394 114 414 152 c 1
 552 152 l 1
 526 98 486 53 415 -1 c 1
 359 -46 321 -102 321 -140 c 0
 321 -168 339 -183 372 -183 c 0
 399 -183 422 -180 443 -172 c 1
228 319 m 1
 448 319 l 1
 448 356 448 356 446 366 c 0
 441 409 408 437 361 437 c 0
 321 437 282 418 258 386 c 0
 245 370 237 351 228 319 c 1
EndSplineSet
EndChar

StartChar: gbreve
Encoding: 287 287 308
Width: 611
Flags: W
HStem: -218 90<233 294.5 233 318> -23 112<280 285> 437 112<340 407> 520 20<523 656 656 656> 611 78<428.5 475.5>
VStem: 26 146<-115.5 -77> 79 143<166 215.5> 330 48<683 746.5>
LayerCount: 2
Fore
SplineSet
523 540 m 1x13
 656 540 l 1x13
 537 -18 l 2
 510 -146 401 -218 235 -218 c 0
 173 -218 129 -210 92 -192 c 0
 52 -172 26 -135 26 -96 c 0
 26 -88 27 -77 29 -65 c 1
 173 -65 l 1
 172 -77 l 1xe4
 172 -107 208 -128 258 -128 c 0
 331 -128 390 -84 404 -18 c 2
 420 55 l 1
 356 -4 316 -23 254 -23 c 0
 153 -23 79 57 79 167 c 0
 79 264 116 373 174 445 c 0
 227 511 302 549 378 549 c 0xe3
 437 549 478 520 505 457 c 1
 523 540 l 1x13
379 437 m 0x6b
 297 437 222 324 222 201 c 0
 222 131 254 89 306 89 c 0
 395 89 471 193 471 315 c 0
 471 389 435 437 379 437 c 0x6b
555 754 m 1
 597 754 l 1
 584 672 515 611 436 611 c 0
 372 611 330 652 330 714 c 0
 330 727 331 737 336 754 c 1
 379 754 l 1
 378 750 378 747 378 746 c 0
 378 710 405 689 452 689 c 0
 504 689 539 711 555 754 c 1
EndSplineSet
EndChar

StartChar: gdotaccent
Encoding: 289 289 309
Width: 611
Flags: W
HStem: -218 90<245.5 294.5 245.5 322.5> -23 117<278 287.5> 432 117<339.5 395.5 337.5 409.5> 520 20<522 655 655 655> 621 122<390 474 364 500>
VStem: 80 142<163 223.5>
LayerCount: 2
Fore
SplineSet
522 540 m 1x14
 655 540 l 1x14
 537 -18 l 2
 509 -150 407 -218 238 -218 c 0
 178 -218 135 -210 100 -191 c 0
 59 -170 28 -125 28 -85 c 0
 28 -81 29 -74 30 -65 c 1
 175 -65 l 1
 175 -84 179 -94 187 -103 c 0
 201 -118 230 -128 261 -128 c 0
 328 -128 390 -80 403 -18 c 2
 419 55 l 1
 381 4 323 -23 252 -23 c 0
 201 -23 164 -8 133 25 c 0
 97 65 80 114 80 178 c 0
 80 269 116 372 172 445 c 0
 222 510 299 549 376 549 c 0xe4
 415 549 441 537 468 506 c 0
 488 483 495 474 504 457 c 1
 522 540 l 1x14
381 432 m 0x6c
 298 432 222 318 222 195 c 0
 222 131 252 94 304 94 c 0
 393 94 471 198 471 318 c 0
 471 391 438 432 381 432 c 0x6c
500 743 m 1
 474 621 l 1
 364 621 l 1
 390 743 l 1
 500 743 l 1
EndSplineSet
EndChar

StartChar: lacute
Encoding: 314 314 310
Width: 278
Flags: MW
HStem: 0 20 709 20<222 362 362 362>
LayerCount: 2
Fore
SplineSet
362 729 m 1
 207 0 l 1
 67 0 l 1
 222 729 l 1
 362 729 l 1
474 936 m 1
 316 786 l 1
 246 786 l 1
 348 936 l 1
 474 936 l 1
EndSplineSet
EndChar

StartChar: lcaron
Encoding: 318 318 311
Width: 400
Flags: MW
HStem: 0 20 617 112<422 465 222 398>
LayerCount: 2
Fore
SplineSet
362 729 m 1
 207 0 l 1
 67 0 l 1
 222 729 l 1
 362 729 l 1
422 729 m 1
 544 729 l 1
 523 633 l 1
 513 555 446 488 370 482 c 1
 380 528 l 1
 424 536 459 572 465 617 c 1
 398 617 l 1
 422 729 l 1
EndSplineSet
EndChar

StartChar: nacute
Encoding: 324 324 312
Width: 611
Flags: W
HStem: 0 20 437 112<371 526.5> 520 20<178 318 318 318>
VStem: 479 150<355 457>
LayerCount: 2
Fore
SplineSet
178 540 m 1xb0
 318 540 l 1x30
 300 458 l 1
 354 522 408 549 482 549 c 0
 571 549 629 497 629 417 c 0
 629 399 627 381 623 362 c 2
 546 0 l 1
 406 0 l 1
 473 313 l 2
 477 336 479 348 479 362 c 0
 479 411 453 437 405 437 c 0xd0
 337 437 285 387 268 304 c 2
 203 0 l 1
 63 0 l 1
 178 540 l 1xb0
594 757 m 1
 436 607 l 1
 366 607 l 1
 468 757 l 1
 594 757 l 1
EndSplineSet
EndChar

StartChar: ncaron
Encoding: 328 328 313
Width: 611
Flags: W
HStem: 0 20 437 112<371 526.5> 520 20<178 318 318 318>
VStem: 479 150<355 457>
LayerCount: 2
Fore
SplineSet
178 540 m 1xb0
 318 540 l 1x30
 300 458 l 1
 354 522 408 549 482 549 c 0
 571 549 629 497 629 417 c 0
 629 399 627 381 623 362 c 2
 546 0 l 1
 406 0 l 1
 473 313 l 2
 477 336 479 348 479 362 c 0
 479 411 453 437 405 437 c 0xd0
 337 437 285 387 268 304 c 2
 203 0 l 1
 63 0 l 1
 178 540 l 1xb0
478 610 m 1
 371 610 l 1
 299 757 l 1
 377 757 l 1
 438 660 l 1
 541 757 l 1
 617 757 l 1
 478 610 l 1
EndSplineSet
EndChar

StartChar: ohungarumlaut
Encoding: 337 337 314
Width: 611
Flags: MW
HStem: -23 112<294 350 294 353> 437 112<361 422>
VStem: 82 143<169.5 220> 491 143<305.5 356>
LayerCount: 2
Fore
SplineSet
413 549 m 0
 550 549 634 473 634 349 c 0
 634 262 603 163 555 100 c 0
 494 19 407 -23 299 -23 c 0
 166 -23 82 55 82 177 c 0
 82 263 113 362 161 426 c 0
 220 505 309 549 413 549 c 0
391 437 m 0
 300 437 225 332 225 205 c 0
 225 134 264 89 324 89 c 0
 376 89 422 120 453 176 c 0
 477 218 491 271 491 320 c 0
 491 392 453 437 391 437 c 0
522 757 m 1
 365 610 l 1
 294 610 l 1
 396 757 l 1
 522 757 l 1
710 757 m 1
 553 610 l 1
 482 610 l 1
 584 757 l 1
 710 757 l 1
EndSplineSet
EndChar

StartChar: racute
Encoding: 341 341 315
Width: 389
Flags: W
HStem: 0 20 410 139<373.5 473> 520 20<178 318 318 318>
LayerCount: 2
Fore
SplineSet
178 540 m 1xa0
 318 540 l 1x20
 295 434 l 1
 342 507 405 549 470 549 c 0
 476 549 479 549 487 548 c 1
 457 406 l 1
 439 409 430 410 415 410 c 0x40
 332 410 282 369 264 287 c 2
 203 0 l 1
 63 0 l 1
 178 540 l 1xa0
500 757 m 1
 342 607 l 1
 272 607 l 1
 373 757 l 1
 500 757 l 1
EndSplineSet
EndChar

StartChar: sacute
Encoding: 347 347 316
Width: 556
Flags: W
HStem: -23 112<273.5 337.5 273.5 366> 437 112<347 391.5>
VStem: 127 149<316.5 400> 411 148<128 155.5> 452 137<398 401.5>
LayerCount: 2
Fore
SplineSet
584 366 m 1xe8
 449 366 l 1
 451 375 452 379 452 385 c 0xc8
 452 418 419 437 364 437 c 0
 311 437 276 416 276 384 c 0
 276 364 290 354 341 339 c 2
 437 311 l 2
 520 286 559 247 559 187 c 0
 559 59 451 -23 281 -23 c 0
 219 -23 172 -13 133 10 c 0
 89 35 60 82 60 128 c 0
 60 137 61 143 64 157 c 1
 201 157 l 1
 204 112 240 89 307 89 c 0
 368 89 411 112 411 144 c 0xf0
 411 167 398 176 335 196 c 2
 256 221 l 1
 168 250 127 288 127 345 c 0
 127 396 154 452 198 490 c 0
 242 529 307 549 387 549 c 0
 513 549 589 495 589 404 c 0
 589 392 588 384 584 366 c 1xe8
570 757 m 1
 412 607 l 1
 342 607 l 1
 443 757 l 1
 570 757 l 1
EndSplineSet
EndChar

StartChar: scircumflex
Encoding: 349 349 317
Width: 556
Flags: W
HStem: -23 112<273.5 337.5 273.5 366> 437 112<347 391.5>
VStem: 127 149<316.5 400> 411 148<128 155.5> 452 137<398 401.5>
LayerCount: 2
Fore
SplineSet
584 366 m 1xe8
 449 366 l 1
 451 375 452 379 452 385 c 0xc8
 452 418 419 437 364 437 c 0
 311 437 276 416 276 384 c 0
 276 364 290 354 341 339 c 2
 437 311 l 2
 520 286 559 247 559 187 c 0
 559 59 451 -23 281 -23 c 0
 219 -23 172 -13 133 10 c 0
 89 35 60 82 60 128 c 0
 60 137 61 143 64 157 c 1
 201 157 l 1
 204 112 240 89 307 89 c 0
 368 89 411 112 411 144 c 0xf0
 411 167 398 176 335 196 c 2
 256 221 l 1
 168 250 127 288 127 345 c 0
 127 396 154 452 198 490 c 0
 242 529 307 549 387 549 c 0
 513 549 589 495 589 404 c 0
 589 392 588 384 584 366 c 1xe8
391 757 m 1
 498 757 l 1
 569 610 l 1
 492 610 l 1
 431 707 l 1
 328 610 l 1
 251 610 l 1
 391 757 l 1
EndSplineSet
EndChar

StartChar: scommaaccent
Encoding: 537 537 318
Width: 556
Flags: W
HStem: -172 112<210 253 186 332> -23 112<289.5 337.5 289.5 366> 437 112<347 391.5>
VStem: 127 149<316.5 400> 411 148<128 155.5> 452 137<398 401>
LayerCount: 2
Fore
SplineSet
584 366 m 1xf4
 449 366 l 1
 451 375 452 379 452 384 c 0xe4
 452 418 419 437 364 437 c 0
 311 437 276 416 276 384 c 0
 276 364 290 354 341 339 c 2
 437 311 l 2
 520 286 559 247 559 187 c 0
 559 59 451 -23 281 -23 c 0
 219 -23 172 -13 133 10 c 0
 89 35 60 82 60 128 c 0
 60 137 61 144 64 157 c 1
 201 157 l 1
 202 134 208 123 222 111 c 1
 241 97 272 89 307 89 c 0
 368 89 411 112 411 144 c 0xf8
 411 167 398 176 335 196 c 2
 256 221 l 2
 167 250 127 288 127 345 c 0
 127 396 154 452 198 490 c 0
 242 529 307 549 387 549 c 0
 513 549 589 495 589 404 c 0
 589 392 588 384 584 366 c 1xf4
210 -60 m 1
 332 -60 l 1
 311 -156 l 1
 301 -234 233 -301 158 -307 c 1
 168 -261 l 1
 212 -252 246 -217 253 -172 c 1
 186 -172 l 1
 210 -60 l 1
EndSplineSet
EndChar

StartChar: tcaron
Encoding: 357 357 319
Width: 389
Flags: MW
HStem: -23 20 436 93<127 176 107 196 336 394> 717 112<456 499 432 577>
VStem: 101 147<35 110>
LayerCount: 2
Fore
SplineSet
414 529 m 1
 394 436 l 1
 316 436 l 1
 254 142 l 2
 250 125 248 112 248 108 c 0
 248 92 262 83 286 83 c 0
 297 83 305 84 319 86 c 1
 299 -12 l 1
 271 -20 247 -23 214 -23 c 0
 141 -23 101 7 101 63 c 0
 101 76 103 90 106 104 c 2
 176 436 l 1
 107 436 l 1
 127 529 l 1
 196 529 l 1
 227 674 l 1
 367 674 l 1
 336 529 l 1
 414 529 l 1
456 829 m 1
 577 829 l 1
 557 733 l 1
 547 655 479 588 404 582 c 1
 413 628 l 1
 458 636 493 672 499 717 c 1
 432 717 l 1
 456 829 l 1
EndSplineSet
EndChar

StartChar: uring
Encoding: 367 367 320
Width: 611
Flags: W
HStem: -23 112<190 346.5> 0 20 520 20<174 314 314 314 516 656 656 656> 593 50<426 449.5 426 454> 723 50<441.5 464.5>
VStem: 88 150<69 171.5> 353 49<666 687.5 666 692.5> 488 49<679.5 701>
LayerCount: 2
Fore
SplineSet
541 0 m 1x67
 401 0 l 1x5f
 416 68 l 1
 361 4 308 -23 234 -23 c 0
 146 -23 88 29 88 109 c 0
 88 127 90 145 94 164 c 2
 174 540 l 1
 314 540 l 1
 245 213 l 2
 239 188 238 179 238 164 c 0
 238 114 263 89 314 89 c 0xa7
 379 89 431 141 448 222 c 2
 516 540 l 1
 656 540 l 1
 541 0 l 1x67
464 773 m 0
 507 773 537 744 537 702 c 0
 537 645 483 593 425 593 c 0
 383 593 353 623 353 664 c 0
 353 721 407 773 464 773 c 0
455 723 m 0
 428 723 402 700 402 675 c 0
 402 657 416 643 436 643 c 0
 463 643 488 667 488 692 c 0
 488 710 474 723 455 723 c 0
EndSplineSet
EndChar

StartChar: uhungarumlaut
Encoding: 369 369 321
Width: 611
Flags: W
HStem: -23 112<190 346.5> 0 20 520 20<174 314 314 314 516 656 656 656>
VStem: 88 150<69 171.5>
LayerCount: 2
Fore
SplineSet
541 0 m 1x70
 401 0 l 1x50
 416 68 l 1
 361 4 308 -23 234 -23 c 0
 146 -23 88 29 88 109 c 0
 88 127 90 145 94 164 c 2
 174 540 l 1
 314 540 l 1
 245 213 l 2
 239 188 238 179 238 164 c 0
 238 114 263 89 314 89 c 0xb0
 379 89 431 141 448 222 c 2
 516 540 l 1
 656 540 l 1
 541 0 l 1x70
509 757 m 1
 351 610 l 1
 281 610 l 1
 383 757 l 1
 509 757 l 1
697 757 m 1
 539 610 l 1
 469 610 l 1
 571 757 l 1
 697 757 l 1
EndSplineSet
EndChar

StartChar: zacute
Encoding: 378 378 322
Width: 500
Flags: MW
HStem: 0 113<45 45 219 469 21 45> 427 113<154 379 130 575 551 551>
LayerCount: 2
Fore
SplineSet
575 540 m 1
 551 427 l 1
 219 113 l 1
 493 113 l 1
 469 0 l 1
 21 0 l 1
 45 113 l 1
 379 427 l 1
 130 427 l 1
 154 540 l 1
 575 540 l 1
542 757 m 1
 384 607 l 1
 314 607 l 1
 415 757 l 1
 542 757 l 1
EndSplineSet
EndChar

StartChar: zdotaccent
Encoding: 380 380 323
Width: 500
Flags: MW
HStem: 0 113<45 45 219 469 21 45> 427 113<154 379 130 575 551 551> 621 120<354 438 328 464>
LayerCount: 2
Fore
SplineSet
575 540 m 1
 551 427 l 1
 219 113 l 1
 493 113 l 1
 469 0 l 1
 21 0 l 1
 45 113 l 1
 379 427 l 1
 130 427 l 1
 154 540 l 1
 575 540 l 1
464 741 m 1
 438 621 l 1
 328 621 l 1
 354 741 l 1
 464 741 l 1
EndSplineSet
EndChar

StartChar: hbar
Encoding: 295 295 324
Width: 611
Flags: MW
HStem: 0 20 430 119<377 524> 592 80<148 193 131 210 350 513> 709 20<222 362 362 362>
VStem: 477 147<367 456.5>
LayerCount: 2
Fore
SplineSet
350 672 m 1
 530 672 l 1
 513 592 l 1
 333 592 l 1
 305 462 l 1
 332 497 344 509 370 522 c 0
 404 539 444 549 480 549 c 0
 568 549 624 497 624 416 c 0
 624 400 622 380 618 362 c 2
 541 0 l 1
 401 0 l 1
 471 330 l 2
 475 346 477 363 477 371 c 0
 477 407 450 430 408 430 c 0
 346 430 289 384 276 324 c 2
 207 0 l 1
 67 0 l 1
 193 592 l 1
 131 592 l 1
 148 672 l 1
 210 672 l 1
 222 729 l 1
 362 729 l 1
 350 672 l 1
EndSplineSet
EndChar

StartChar: tcommaaccent
Encoding: 355 355 325
Width: 333
Flags: MW
HStem: -172 112<114 157 90 236> -23 20 436 93<126 176 107 196 336 394>
VStem: 101 147<35 110.5>
LayerCount: 2
Fore
SplineSet
414 529 m 1
 394 436 l 1
 316 436 l 1
 253 142 l 2
 250 126 248 113 248 108 c 0
 248 92 262 83 286 83 c 0
 297 83 305 84 319 86 c 1
 298 -12 l 1
 271 -20 247 -23 214 -23 c 0
 141 -23 101 7 101 63 c 0
 101 77 102 90 106 104 c 1
 176 436 l 1
 107 436 l 1
 126 529 l 1
 196 529 l 1
 227 674 l 1
 367 674 l 1
 336 529 l 1
 414 529 l 1
114 -60 m 1
 236 -60 l 1
 215 -156 l 1
 205 -234 138 -301 62 -307 c 1
 72 -261 l 1
 116 -253 151 -217 157 -172 c 1
 90 -172 l 1
 114 -60 l 1
EndSplineSet
EndChar

StartChar: uni021B
Encoding: 539 539 326
Width: 333
Flags: MW
HStem: -172 112<114 157 90 236> -23 20 436 93<126 176 107 196 336 394>
VStem: 101 147<35 110.5>
LayerCount: 2
Fore
SplineSet
414 529 m 1
 394 436 l 1
 316 436 l 1
 253 142 l 2
 250 126 248 113 248 108 c 0
 248 92 262 83 286 83 c 0
 297 83 305 84 319 86 c 1
 298 -12 l 1
 271 -20 247 -23 214 -23 c 0
 141 -23 101 7 101 63 c 0
 101 77 102 90 106 104 c 1
 176 436 l 1
 107 436 l 1
 126 529 l 1
 196 529 l 1
 227 674 l 1
 367 674 l 1
 336 529 l 1
 414 529 l 1
114 -60 m 1
 236 -60 l 1
 215 -156 l 1
 205 -234 138 -301 62 -307 c 1
 72 -261 l 1
 116 -253 151 -217 157 -172 c 1
 90 -172 l 1
 114 -60 l 1
EndSplineSet
EndChar

StartChar: wcircumflex
Encoding: 373 373 327
Width: 778
Flags: MW
HStem: 0 20 520 20<120 265 265 265 429 573 573 573 736 881 881 881>
LayerCount: 2
Fore
SplineSet
617 0 m 1
 472 0 l 1
 468 380 l 1
 302 0 l 1
 157 0 l 1
 120 540 l 1
 265 540 l 1
 270 162 l 1
 429 540 l 1
 573 540 l 1
 573 162 l 1
 736 540 l 1
 881 540 l 1
 617 0 l 1
490 757 m 1
 597 757 l 1
 669 610 l 1
 591 610 l 1
 530 707 l 1
 427 610 l 1
 351 610 l 1
 490 757 l 1
EndSplineSet
EndChar

StartChar: wdieresis
Encoding: 7813 7813 328
Width: 778
Flags: MW
HStem: 0 20 520 20<120 265 265 265 429 573 573 573 736 881 881 881> 621 120<388 473 362 498 388 548 574 659>
LayerCount: 2
Fore
SplineSet
617 0 m 1
 472 0 l 1
 468 380 l 1
 302 0 l 1
 157 0 l 1
 120 540 l 1
 265 540 l 1
 270 162 l 1
 429 540 l 1
 573 540 l 1
 573 162 l 1
 736 540 l 1
 881 540 l 1
 617 0 l 1
498 741 m 1
 473 621 l 1
 362 621 l 1
 388 741 l 1
 498 741 l 1
684 741 m 1
 659 621 l 1
 548 621 l 1
 574 741 l 1
 684 741 l 1
EndSplineSet
EndChar

StartChar: amacron
Encoding: 257 257 329
Width: 556
Flags: W
HStem: -23 112<178 300> 0 20 437 112<330.5 388.5> 642 80<279 562 262 579>
VStem: 50 143<122.5 138> 363 143<22 65> 436 142<383.5 442.5>
LayerCount: 2
Fore
SplineSet
527 17 m 1xa4
 523 0 l 1
 370 0 l 1
 365 11 363 17 363 27 c 0x4c
 363 34 363 39 366 54 c 1
 306 -1 257 -23 200 -23 c 0
 156 -23 122 -13 97 8 c 0
 68 32 50 70 50 108 c 0
 50 168 83 229 136 267 c 0
 167 289 204 303 252 311 c 2
 310 320 l 1
 382 330 382 330 402 341 c 0
 422 351 436 373 436 394 c 0xaa
 436 424 414 437 363 437 c 0xa4
 298 437 268 417 251 362 c 1
 120 362 l 1
 148 492 229 549 386 549 c 0
 457 549 505 537 537 511 c 0
 561 492 578 457 578 428 c 0xa2
 578 416 576 401 572 383 c 2
 509 83 l 2
 507 75 506 68 506 62 c 0
 506 47 512 34 527 17 c 1xa4
400 217 m 2x9c
 408 255 l 1
 396 248 393 247 382 245 c 0
 378 244 371 243 361 241 c 2
 345 238 l 1
 295 230 l 2
 230 219 193 186 193 139 c 0
 193 106 218 89 266 89 c 0
 334 89 382 135 400 217 c 2x9c
579 722 m 1
 562 642 l 1
 262 642 l 1
 279 722 l 1
 579 722 l 1
EndSplineSet
EndChar

StartChar: ycircumflex
Encoding: 375 375 330
Width: 556
Flags: MW
HStem: -219 111<82 103.5> 0 20 520 20<124 278 278 278 509 653 653 653>
LayerCount: 2
Fore
SplineSet
509 540 m 1
 653 540 l 1
 295 -98 l 2
 259 -163 237 -185 194 -202 c 1
 163 -213 126 -219 81 -219 c 0
 61 -219 50 -218 37 -215 c 1
 60 -106 l 1
 71 -108 76 -108 88 -108 c 0
 157 -108 201 -72 201 -15 c 1
 200 0 l 1
 124 540 l 1
 278 540 l 1
 314 147 l 1
 509 540 l 1
375 757 m 1
 482 757 l 1
 553 610 l 1
 475 610 l 1
 415 707 l 1
 312 610 l 1
 235 610 l 1
 375 757 l 1
EndSplineSet
EndChar

StartChar: ccircumflex
Encoding: 265 265 331
Width: 556
Flags: MW
HStem: -23 112<279 336 279 356> 437 112<351 393.5>
VStem: 77 143<157 219 157 219.5>
LayerCount: 2
Fore
SplineSet
593 338 m 1
 459 338 l 1
 458 377 456 389 448 404 c 1
 435 425 410 437 377 437 c 0
 322 437 285 411 257 352 c 1
 233 304 220 246 220 192 c 0
 220 122 249 89 309 89 c 0
 363 89 396 116 427 187 c 1
 561 187 l 1
 519 53 421 -23 291 -23 c 0
 218 -23 162 -3 126 38 c 0
 95 73 77 122 77 172 c 0
 77 267 119 384 178 454 c 1
 230 518 304 549 398 549 c 0
 465 549 512 532 549 494 c 0
 580 463 597 423 597 381 c 0
 597 371 596 362 593 338 c 1
395 757 m 1
 503 757 l 1
 574 610 l 1
 496 610 l 1
 435 707 l 1
 332 610 l 1
 256 610 l 1
 395 757 l 1
EndSplineSet
EndChar

StartChar: emacron
Encoding: 275 275 332
Width: 556
Flags: MW
HStem: -23 112<273.5 326 273.5 335.5> 226 93<228 448 228 573 210 448> 437 112<340 384.5> 642 80<277 560 260 577>
VStem: 64 143<153.5 186 153.5 235>
LayerCount: 2
Fore
SplineSet
573 226 m 1
 210 226 l 1
 208 201 207 191 207 181 c 0
 207 126 245 89 302 89 c 0
 350 89 395 114 414 152 c 1
 552 152 l 1
 497 40 396 -23 275 -23 c 0
 149 -23 64 61 64 185 c 0
 64 285 110 402 174 469 c 0
 221 518 301 549 379 549 c 0
 452 549 510 525 546 480 c 0
 574 444 591 396 591 350 c 0
 591 312 585 272 573 226 c 1
228 319 m 1
 448 319 l 1
 448 354 448 356 446 366 c 0
 441 409 408 437 361 437 c 0
 295 437 249 397 228 319 c 1
577 722 m 1
 560 642 l 1
 260 642 l 1
 277 722 l 1
 577 722 l 1
EndSplineSet
EndChar

StartChar: gcircumflex
Encoding: 285 285 333
Width: 611
Flags: W
HStem: -218 90<233 294.5 233 318> -23 112<280 285> 437 112<340 407> 520 20<523 656 656 656>
VStem: 26 146<-115.5 -77> 79 143<166 215.5>
LayerCount: 2
Fore
SplineSet
523 540 m 1x14
 656 540 l 1x14
 537 -18 l 2
 510 -146 401 -218 235 -218 c 0
 173 -218 129 -210 92 -192 c 0
 52 -172 26 -135 26 -96 c 0
 26 -88 27 -77 29 -65 c 1
 173 -65 l 1
 172 -77 l 1xe8
 172 -107 208 -128 258 -128 c 0
 331 -128 390 -84 404 -18 c 2
 420 55 l 1
 356 -4 316 -23 254 -23 c 0
 152 -23 79 57 79 167 c 0
 79 264 116 373 174 445 c 0
 226 511 302 549 378 549 c 0xe4
 437 549 478 520 505 457 c 1
 523 540 l 1x14
379 437 m 0x64
 297 437 222 324 222 201 c 0
 222 131 254 89 306 89 c 0
 395 89 471 193 471 315 c 0
 471 389 435 437 379 437 c 0x64
384 757 m 1
 492 757 l 1
 563 610 l 1
 485 610 l 1
 424 707 l 1
 321 610 l 1
 245 610 l 1
 384 757 l 1
EndSplineSet
EndChar

StartChar: ibreve
Encoding: 301 301 334
Width: 278
Flags: MW
HStem: 0 20 520 20<182 322 322 322> 611 78<257.5 306>
LayerCount: 2
Fore
SplineSet
322 540 m 1
 207 0 l 1
 67 0 l 1
 182 540 l 1
 322 540 l 1
385 754 m 1
 428 754 l 1
 414 672 345 611 267 611 c 0
 203 611 161 652 161 714 c 0
 161 727 162 737 166 754 c 1
 209 754 l 1
 210 709 232 689 283 689 c 0
 334 689 369 711 385 754 c 1
EndSplineSet
EndChar

StartChar: imacron
Encoding: 299 299 335
Width: 278
Flags: MW
HStem: 0 20 520 20<182 322 322 322> 642 80<157 407 140 424>
LayerCount: 2
Fore
SplineSet
322 540 m 1
 207 0 l 1
 67 0 l 1
 182 540 l 1
 322 540 l 1
424 722 m 1
 407 642 l 1
 140 642 l 1
 157 722 l 1
 424 722 l 1
EndSplineSet
EndChar

StartChar: jcircumflex
Encoding: 309 309 336
Width: 278
Flags: MW
HStem: -218 112<-1 21 -1 59> 520 20<185 325 325 325>
LayerCount: 2
Fore
SplineSet
325 540 m 1
 190 -94 l 2
 172 -181 116 -218 2 -218 c 0
 -17 -218 -29 -217 -43 -213 c 1
 -19 -102 l 1
 -15 -105 -8 -106 6 -106 c 0
 36 -106 50 -94 57 -62 c 2
 185 540 l 1
 325 540 l 1
247 757 m 1
 354 757 l 1
 426 610 l 1
 348 610 l 1
 287 707 l 1
 184 610 l 1
 108 610 l 1
 247 757 l 1
EndSplineSet
EndChar

StartChar: kcommaaccent
Encoding: 311 311 337
Width: 556
Flags: MW
HStem: -172 112<220 263 196 342> 0 20 520 20<492 651 651 651> 709 20<214 354 354 354>
LayerCount: 2
Fore
SplineSet
354 729 m 1
 269 330 l 1
 492 540 l 1
 651 540 l 1
 419 334 l 1
 548 0 l 1
 384 0 l 1
 305 239 l 1
 237 177 l 1
 199 0 l 1
 59 0 l 1
 214 729 l 1
 354 729 l 1
220 -60 m 1
 342 -60 l 1
 321 -156 l 1
 311 -234 243 -301 168 -307 c 1
 178 -261 l 1
 222 -253 257 -216 263 -172 c 1
 196 -172 l 1
 220 -60 l 1
EndSplineSet
EndChar

StartChar: lcommaaccent
Encoding: 316 316 338
Width: 278
Flags: MW
HStem: -172 112<63 106 39 185> 0 20 709 20<222 362 362 362>
LayerCount: 2
Fore
SplineSet
362 729 m 1
 207 0 l 1
 67 0 l 1
 222 729 l 1
 362 729 l 1
63 -60 m 1
 185 -60 l 1
 164 -156 l 1
 154 -234 87 -301 11 -307 c 1
 21 -261 l 1
 65 -253 100 -217 106 -172 c 1
 39 -172 l 1
 63 -60 l 1
EndSplineSet
EndChar

StartChar: ncommaaccent
Encoding: 326 326 339
Width: 611
Flags: W
HStem: -172 112<231 274 207 353> 0 20 437 112<371 526.5> 520 20<178 318 318 318>
VStem: 479 150<355 457>
LayerCount: 2
Fore
SplineSet
178 540 m 1x58
 318 540 l 1x98
 300 458 l 1
 354 522 408 549 482 549 c 0
 571 549 629 497 629 417 c 0
 629 399 627 381 623 362 c 2
 546 0 l 1
 406 0 l 1
 473 313 l 2
 477 336 479 348 479 362 c 0
 479 411 453 437 405 437 c 0x68
 337 437 285 387 268 304 c 2
 203 0 l 1
 63 0 l 1
 178 540 l 1x58
231 -60 m 1
 353 -60 l 1
 332 -156 l 1
 322 -234 255 -301 179 -307 c 1
 189 -261 l 1
 233 -253 268 -216 274 -172 c 1
 207 -172 l 1
 231 -60 l 1
EndSplineSet
EndChar

StartChar: omacron
Encoding: 333 333 340
Width: 611
Flags: MW
HStem: -23 112<294 350 294 353> 437 112<361 422> 642 80<306 589 289 606>
VStem: 82 143<169.5 220> 491 143<305.5 356>
LayerCount: 2
Fore
SplineSet
413 549 m 0
 550 549 634 473 634 349 c 0
 634 262 603 163 555 100 c 0
 494 19 407 -23 299 -23 c 0
 166 -23 82 55 82 177 c 0
 82 263 113 362 161 426 c 0
 220 505 309 549 413 549 c 0
391 437 m 0
 300 437 225 332 225 205 c 0
 225 134 264 89 324 89 c 0
 376 89 422 120 453 176 c 0
 477 218 491 271 491 320 c 0
 491 392 453 437 391 437 c 0
606 722 m 1
 589 642 l 1
 289 642 l 1
 306 722 l 1
 606 722 l 1
EndSplineSet
EndChar

StartChar: rcommaaccent
Encoding: 343 343 341
Width: 389
Flags: W
HStem: -172 112<60 103 36 182> 0 20 410 139<373.5 473> 520 20<178 318 318 318>
LayerCount: 2
Fore
SplineSet
178 540 m 1x50
 318 540 l 1x90
 296 434 l 1
 342 507 406 549 470 549 c 0
 476 549 479 549 487 548 c 1
 457 406 l 1
 440 409 430 410 415 410 c 0x20
 332 410 282 369 264 287 c 2
 203 0 l 1
 63 0 l 1
 178 540 l 1x50
60 -60 m 1
 182 -60 l 1
 161 -156 l 1
 151 -234 84 -301 8 -307 c 1
 18 -261 l 1
 62 -253 97 -217 103 -172 c 1
 36 -172 l 1
 60 -60 l 1
EndSplineSet
EndChar

StartChar: ubreve
Encoding: 365 365 342
Width: 611
Flags: W
HStem: -23 112<190 346.5> 0 20 520 20<174 314 314 314 516 656 656 656> 611 78<408.5 455.5>
VStem: 88 150<69 171.5> 310 48<683 746>
LayerCount: 2
Fore
SplineSet
541 0 m 1x6c
 401 0 l 1x5c
 416 68 l 1
 362 4 308 -23 234 -23 c 0
 146 -23 88 29 88 109 c 0
 88 127 90 145 94 164 c 2
 174 540 l 1
 314 540 l 1
 244 213 l 2
 239 189 238 179 238 164 c 0
 238 114 263 89 314 89 c 0xac
 379 89 431 141 448 222 c 2
 516 540 l 1
 656 540 l 1
 541 0 l 1x6c
535 754 m 1
 577 754 l 1
 563 672 495 611 416 611 c 0
 352 611 310 652 310 714 c 0
 310 727 311 737 316 754 c 1
 358 754 l 1
 358 746 l 2
 358 710 385 689 432 689 c 0
 484 689 519 711 535 754 c 1
EndSplineSet
EndChar

StartChar: umacron
Encoding: 363 363 343
Width: 611
Flags: W
HStem: -23 112<190 346.5> 0 20 520 20<174 314 314 314 516 656 656 656> 642 80<304 587 287 604>
VStem: 88 150<69 171.5>
LayerCount: 2
Fore
SplineSet
541 0 m 1x68
 401 0 l 1x58
 416 68 l 1
 361 4 308 -23 234 -23 c 0
 146 -23 88 29 88 109 c 0
 88 127 90 145 94 164 c 2
 174 540 l 1
 314 540 l 1
 245 213 l 2
 239 187 238 179 238 164 c 0
 238 114 263 89 314 89 c 0xa8
 379 89 431 141 448 222 c 2
 516 540 l 1
 656 540 l 1
 541 0 l 1x68
604 722 m 1
 587 642 l 1
 287 642 l 1
 304 722 l 1
 604 722 l 1
EndSplineSet
EndChar

StartChar: uogonek
Encoding: 371 371 344
Width: 611
Flags: W
HStem: -233 50<451.5 467.5> -23 112<190 346.5> 0 20 520 20<174 314 314 314 516 656 656 656>
VStem: 88 150<69 171.5> 317 99<-155.5 -124>
LayerCount: 2
Fore
SplineSet
656 540 m 1x5c
 541 0 l 1
 461 -41 416 -92 416 -142 c 0
 416 -169 434 -183 469 -183 c 0
 491 -183 514 -180 537 -172 c 1
 526 -224 l 1
 511 -227 l 2
 487 -232 479 -233 456 -233 c 0
 363 -233 317 -207 317 -154 c 0
 317 -94 365 -45 466 0 c 1
 401 0 l 1xbc
 416 68 l 1
 362 4 308 -23 234 -23 c 0
 146 -23 88 29 88 109 c 0
 88 127 90 145 94 164 c 2
 174 540 l 1
 314 540 l 1
 244 213 l 2
 239 189 238 179 238 164 c 0
 238 114 263 89 314 89 c 0
 379 89 431 141 448 222 c 2
 516 540 l 1
 656 540 l 1x5c
EndSplineSet
EndChar

StartChar: rcaron
Encoding: 345 345 345
Width: 389
Flags: W
HStem: 0 20 410 139<373.5 472.5> 520 20<178 318 318 318>
LayerCount: 2
Fore
SplineSet
178 540 m 1xa0
 318 540 l 1x20
 295 434 l 1
 341 507 405 549 470 549 c 0
 475 549 479 549 487 548 c 1
 457 406 l 1
 439 409 430 410 415 410 c 0x40
 332 410 281 369 264 287 c 2
 203 0 l 1
 63 0 l 1
 178 540 l 1xa0
394 610 m 1
 286 610 l 1
 215 757 l 1
 293 757 l 1
 354 660 l 1
 457 757 l 1
 533 757 l 1
 394 610 l 1
EndSplineSet
EndChar

StartChar: scedilla
Encoding: 351 351 346
Width: 556
Flags: W
HStem: -220 50<199 232 199 263.5> 437 112<347.5 391.5>
VStem: 127 149<316.5 400> 281 87<-138.5 -116> 411 148<128 155.5> 452 137<398 401.5>
LayerCount: 2
Fore
SplineSet
288 -22 m 1xe8
 262 -62 l 1
 277 -58 289 -56 305 -56 c 0
 344 -56 368 -77 368 -113 c 0
 368 -178 309 -220 218 -220 c 0
 173 -220 142 -213 85 -191 c 1
 115 -140 l 1
 163 -163 185 -170 213 -170 c 0
 251 -170 281 -151 281 -126 c 0
 281 -106 263 -93 237 -93 c 0
 220 -93 208 -96 184 -106 c 1
 238 -21 l 1
 215 -21 191 -15 159 -2 c 0
 99 21 60 72 60 127 c 0
 60 136 61 143 64 157 c 1
 201 157 l 1
 204 112 240 89 307 89 c 0
 368 89 411 112 411 144 c 0xd8
 411 167 398 176 335 196 c 2
 256 221 l 1
 168 250 127 288 127 345 c 0
 127 395 155 452 198 490 c 0
 241 528 308 549 387 549 c 0
 513 549 589 495 589 404 c 0
 589 392 588 384 584 366 c 1
 449 366 l 1
 451 375 452 379 452 385 c 0xe4
 452 418 419 437 364 437 c 0
 311 437 276 416 276 384 c 0
 276 364 290 354 341 339 c 2
 437 311 l 2
 520 286 559 247 559 187 c 0
 559 60 454 -22 288 -22 c 1xe8
EndSplineSet
EndChar

StartChar: gcommaaccent
Encoding: 291 291 347
Width: 611
Flags: W
HStem: -218 90<233 294.5 233 318> -23 112<280 285> 437 112<340 407> 520 20<523 656 656 656> 607 112<449 492 371 516>
VStem: 26 146<-115.5 -77> 79 143<166 215.5>
LayerCount: 2
Fore
SplineSet
523 540 m 1x12
 656 540 l 1x12
 537 -18 l 2
 510 -146 401 -218 235 -218 c 0
 173 -218 129 -210 92 -192 c 0
 52 -172 26 -135 26 -96 c 0
 26 -88 27 -77 29 -65 c 1
 173 -65 l 1
 172 -77 l 1xe4
 172 -107 208 -128 258 -128 c 0
 331 -128 390 -84 404 -18 c 2
 420 55 l 1
 356 -4 316 -23 254 -23 c 0
 153 -23 79 57 79 167 c 0
 79 264 116 373 174 445 c 0
 227 511 302 549 378 549 c 0xe2
 437 549 478 520 505 457 c 1
 523 540 l 1x12
379 437 m 0x6a
 297 437 222 324 222 201 c 0
 222 131 254 89 306 89 c 0
 395 89 471 193 471 315 c 0
 471 389 435 437 379 437 c 0x6a
492 607 m 1
 371 607 l 1
 391 703 l 1
 402 781 469 848 545 854 c 1
 535 808 l 1
 490 800 456 764 449 719 c 1
 516 719 l 1
 492 607 l 1
EndSplineSet
EndChar

StartChar: Euro
Encoding: 8364 8364 348
Width: 556
Flags: MW
HStem: -23 131<310 325> 250 68<60 94 21 99 239 418> 386 68<89 114 50 137 283 495> 594 130<413.5 467>
LayerCount: 2
Fore
SplineSet
60 318 m 1
 99 318 l 1
 104 347 106 358 114 386 c 1
 50 386 l 1
 89 454 l 1
 137 454 l 1
 211 625 336 724 479 724 c 0
 550 724 586 710 648 656 c 1
 575 527 l 1
 523 577 489 594 445 594 c 0
 382 594 325 546 283 454 c 1
 534 454 l 1
 495 386 l 1
 255 386 l 1
 247 359 243 340 239 318 c 1
 456 318 l 1
 418 250 l 1
 237 250 l 1
 244 158 280 108 340 108 c 0
 381 108 410 118 497 160 c 1
 466 11 l 1
 379 -16 345 -23 305 -23 c 0
 227 -23 153 23 123 88 c 0
 103 133 95 182 94 250 c 1
 21 250 l 1
 60 318 l 1
EndSplineSet
EndChar

